<mxfile host="Electron" modified="2024-03-25T14:30:43.410Z" agent="Mozilla/5.0 (Windows NT 10.0; Win64; x64) AppleWebKit/537.36 (KHTML, like Gecko) draw.io/23.0.2 Chrome/120.0.6099.109 Electron/28.1.0 Safari/537.36" etag="zBM8sGU5G5yKQEpQk7kc" version="23.0.2" type="device" pages="3">
  <diagram id="C5RBs43oDa-KdzZeNtuy" name="Server">
    <mxGraphModel dx="1974" dy="-500" grid="1" gridSize="10" guides="1" tooltips="1" connect="1" arrows="1" fold="1" page="1" pageScale="1" pageWidth="827" pageHeight="1169" math="0" shadow="0">
      <root>
        <mxCell id="WIyWlLk6GJQsqaUBKTNV-0" />
        <mxCell id="WIyWlLk6GJQsqaUBKTNV-1" parent="WIyWlLk6GJQsqaUBKTNV-0" />
        <mxCell id="agEdRXNcoSYmF9dQdAtc-1" value="Note" style="swimlane;fontStyle=0;childLayout=stackLayout;horizontal=1;startSize=26;fillColor=none;horizontalStack=0;resizeParent=1;resizeParentMax=0;resizeLast=0;collapsible=1;marginBottom=0;whiteSpace=wrap;html=1;" parent="WIyWlLk6GJQsqaUBKTNV-1" vertex="1">
          <mxGeometry x="102" y="1180" width="140" height="208" as="geometry" />
        </mxCell>
        <mxCell id="agEdRXNcoSYmF9dQdAtc-2" value="+ NoteId: int" style="text;strokeColor=none;fillColor=none;align=left;verticalAlign=top;spacingLeft=4;spacingRight=4;overflow=hidden;rotatable=0;points=[[0,0.5],[1,0.5]];portConstraint=eastwest;whiteSpace=wrap;html=1;" parent="agEdRXNcoSYmF9dQdAtc-1" vertex="1">
          <mxGeometry y="26" width="140" height="26" as="geometry" />
        </mxCell>
        <mxCell id="agEdRXNcoSYmF9dQdAtc-3" value="+ SourceId: int" style="text;strokeColor=none;fillColor=none;align=left;verticalAlign=top;spacingLeft=4;spacingRight=4;overflow=hidden;rotatable=0;points=[[0,0.5],[1,0.5]];portConstraint=eastwest;whiteSpace=wrap;html=1;" parent="agEdRXNcoSYmF9dQdAtc-1" vertex="1">
          <mxGeometry y="52" width="140" height="26" as="geometry" />
        </mxCell>
        <mxCell id="agEdRXNcoSYmF9dQdAtc-4" value="+ Username: string" style="text;strokeColor=none;fillColor=none;align=left;verticalAlign=top;spacingLeft=4;spacingRight=4;overflow=hidden;rotatable=0;points=[[0,0.5],[1,0.5]];portConstraint=eastwest;whiteSpace=wrap;html=1;" parent="agEdRXNcoSYmF9dQdAtc-1" vertex="1">
          <mxGeometry y="78" width="140" height="26" as="geometry" />
        </mxCell>
        <mxCell id="agEdRXNcoSYmF9dQdAtc-34" value="+ NoteText: string" style="text;strokeColor=none;fillColor=none;align=left;verticalAlign=top;spacingLeft=4;spacingRight=4;overflow=hidden;rotatable=0;points=[[0,0.5],[1,0.5]];portConstraint=eastwest;whiteSpace=wrap;html=1;" parent="agEdRXNcoSYmF9dQdAtc-1" vertex="1">
          <mxGeometry y="104" width="140" height="26" as="geometry" />
        </mxCell>
        <mxCell id="agEdRXNcoSYmF9dQdAtc-35" value="+ TagsString: string" style="text;strokeColor=none;fillColor=none;align=left;verticalAlign=top;spacingLeft=4;spacingRight=4;overflow=hidden;rotatable=0;points=[[0,0.5],[1,0.5]];portConstraint=eastwest;whiteSpace=wrap;html=1;" parent="agEdRXNcoSYmF9dQdAtc-1" vertex="1">
          <mxGeometry y="130" width="140" height="26" as="geometry" />
        </mxCell>
        <mxCell id="agEdRXNcoSYmF9dQdAtc-36" value="+ Tags: List&amp;lt;string&amp;gt;" style="text;strokeColor=none;fillColor=none;align=left;verticalAlign=top;spacingLeft=4;spacingRight=4;overflow=hidden;rotatable=0;points=[[0,0.5],[1,0.5]];portConstraint=eastwest;whiteSpace=wrap;html=1;" parent="agEdRXNcoSYmF9dQdAtc-1" vertex="1">
          <mxGeometry y="156" width="140" height="26" as="geometry" />
        </mxCell>
        <mxCell id="agEdRXNcoSYmF9dQdAtc-37" value="+ NoteDate: DateTime" style="text;strokeColor=none;fillColor=none;align=left;verticalAlign=top;spacingLeft=4;spacingRight=4;overflow=hidden;rotatable=0;points=[[0,0.5],[1,0.5]];portConstraint=eastwest;whiteSpace=wrap;html=1;" parent="agEdRXNcoSYmF9dQdAtc-1" vertex="1">
          <mxGeometry y="182" width="140" height="26" as="geometry" />
        </mxCell>
        <mxCell id="agEdRXNcoSYmF9dQdAtc-5" value="Source" style="swimlane;fontStyle=0;childLayout=stackLayout;horizontal=1;startSize=26;fillColor=none;horizontalStack=0;resizeParent=1;resizeParentMax=0;resizeLast=0;collapsible=1;marginBottom=0;whiteSpace=wrap;html=1;" parent="WIyWlLk6GJQsqaUBKTNV-1" vertex="1">
          <mxGeometry x="-635" y="1596" width="170" height="416" as="geometry" />
        </mxCell>
        <mxCell id="agEdRXNcoSYmF9dQdAtc-6" value="+ SourceId: int" style="text;strokeColor=none;fillColor=none;align=left;verticalAlign=top;spacingLeft=4;spacingRight=4;overflow=hidden;rotatable=0;points=[[0,0.5],[1,0.5]];portConstraint=eastwest;whiteSpace=wrap;html=1;" parent="agEdRXNcoSYmF9dQdAtc-5" vertex="1">
          <mxGeometry y="26" width="170" height="26" as="geometry" />
        </mxCell>
        <mxCell id="agEdRXNcoSYmF9dQdAtc-7" value="+ Username: string" style="text;strokeColor=none;fillColor=none;align=left;verticalAlign=top;spacingLeft=4;spacingRight=4;overflow=hidden;rotatable=0;points=[[0,0.5],[1,0.5]];portConstraint=eastwest;whiteSpace=wrap;html=1;" parent="agEdRXNcoSYmF9dQdAtc-5" vertex="1">
          <mxGeometry y="52" width="170" height="26" as="geometry" />
        </mxCell>
        <mxCell id="agEdRXNcoSYmF9dQdAtc-8" value="+ Type: string" style="text;strokeColor=none;fillColor=none;align=left;verticalAlign=top;spacingLeft=4;spacingRight=4;overflow=hidden;rotatable=0;points=[[0,0.5],[1,0.5]];portConstraint=eastwest;whiteSpace=wrap;html=1;" parent="agEdRXNcoSYmF9dQdAtc-5" vertex="1">
          <mxGeometry y="78" width="170" height="26" as="geometry" />
        </mxCell>
        <mxCell id="agEdRXNcoSYmF9dQdAtc-38" value="+ NoteType: SourceType" style="text;strokeColor=none;fillColor=none;align=left;verticalAlign=top;spacingLeft=4;spacingRight=4;overflow=hidden;rotatable=0;points=[[0,0.5],[1,0.5]];portConstraint=eastwest;whiteSpace=wrap;html=1;" parent="agEdRXNcoSYmF9dQdAtc-5" vertex="1">
          <mxGeometry y="104" width="170" height="26" as="geometry" />
        </mxCell>
        <mxCell id="agEdRXNcoSYmF9dQdAtc-39" value="+ Name: string" style="text;strokeColor=none;fillColor=none;align=left;verticalAlign=top;spacingLeft=4;spacingRight=4;overflow=hidden;rotatable=0;points=[[0,0.5],[1,0.5]];portConstraint=eastwest;whiteSpace=wrap;html=1;" parent="agEdRXNcoSYmF9dQdAtc-5" vertex="1">
          <mxGeometry y="130" width="170" height="26" as="geometry" />
        </mxCell>
        <mxCell id="agEdRXNcoSYmF9dQdAtc-40" value="+ Description: string" style="text;strokeColor=none;fillColor=none;align=left;verticalAlign=top;spacingLeft=4;spacingRight=4;overflow=hidden;rotatable=0;points=[[0,0.5],[1,0.5]];portConstraint=eastwest;whiteSpace=wrap;html=1;" parent="agEdRXNcoSYmF9dQdAtc-5" vertex="1">
          <mxGeometry y="156" width="170" height="26" as="geometry" />
        </mxCell>
        <mxCell id="agEdRXNcoSYmF9dQdAtc-41" value="+ IsLink: bool" style="text;strokeColor=none;fillColor=none;align=left;verticalAlign=top;spacingLeft=4;spacingRight=4;overflow=hidden;rotatable=0;points=[[0,0.5],[1,0.5]];portConstraint=eastwest;whiteSpace=wrap;html=1;" parent="agEdRXNcoSYmF9dQdAtc-5" vertex="1">
          <mxGeometry y="182" width="170" height="26" as="geometry" />
        </mxCell>
        <mxCell id="agEdRXNcoSYmF9dQdAtc-42" value="+ Link: string?" style="text;strokeColor=none;fillColor=none;align=left;verticalAlign=top;spacingLeft=4;spacingRight=4;overflow=hidden;rotatable=0;points=[[0,0.5],[1,0.5]];portConstraint=eastwest;whiteSpace=wrap;html=1;" parent="agEdRXNcoSYmF9dQdAtc-5" vertex="1">
          <mxGeometry y="208" width="170" height="26" as="geometry" />
        </mxCell>
        <mxCell id="agEdRXNcoSYmF9dQdAtc-43" value="+ Content: byte[]?" style="text;strokeColor=none;fillColor=none;align=left;verticalAlign=top;spacingLeft=4;spacingRight=4;overflow=hidden;rotatable=0;points=[[0,0.5],[1,0.5]];portConstraint=eastwest;whiteSpace=wrap;html=1;" parent="agEdRXNcoSYmF9dQdAtc-5" vertex="1">
          <mxGeometry y="234" width="170" height="26" as="geometry" />
        </mxCell>
        <mxCell id="agEdRXNcoSYmF9dQdAtc-44" value="+ CreatedAt: DateTime" style="text;strokeColor=none;fillColor=none;align=left;verticalAlign=top;spacingLeft=4;spacingRight=4;overflow=hidden;rotatable=0;points=[[0,0.5],[1,0.5]];portConstraint=eastwest;whiteSpace=wrap;html=1;" parent="agEdRXNcoSYmF9dQdAtc-5" vertex="1">
          <mxGeometry y="260" width="170" height="26" as="geometry" />
        </mxCell>
        <mxCell id="agEdRXNcoSYmF9dQdAtc-45" value="+ UpdatedAt: DateTime?" style="text;strokeColor=none;fillColor=none;align=left;verticalAlign=top;spacingLeft=4;spacingRight=4;overflow=hidden;rotatable=0;points=[[0,0.5],[1,0.5]];portConstraint=eastwest;whiteSpace=wrap;html=1;" parent="agEdRXNcoSYmF9dQdAtc-5" vertex="1">
          <mxGeometry y="286" width="170" height="26" as="geometry" />
        </mxCell>
        <mxCell id="agEdRXNcoSYmF9dQdAtc-46" value="+ AuthorsString: string?" style="text;strokeColor=none;fillColor=none;align=left;verticalAlign=top;spacingLeft=4;spacingRight=4;overflow=hidden;rotatable=0;points=[[0,0.5],[1,0.5]];portConstraint=eastwest;whiteSpace=wrap;html=1;" parent="agEdRXNcoSYmF9dQdAtc-5" vertex="1">
          <mxGeometry y="312" width="170" height="26" as="geometry" />
        </mxCell>
        <mxCell id="agEdRXNcoSYmF9dQdAtc-47" value="+ Authors: List&amp;lt;string&amp;gt;?" style="text;strokeColor=none;fillColor=none;align=left;verticalAlign=top;spacingLeft=4;spacingRight=4;overflow=hidden;rotatable=0;points=[[0,0.5],[1,0.5]];portConstraint=eastwest;whiteSpace=wrap;html=1;" parent="agEdRXNcoSYmF9dQdAtc-5" vertex="1">
          <mxGeometry y="338" width="170" height="26" as="geometry" />
        </mxCell>
        <mxCell id="agEdRXNcoSYmF9dQdAtc-48" value="+ Publisher: string?" style="text;strokeColor=none;fillColor=none;align=left;verticalAlign=top;spacingLeft=4;spacingRight=4;overflow=hidden;rotatable=0;points=[[0,0.5],[1,0.5]];portConstraint=eastwest;whiteSpace=wrap;html=1;" parent="agEdRXNcoSYmF9dQdAtc-5" vertex="1">
          <mxGeometry y="364" width="170" height="26" as="geometry" />
        </mxCell>
        <mxCell id="agEdRXNcoSYmF9dQdAtc-49" value="+ AccessedAt: DateTime?" style="text;strokeColor=none;fillColor=none;align=left;verticalAlign=top;spacingLeft=4;spacingRight=4;overflow=hidden;rotatable=0;points=[[0,0.5],[1,0.5]];portConstraint=eastwest;whiteSpace=wrap;html=1;" parent="agEdRXNcoSYmF9dQdAtc-5" vertex="1">
          <mxGeometry y="390" width="170" height="26" as="geometry" />
        </mxCell>
        <mxCell id="agEdRXNcoSYmF9dQdAtc-9" value="User" style="swimlane;fontStyle=0;childLayout=stackLayout;horizontal=1;startSize=26;fillColor=none;horizontalStack=0;resizeParent=1;resizeParentMax=0;resizeLast=0;collapsible=1;marginBottom=0;whiteSpace=wrap;html=1;" parent="WIyWlLk6GJQsqaUBKTNV-1" vertex="1">
          <mxGeometry x="277" y="1240" width="140" height="104" as="geometry" />
        </mxCell>
        <mxCell id="agEdRXNcoSYmF9dQdAtc-10" value="+ Username: string" style="text;strokeColor=none;fillColor=none;align=left;verticalAlign=top;spacingLeft=4;spacingRight=4;overflow=hidden;rotatable=0;points=[[0,0.5],[1,0.5]];portConstraint=eastwest;whiteSpace=wrap;html=1;" parent="agEdRXNcoSYmF9dQdAtc-9" vertex="1">
          <mxGeometry y="26" width="140" height="26" as="geometry" />
        </mxCell>
        <mxCell id="agEdRXNcoSYmF9dQdAtc-11" value="+ Password: string?" style="text;strokeColor=none;fillColor=none;align=left;verticalAlign=top;spacingLeft=4;spacingRight=4;overflow=hidden;rotatable=0;points=[[0,0.5],[1,0.5]];portConstraint=eastwest;whiteSpace=wrap;html=1;" parent="agEdRXNcoSYmF9dQdAtc-9" vertex="1">
          <mxGeometry y="52" width="140" height="26" as="geometry" />
        </mxCell>
        <mxCell id="agEdRXNcoSYmF9dQdAtc-12" value="+ Token: string?" style="text;strokeColor=none;fillColor=none;align=left;verticalAlign=top;spacingLeft=4;spacingRight=4;overflow=hidden;rotatable=0;points=[[0,0.5],[1,0.5]];portConstraint=eastwest;whiteSpace=wrap;html=1;" parent="agEdRXNcoSYmF9dQdAtc-9" vertex="1">
          <mxGeometry y="78" width="140" height="26" as="geometry" />
        </mxCell>
        <mxCell id="agEdRXNcoSYmF9dQdAtc-21" value="NoteConfiguration" style="swimlane;fontStyle=1;align=center;verticalAlign=top;childLayout=stackLayout;horizontal=1;startSize=26;horizontalStack=0;resizeParent=1;resizeParentMax=0;resizeLast=0;collapsible=1;marginBottom=0;whiteSpace=wrap;html=1;" parent="WIyWlLk6GJQsqaUBKTNV-1" vertex="1">
          <mxGeometry x="-300" y="1200" width="260" height="60" as="geometry" />
        </mxCell>
        <mxCell id="agEdRXNcoSYmF9dQdAtc-23" value="" style="line;strokeWidth=1;fillColor=none;align=left;verticalAlign=middle;spacingTop=-1;spacingLeft=3;spacingRight=3;rotatable=0;labelPosition=right;points=[];portConstraint=eastwest;strokeColor=inherit;" parent="agEdRXNcoSYmF9dQdAtc-21" vertex="1">
          <mxGeometry y="26" width="260" height="8" as="geometry" />
        </mxCell>
        <mxCell id="agEdRXNcoSYmF9dQdAtc-24" value="+ configure(EntityTypeBuilder&amp;lt;Note&amp;gt;): void" style="text;strokeColor=none;fillColor=none;align=left;verticalAlign=top;spacingLeft=4;spacingRight=4;overflow=hidden;rotatable=0;points=[[0,0.5],[1,0.5]];portConstraint=eastwest;whiteSpace=wrap;html=1;" parent="agEdRXNcoSYmF9dQdAtc-21" vertex="1">
          <mxGeometry y="34" width="260" height="26" as="geometry" />
        </mxCell>
        <mxCell id="agEdRXNcoSYmF9dQdAtc-25" value="Use" style="endArrow=open;endSize=12;dashed=1;html=1;rounded=0;edgeStyle=orthogonalEdgeStyle;" parent="WIyWlLk6GJQsqaUBKTNV-1" source="agEdRXNcoSYmF9dQdAtc-21" target="agEdRXNcoSYmF9dQdAtc-1" edge="1">
          <mxGeometry width="160" relative="1" as="geometry">
            <mxPoint x="-32" y="582" as="sourcePoint" />
            <mxPoint x="128" y="582" as="targetPoint" />
            <Array as="points">
              <mxPoint x="31" y="1230" />
              <mxPoint x="31" y="1310" />
            </Array>
          </mxGeometry>
        </mxCell>
        <mxCell id="agEdRXNcoSYmF9dQdAtc-26" value="Use" style="endArrow=open;endSize=12;dashed=1;html=1;rounded=0;" parent="WIyWlLk6GJQsqaUBKTNV-1" source="agEdRXNcoSYmF9dQdAtc-28" target="agEdRXNcoSYmF9dQdAtc-5" edge="1">
          <mxGeometry width="160" relative="1" as="geometry">
            <mxPoint x="-372" y="484" as="sourcePoint" />
            <mxPoint x="-372" y="538" as="targetPoint" />
          </mxGeometry>
        </mxCell>
        <mxCell id="agEdRXNcoSYmF9dQdAtc-27" value="Use" style="endArrow=open;endSize=12;dashed=1;html=1;rounded=0;" parent="WIyWlLk6GJQsqaUBKTNV-1" source="agEdRXNcoSYmF9dQdAtc-31" target="agEdRXNcoSYmF9dQdAtc-9" edge="1">
          <mxGeometry width="160" relative="1" as="geometry">
            <mxPoint x="220" y="1322" as="sourcePoint" />
            <mxPoint x="220" y="1376" as="targetPoint" />
          </mxGeometry>
        </mxCell>
        <mxCell id="agEdRXNcoSYmF9dQdAtc-28" value="SourceConfiguration" style="swimlane;fontStyle=1;align=center;verticalAlign=top;childLayout=stackLayout;horizontal=1;startSize=26;horizontalStack=0;resizeParent=1;resizeParentMax=0;resizeLast=0;collapsible=1;marginBottom=0;whiteSpace=wrap;html=1;" parent="WIyWlLk6GJQsqaUBKTNV-1" vertex="1">
          <mxGeometry x="-680" y="1486" width="260" height="60" as="geometry" />
        </mxCell>
        <mxCell id="agEdRXNcoSYmF9dQdAtc-29" value="" style="line;strokeWidth=1;fillColor=none;align=left;verticalAlign=middle;spacingTop=-1;spacingLeft=3;spacingRight=3;rotatable=0;labelPosition=right;points=[];portConstraint=eastwest;strokeColor=inherit;" parent="agEdRXNcoSYmF9dQdAtc-28" vertex="1">
          <mxGeometry y="26" width="260" height="8" as="geometry" />
        </mxCell>
        <mxCell id="agEdRXNcoSYmF9dQdAtc-30" value="+ configure(EntityTypeBuilder&amp;lt;Source&amp;gt;): void" style="text;strokeColor=none;fillColor=none;align=left;verticalAlign=top;spacingLeft=4;spacingRight=4;overflow=hidden;rotatable=0;points=[[0,0.5],[1,0.5]];portConstraint=eastwest;whiteSpace=wrap;html=1;" parent="agEdRXNcoSYmF9dQdAtc-28" vertex="1">
          <mxGeometry y="34" width="260" height="26" as="geometry" />
        </mxCell>
        <mxCell id="agEdRXNcoSYmF9dQdAtc-31" value="UserConfiguration" style="swimlane;fontStyle=1;align=center;verticalAlign=top;childLayout=stackLayout;horizontal=1;startSize=26;horizontalStack=0;resizeParent=1;resizeParentMax=0;resizeLast=0;collapsible=1;marginBottom=0;whiteSpace=wrap;html=1;" parent="WIyWlLk6GJQsqaUBKTNV-1" vertex="1">
          <mxGeometry x="490" y="1260" width="260" height="60" as="geometry" />
        </mxCell>
        <mxCell id="agEdRXNcoSYmF9dQdAtc-32" value="" style="line;strokeWidth=1;fillColor=none;align=left;verticalAlign=middle;spacingTop=-1;spacingLeft=3;spacingRight=3;rotatable=0;labelPosition=right;points=[];portConstraint=eastwest;strokeColor=inherit;" parent="agEdRXNcoSYmF9dQdAtc-31" vertex="1">
          <mxGeometry y="26" width="260" height="8" as="geometry" />
        </mxCell>
        <mxCell id="agEdRXNcoSYmF9dQdAtc-33" value="+ configure(EntityTypeBuilder&amp;lt;User&amp;gt;): void" style="text;strokeColor=none;fillColor=none;align=left;verticalAlign=top;spacingLeft=4;spacingRight=4;overflow=hidden;rotatable=0;points=[[0,0.5],[1,0.5]];portConstraint=eastwest;whiteSpace=wrap;html=1;" parent="agEdRXNcoSYmF9dQdAtc-31" vertex="1">
          <mxGeometry y="34" width="260" height="26" as="geometry" />
        </mxCell>
        <mxCell id="agEdRXNcoSYmF9dQdAtc-50" value="&lt;p style=&quot;margin:0px;margin-top:4px;text-align:center;text-decoration:underline;&quot;&gt;&lt;b&gt;SourceType&lt;/b&gt;&lt;/p&gt;&lt;hr&gt;&lt;p style=&quot;margin:0px;margin-left:8px;&quot;&gt;Pdf = 1&lt;/p&gt;&lt;p style=&quot;margin:0px;margin-left:8px;&quot;&gt;Vid = 2&lt;/p&gt;" style="verticalAlign=top;align=left;overflow=fill;fontSize=12;fontFamily=Helvetica;html=1;whiteSpace=wrap;" parent="WIyWlLk6GJQsqaUBKTNV-1" vertex="1">
          <mxGeometry x="-790" y="1682" width="80" height="61" as="geometry" />
        </mxCell>
        <mxCell id="agEdRXNcoSYmF9dQdAtc-51" value="1" style="endArrow=open;html=1;endSize=12;startArrow=diamondThin;startSize=14;startFill=1;edgeStyle=orthogonalEdgeStyle;align=left;verticalAlign=bottom;rounded=0;" parent="WIyWlLk6GJQsqaUBKTNV-1" source="agEdRXNcoSYmF9dQdAtc-38" target="agEdRXNcoSYmF9dQdAtc-50" edge="1">
          <mxGeometry x="-0.3383" y="-1" relative="1" as="geometry">
            <mxPoint x="-492" y="778" as="sourcePoint" />
            <mxPoint x="-332" y="778" as="targetPoint" />
            <mxPoint as="offset" />
          </mxGeometry>
        </mxCell>
        <mxCell id="agEdRXNcoSYmF9dQdAtc-52" value="&lt;p style=&quot;margin:0px;margin-top:4px;text-align:center;&quot;&gt;&lt;i&gt;&amp;lt;&amp;lt;Interface&amp;gt;&amp;gt;&lt;/i&gt;&lt;br&gt;&lt;b&gt;IDbDal&amp;lt;T&amp;gt;&lt;/b&gt;&lt;/p&gt;&lt;hr size=&quot;1&quot;&gt;&lt;p style=&quot;margin:0px;margin-left:4px;&quot;&gt;+ Get(object?[]?) : T&lt;/p&gt;&lt;p style=&quot;margin:0px;margin-left:4px;&quot;&gt;+ GetAll() :&amp;nbsp;IEnumerable&amp;lt;T&amp;gt;&lt;/p&gt;&lt;p style=&quot;margin:0px;margin-left:4px;&quot;&gt;+ Add(T) : bool&lt;/p&gt;&lt;p style=&quot;margin:0px;margin-left:4px;&quot;&gt;+ Update(T) : bool&lt;/p&gt;&lt;p style=&quot;margin:0px;margin-left:4px;&quot;&gt;+ Delete(T) : bool&lt;/p&gt;&lt;p style=&quot;margin:0px;margin-left:4px;&quot;&gt;+ SetUser(string) : void&lt;/p&gt;&lt;p style=&quot;margin:0px;margin-left:4px;&quot;&gt;+ SetSourceId(int) : void&lt;/p&gt;" style="verticalAlign=top;align=left;overflow=fill;fontSize=12;fontFamily=Helvetica;html=1;whiteSpace=wrap;" parent="WIyWlLk6GJQsqaUBKTNV-1" vertex="1">
          <mxGeometry x="-381" y="1747" width="190" height="150" as="geometry" />
        </mxCell>
        <mxCell id="agEdRXNcoSYmF9dQdAtc-61" value="SourceDal" style="swimlane;fontStyle=1;align=center;verticalAlign=top;childLayout=stackLayout;horizontal=1;startSize=26;horizontalStack=0;resizeParent=1;resizeParentMax=0;resizeLast=0;collapsible=1;marginBottom=0;whiteSpace=wrap;html=1;" parent="WIyWlLk6GJQsqaUBKTNV-1" vertex="1">
          <mxGeometry x="-386" y="1417" width="200" height="242" as="geometry" />
        </mxCell>
        <mxCell id="agEdRXNcoSYmF9dQdAtc-62" value="- context:&amp;nbsp;DocunotesDbContext" style="text;strokeColor=none;fillColor=none;align=left;verticalAlign=top;spacingLeft=4;spacingRight=4;overflow=hidden;rotatable=0;points=[[0,0.5],[1,0.5]];portConstraint=eastwest;whiteSpace=wrap;html=1;" parent="agEdRXNcoSYmF9dQdAtc-61" vertex="1">
          <mxGeometry y="26" width="200" height="26" as="geometry" />
        </mxCell>
        <mxCell id="agEdRXNcoSYmF9dQdAtc-63" value="" style="line;strokeWidth=1;fillColor=none;align=left;verticalAlign=middle;spacingTop=-1;spacingLeft=3;spacingRight=3;rotatable=0;labelPosition=right;points=[];portConstraint=eastwest;strokeColor=inherit;" parent="agEdRXNcoSYmF9dQdAtc-61" vertex="1">
          <mxGeometry y="52" width="200" height="8" as="geometry" />
        </mxCell>
        <mxCell id="agEdRXNcoSYmF9dQdAtc-64" value="&lt;p style=&quot;border-color: var(--border-color); margin: 0px 0px 0px 4px;&quot;&gt;&lt;span style=&quot;background-color: initial;&quot;&gt;+ Get(object?[]?) : Source&lt;/span&gt;&lt;br&gt;&lt;/p&gt;" style="text;strokeColor=none;fillColor=none;align=left;verticalAlign=top;spacingLeft=4;spacingRight=4;overflow=hidden;rotatable=0;points=[[0,0.5],[1,0.5]];portConstraint=eastwest;whiteSpace=wrap;html=1;" parent="agEdRXNcoSYmF9dQdAtc-61" vertex="1">
          <mxGeometry y="60" width="200" height="26" as="geometry" />
        </mxCell>
        <mxCell id="agEdRXNcoSYmF9dQdAtc-66" value="&lt;p style=&quot;border-color: var(--border-color); margin: 0px 0px 0px 4px;&quot;&gt;+ GetAll() :&amp;nbsp;IEnumerable&amp;lt;Source&amp;gt;&lt;/p&gt;" style="text;strokeColor=none;fillColor=none;align=left;verticalAlign=top;spacingLeft=4;spacingRight=4;overflow=hidden;rotatable=0;points=[[0,0.5],[1,0.5]];portConstraint=eastwest;whiteSpace=wrap;html=1;" parent="agEdRXNcoSYmF9dQdAtc-61" vertex="1">
          <mxGeometry y="86" width="200" height="26" as="geometry" />
        </mxCell>
        <mxCell id="agEdRXNcoSYmF9dQdAtc-67" value="&lt;p style=&quot;border-color: var(--border-color); margin: 0px 0px 0px 4px;&quot;&gt;+ Add(Source) : bool&lt;/p&gt;" style="text;strokeColor=none;fillColor=none;align=left;verticalAlign=top;spacingLeft=4;spacingRight=4;overflow=hidden;rotatable=0;points=[[0,0.5],[1,0.5]];portConstraint=eastwest;whiteSpace=wrap;html=1;" parent="agEdRXNcoSYmF9dQdAtc-61" vertex="1">
          <mxGeometry y="112" width="200" height="26" as="geometry" />
        </mxCell>
        <mxCell id="agEdRXNcoSYmF9dQdAtc-68" value="&lt;p style=&quot;border-color: var(--border-color); margin: 0px 0px 0px 4px;&quot;&gt;+ Update(Source) : bool&lt;/p&gt;" style="text;strokeColor=none;fillColor=none;align=left;verticalAlign=top;spacingLeft=4;spacingRight=4;overflow=hidden;rotatable=0;points=[[0,0.5],[1,0.5]];portConstraint=eastwest;whiteSpace=wrap;html=1;" parent="agEdRXNcoSYmF9dQdAtc-61" vertex="1">
          <mxGeometry y="138" width="200" height="26" as="geometry" />
        </mxCell>
        <mxCell id="agEdRXNcoSYmF9dQdAtc-69" value="&lt;p style=&quot;border-color: var(--border-color); margin: 0px 0px 0px 4px;&quot;&gt;+ Delete(Source) : bool&lt;/p&gt;" style="text;strokeColor=none;fillColor=none;align=left;verticalAlign=top;spacingLeft=4;spacingRight=4;overflow=hidden;rotatable=0;points=[[0,0.5],[1,0.5]];portConstraint=eastwest;whiteSpace=wrap;html=1;" parent="agEdRXNcoSYmF9dQdAtc-61" vertex="1">
          <mxGeometry y="164" width="200" height="26" as="geometry" />
        </mxCell>
        <mxCell id="agEdRXNcoSYmF9dQdAtc-70" value="&lt;p style=&quot;border-color: var(--border-color); margin: 0px 0px 0px 4px;&quot;&gt;+ SetUser(string) : void&lt;/p&gt;" style="text;strokeColor=none;fillColor=none;align=left;verticalAlign=top;spacingLeft=4;spacingRight=4;overflow=hidden;rotatable=0;points=[[0,0.5],[1,0.5]];portConstraint=eastwest;whiteSpace=wrap;html=1;" parent="agEdRXNcoSYmF9dQdAtc-61" vertex="1">
          <mxGeometry y="190" width="200" height="26" as="geometry" />
        </mxCell>
        <mxCell id="agEdRXNcoSYmF9dQdAtc-71" value="+ SetSourceId(int) : void" style="text;strokeColor=none;fillColor=none;align=left;verticalAlign=top;spacingLeft=4;spacingRight=4;overflow=hidden;rotatable=0;points=[[0,0.5],[1,0.5]];portConstraint=eastwest;whiteSpace=wrap;html=1;" parent="agEdRXNcoSYmF9dQdAtc-61" vertex="1">
          <mxGeometry y="216" width="200" height="26" as="geometry" />
        </mxCell>
        <mxCell id="agEdRXNcoSYmF9dQdAtc-65" value="" style="endArrow=block;dashed=1;endFill=0;endSize=12;html=1;rounded=0;edgeStyle=elbowEdgeStyle;" parent="WIyWlLk6GJQsqaUBKTNV-1" source="agEdRXNcoSYmF9dQdAtc-61" target="agEdRXNcoSYmF9dQdAtc-52" edge="1">
          <mxGeometry width="160" relative="1" as="geometry">
            <mxPoint x="-283" y="1650" as="sourcePoint" />
            <mxPoint x="-123" y="1650" as="targetPoint" />
          </mxGeometry>
        </mxCell>
        <mxCell id="agEdRXNcoSYmF9dQdAtc-72" value="NotesDal" style="swimlane;fontStyle=1;align=center;verticalAlign=top;childLayout=stackLayout;horizontal=1;startSize=26;horizontalStack=0;resizeParent=1;resizeParentMax=0;resizeLast=0;collapsible=1;marginBottom=0;whiteSpace=wrap;html=1;" parent="WIyWlLk6GJQsqaUBKTNV-1" vertex="1">
          <mxGeometry x="-98" y="1417" width="200" height="242" as="geometry" />
        </mxCell>
        <mxCell id="agEdRXNcoSYmF9dQdAtc-73" value="- context:&amp;nbsp;DocunotesDbContext" style="text;strokeColor=none;fillColor=none;align=left;verticalAlign=top;spacingLeft=4;spacingRight=4;overflow=hidden;rotatable=0;points=[[0,0.5],[1,0.5]];portConstraint=eastwest;whiteSpace=wrap;html=1;" parent="agEdRXNcoSYmF9dQdAtc-72" vertex="1">
          <mxGeometry y="26" width="200" height="26" as="geometry" />
        </mxCell>
        <mxCell id="agEdRXNcoSYmF9dQdAtc-74" value="" style="line;strokeWidth=1;fillColor=none;align=left;verticalAlign=middle;spacingTop=-1;spacingLeft=3;spacingRight=3;rotatable=0;labelPosition=right;points=[];portConstraint=eastwest;strokeColor=inherit;" parent="agEdRXNcoSYmF9dQdAtc-72" vertex="1">
          <mxGeometry y="52" width="200" height="8" as="geometry" />
        </mxCell>
        <mxCell id="agEdRXNcoSYmF9dQdAtc-75" value="&lt;p style=&quot;border-color: var(--border-color); margin: 0px 0px 0px 4px;&quot;&gt;&lt;span style=&quot;background-color: initial;&quot;&gt;+ Get(object?[]?) : Note&lt;/span&gt;&lt;br&gt;&lt;/p&gt;" style="text;strokeColor=none;fillColor=none;align=left;verticalAlign=top;spacingLeft=4;spacingRight=4;overflow=hidden;rotatable=0;points=[[0,0.5],[1,0.5]];portConstraint=eastwest;whiteSpace=wrap;html=1;" parent="agEdRXNcoSYmF9dQdAtc-72" vertex="1">
          <mxGeometry y="60" width="200" height="26" as="geometry" />
        </mxCell>
        <mxCell id="agEdRXNcoSYmF9dQdAtc-76" value="&lt;p style=&quot;border-color: var(--border-color); margin: 0px 0px 0px 4px;&quot;&gt;+ GetAll() :&amp;nbsp;IEnumerable&amp;lt;Note&amp;gt;&lt;/p&gt;" style="text;strokeColor=none;fillColor=none;align=left;verticalAlign=top;spacingLeft=4;spacingRight=4;overflow=hidden;rotatable=0;points=[[0,0.5],[1,0.5]];portConstraint=eastwest;whiteSpace=wrap;html=1;" parent="agEdRXNcoSYmF9dQdAtc-72" vertex="1">
          <mxGeometry y="86" width="200" height="26" as="geometry" />
        </mxCell>
        <mxCell id="agEdRXNcoSYmF9dQdAtc-77" value="&lt;p style=&quot;border-color: var(--border-color); margin: 0px 0px 0px 4px;&quot;&gt;+ Add(Note) : bool&lt;/p&gt;" style="text;strokeColor=none;fillColor=none;align=left;verticalAlign=top;spacingLeft=4;spacingRight=4;overflow=hidden;rotatable=0;points=[[0,0.5],[1,0.5]];portConstraint=eastwest;whiteSpace=wrap;html=1;" parent="agEdRXNcoSYmF9dQdAtc-72" vertex="1">
          <mxGeometry y="112" width="200" height="26" as="geometry" />
        </mxCell>
        <mxCell id="agEdRXNcoSYmF9dQdAtc-78" value="&lt;p style=&quot;border-color: var(--border-color); margin: 0px 0px 0px 4px;&quot;&gt;+ Update(Note) : bool&lt;/p&gt;" style="text;strokeColor=none;fillColor=none;align=left;verticalAlign=top;spacingLeft=4;spacingRight=4;overflow=hidden;rotatable=0;points=[[0,0.5],[1,0.5]];portConstraint=eastwest;whiteSpace=wrap;html=1;" parent="agEdRXNcoSYmF9dQdAtc-72" vertex="1">
          <mxGeometry y="138" width="200" height="26" as="geometry" />
        </mxCell>
        <mxCell id="agEdRXNcoSYmF9dQdAtc-79" value="&lt;p style=&quot;border-color: var(--border-color); margin: 0px 0px 0px 4px;&quot;&gt;+ Delete(Note) : bool&lt;/p&gt;" style="text;strokeColor=none;fillColor=none;align=left;verticalAlign=top;spacingLeft=4;spacingRight=4;overflow=hidden;rotatable=0;points=[[0,0.5],[1,0.5]];portConstraint=eastwest;whiteSpace=wrap;html=1;" parent="agEdRXNcoSYmF9dQdAtc-72" vertex="1">
          <mxGeometry y="164" width="200" height="26" as="geometry" />
        </mxCell>
        <mxCell id="agEdRXNcoSYmF9dQdAtc-80" value="&lt;p style=&quot;border-color: var(--border-color); margin: 0px 0px 0px 4px;&quot;&gt;+ SetUser(string) : void&lt;/p&gt;" style="text;strokeColor=none;fillColor=none;align=left;verticalAlign=top;spacingLeft=4;spacingRight=4;overflow=hidden;rotatable=0;points=[[0,0.5],[1,0.5]];portConstraint=eastwest;whiteSpace=wrap;html=1;" parent="agEdRXNcoSYmF9dQdAtc-72" vertex="1">
          <mxGeometry y="190" width="200" height="26" as="geometry" />
        </mxCell>
        <mxCell id="agEdRXNcoSYmF9dQdAtc-81" value="+ SetSourceId(int) : void" style="text;strokeColor=none;fillColor=none;align=left;verticalAlign=top;spacingLeft=4;spacingRight=4;overflow=hidden;rotatable=0;points=[[0,0.5],[1,0.5]];portConstraint=eastwest;whiteSpace=wrap;html=1;" parent="agEdRXNcoSYmF9dQdAtc-72" vertex="1">
          <mxGeometry y="216" width="200" height="26" as="geometry" />
        </mxCell>
        <mxCell id="agEdRXNcoSYmF9dQdAtc-82" value="UserDal" style="swimlane;fontStyle=1;align=center;verticalAlign=top;childLayout=stackLayout;horizontal=1;startSize=26;horizontalStack=0;resizeParent=1;resizeParentMax=0;resizeLast=0;collapsible=1;marginBottom=0;whiteSpace=wrap;html=1;" parent="WIyWlLk6GJQsqaUBKTNV-1" vertex="1">
          <mxGeometry x="197" y="1417" width="200" height="242" as="geometry" />
        </mxCell>
        <mxCell id="agEdRXNcoSYmF9dQdAtc-83" value="- context:&amp;nbsp;DocunotesDbContext" style="text;strokeColor=none;fillColor=none;align=left;verticalAlign=top;spacingLeft=4;spacingRight=4;overflow=hidden;rotatable=0;points=[[0,0.5],[1,0.5]];portConstraint=eastwest;whiteSpace=wrap;html=1;" parent="agEdRXNcoSYmF9dQdAtc-82" vertex="1">
          <mxGeometry y="26" width="200" height="26" as="geometry" />
        </mxCell>
        <mxCell id="agEdRXNcoSYmF9dQdAtc-84" value="" style="line;strokeWidth=1;fillColor=none;align=left;verticalAlign=middle;spacingTop=-1;spacingLeft=3;spacingRight=3;rotatable=0;labelPosition=right;points=[];portConstraint=eastwest;strokeColor=inherit;" parent="agEdRXNcoSYmF9dQdAtc-82" vertex="1">
          <mxGeometry y="52" width="200" height="8" as="geometry" />
        </mxCell>
        <mxCell id="agEdRXNcoSYmF9dQdAtc-85" value="&lt;p style=&quot;border-color: var(--border-color); margin: 0px 0px 0px 4px;&quot;&gt;&lt;span style=&quot;background-color: initial;&quot;&gt;+ Get(object?[]?) : User&lt;/span&gt;&lt;br&gt;&lt;/p&gt;" style="text;strokeColor=none;fillColor=none;align=left;verticalAlign=top;spacingLeft=4;spacingRight=4;overflow=hidden;rotatable=0;points=[[0,0.5],[1,0.5]];portConstraint=eastwest;whiteSpace=wrap;html=1;" parent="agEdRXNcoSYmF9dQdAtc-82" vertex="1">
          <mxGeometry y="60" width="200" height="26" as="geometry" />
        </mxCell>
        <mxCell id="agEdRXNcoSYmF9dQdAtc-86" value="&lt;p style=&quot;border-color: var(--border-color); margin: 0px 0px 0px 4px;&quot;&gt;+ GetAll() :&amp;nbsp;IEnumerable&amp;lt;User&amp;gt;&lt;/p&gt;" style="text;strokeColor=none;fillColor=none;align=left;verticalAlign=top;spacingLeft=4;spacingRight=4;overflow=hidden;rotatable=0;points=[[0,0.5],[1,0.5]];portConstraint=eastwest;whiteSpace=wrap;html=1;" parent="agEdRXNcoSYmF9dQdAtc-82" vertex="1">
          <mxGeometry y="86" width="200" height="26" as="geometry" />
        </mxCell>
        <mxCell id="agEdRXNcoSYmF9dQdAtc-87" value="&lt;p style=&quot;border-color: var(--border-color); margin: 0px 0px 0px 4px;&quot;&gt;+ Add(User) : bool&lt;/p&gt;" style="text;strokeColor=none;fillColor=none;align=left;verticalAlign=top;spacingLeft=4;spacingRight=4;overflow=hidden;rotatable=0;points=[[0,0.5],[1,0.5]];portConstraint=eastwest;whiteSpace=wrap;html=1;" parent="agEdRXNcoSYmF9dQdAtc-82" vertex="1">
          <mxGeometry y="112" width="200" height="26" as="geometry" />
        </mxCell>
        <mxCell id="agEdRXNcoSYmF9dQdAtc-88" value="&lt;p style=&quot;border-color: var(--border-color); margin: 0px 0px 0px 4px;&quot;&gt;+ Update(User) : bool&lt;/p&gt;" style="text;strokeColor=none;fillColor=none;align=left;verticalAlign=top;spacingLeft=4;spacingRight=4;overflow=hidden;rotatable=0;points=[[0,0.5],[1,0.5]];portConstraint=eastwest;whiteSpace=wrap;html=1;" parent="agEdRXNcoSYmF9dQdAtc-82" vertex="1">
          <mxGeometry y="138" width="200" height="26" as="geometry" />
        </mxCell>
        <mxCell id="agEdRXNcoSYmF9dQdAtc-89" value="&lt;p style=&quot;border-color: var(--border-color); margin: 0px 0px 0px 4px;&quot;&gt;+ Delete(User) : bool&lt;/p&gt;" style="text;strokeColor=none;fillColor=none;align=left;verticalAlign=top;spacingLeft=4;spacingRight=4;overflow=hidden;rotatable=0;points=[[0,0.5],[1,0.5]];portConstraint=eastwest;whiteSpace=wrap;html=1;" parent="agEdRXNcoSYmF9dQdAtc-82" vertex="1">
          <mxGeometry y="164" width="200" height="26" as="geometry" />
        </mxCell>
        <mxCell id="agEdRXNcoSYmF9dQdAtc-90" value="&lt;p style=&quot;border-color: var(--border-color); margin: 0px 0px 0px 4px;&quot;&gt;+ SetUser(string) : void&lt;/p&gt;" style="text;strokeColor=none;fillColor=none;align=left;verticalAlign=top;spacingLeft=4;spacingRight=4;overflow=hidden;rotatable=0;points=[[0,0.5],[1,0.5]];portConstraint=eastwest;whiteSpace=wrap;html=1;" parent="agEdRXNcoSYmF9dQdAtc-82" vertex="1">
          <mxGeometry y="190" width="200" height="26" as="geometry" />
        </mxCell>
        <mxCell id="agEdRXNcoSYmF9dQdAtc-91" value="+ SetSourceId(int) : void" style="text;strokeColor=none;fillColor=none;align=left;verticalAlign=top;spacingLeft=4;spacingRight=4;overflow=hidden;rotatable=0;points=[[0,0.5],[1,0.5]];portConstraint=eastwest;whiteSpace=wrap;html=1;" parent="agEdRXNcoSYmF9dQdAtc-82" vertex="1">
          <mxGeometry y="216" width="200" height="26" as="geometry" />
        </mxCell>
        <mxCell id="agEdRXNcoSYmF9dQdAtc-92" value="" style="endArrow=block;dashed=1;endFill=0;endSize=12;html=1;rounded=0;edgeStyle=elbowEdgeStyle;" parent="WIyWlLk6GJQsqaUBKTNV-1" source="agEdRXNcoSYmF9dQdAtc-82" target="agEdRXNcoSYmF9dQdAtc-52" edge="1">
          <mxGeometry width="160" relative="1" as="geometry">
            <mxPoint x="-253" y="1571" as="sourcePoint" />
            <mxPoint x="-83" y="1775" as="targetPoint" />
            <Array as="points">
              <mxPoint x="147" y="1630" />
              <mxPoint x="107" y="1790" />
            </Array>
          </mxGeometry>
        </mxCell>
        <mxCell id="agEdRXNcoSYmF9dQdAtc-93" value="" style="endArrow=block;dashed=1;endFill=0;endSize=12;html=1;rounded=0;edgeStyle=elbowEdgeStyle;" parent="WIyWlLk6GJQsqaUBKTNV-1" source="agEdRXNcoSYmF9dQdAtc-72" target="agEdRXNcoSYmF9dQdAtc-52" edge="1">
          <mxGeometry width="160" relative="1" as="geometry">
            <mxPoint x="-243" y="1581" as="sourcePoint" />
            <mxPoint x="-73" y="1785" as="targetPoint" />
          </mxGeometry>
        </mxCell>
        <mxCell id="agEdRXNcoSYmF9dQdAtc-94" value="DocunotesDbContext" style="swimlane;fontStyle=1;align=center;verticalAlign=top;childLayout=stackLayout;horizontal=1;startSize=26;horizontalStack=0;resizeParent=1;resizeParentMax=0;resizeLast=0;collapsible=1;marginBottom=0;whiteSpace=wrap;html=1;" parent="WIyWlLk6GJQsqaUBKTNV-1" vertex="1">
          <mxGeometry x="177" y="1737" width="240" height="164" as="geometry" />
        </mxCell>
        <mxCell id="agEdRXNcoSYmF9dQdAtc-95" value="+ CurrentUser: User?" style="text;strokeColor=none;fillColor=none;align=left;verticalAlign=top;spacingLeft=4;spacingRight=4;overflow=hidden;rotatable=0;points=[[0,0.5],[1,0.5]];portConstraint=eastwest;whiteSpace=wrap;html=1;" parent="agEdRXNcoSYmF9dQdAtc-94" vertex="1">
          <mxGeometry y="26" width="240" height="26" as="geometry" />
        </mxCell>
        <mxCell id="agEdRXNcoSYmF9dQdAtc-100" value="+ Notes:&amp;nbsp;DbSet&amp;lt;Note&amp;gt;" style="text;strokeColor=none;fillColor=none;align=left;verticalAlign=top;spacingLeft=4;spacingRight=4;overflow=hidden;rotatable=0;points=[[0,0.5],[1,0.5]];portConstraint=eastwest;whiteSpace=wrap;html=1;" parent="agEdRXNcoSYmF9dQdAtc-94" vertex="1">
          <mxGeometry y="52" width="240" height="26" as="geometry" />
        </mxCell>
        <mxCell id="agEdRXNcoSYmF9dQdAtc-102" value="+ Sources:&amp;nbsp;DbSet&amp;lt;Source&amp;gt;" style="text;strokeColor=none;fillColor=none;align=left;verticalAlign=top;spacingLeft=4;spacingRight=4;overflow=hidden;rotatable=0;points=[[0,0.5],[1,0.5]];portConstraint=eastwest;whiteSpace=wrap;html=1;" parent="agEdRXNcoSYmF9dQdAtc-94" vertex="1">
          <mxGeometry y="78" width="240" height="26" as="geometry" />
        </mxCell>
        <mxCell id="agEdRXNcoSYmF9dQdAtc-101" value="+ Users:&amp;nbsp;DbSet&amp;lt;User&amp;gt;" style="text;strokeColor=none;fillColor=none;align=left;verticalAlign=top;spacingLeft=4;spacingRight=4;overflow=hidden;rotatable=0;points=[[0,0.5],[1,0.5]];portConstraint=eastwest;whiteSpace=wrap;html=1;" parent="agEdRXNcoSYmF9dQdAtc-94" vertex="1">
          <mxGeometry y="104" width="240" height="26" as="geometry" />
        </mxCell>
        <mxCell id="agEdRXNcoSYmF9dQdAtc-96" value="" style="line;strokeWidth=1;fillColor=none;align=left;verticalAlign=middle;spacingTop=-1;spacingLeft=3;spacingRight=3;rotatable=0;labelPosition=right;points=[];portConstraint=eastwest;strokeColor=inherit;" parent="agEdRXNcoSYmF9dQdAtc-94" vertex="1">
          <mxGeometry y="130" width="240" height="8" as="geometry" />
        </mxCell>
        <mxCell id="agEdRXNcoSYmF9dQdAtc-97" value="+ OnModelCreating(ModelBuilder): void" style="text;strokeColor=none;fillColor=none;align=left;verticalAlign=top;spacingLeft=4;spacingRight=4;overflow=hidden;rotatable=0;points=[[0,0.5],[1,0.5]];portConstraint=eastwest;whiteSpace=wrap;html=1;" parent="agEdRXNcoSYmF9dQdAtc-94" vertex="1">
          <mxGeometry y="138" width="240" height="26" as="geometry" />
        </mxCell>
        <mxCell id="agEdRXNcoSYmF9dQdAtc-98" value="DbContext" style="html=1;whiteSpace=wrap;" parent="WIyWlLk6GJQsqaUBKTNV-1" vertex="1">
          <mxGeometry x="480" y="1737" width="110" height="50" as="geometry" />
        </mxCell>
        <mxCell id="agEdRXNcoSYmF9dQdAtc-99" value="Extends" style="endArrow=block;endSize=16;endFill=0;html=1;rounded=0;edgeStyle=orthogonalEdgeStyle;jumpStyle=arc;jumpSize=12;" parent="WIyWlLk6GJQsqaUBKTNV-1" source="agEdRXNcoSYmF9dQdAtc-94" target="agEdRXNcoSYmF9dQdAtc-98" edge="1">
          <mxGeometry x="0.1549" width="160" relative="1" as="geometry">
            <mxPoint x="37" y="1900" as="sourcePoint" />
            <mxPoint x="197" y="1900" as="targetPoint" />
            <Array as="points">
              <mxPoint x="470" y="1830" />
              <mxPoint x="470" y="1830" />
            </Array>
            <mxPoint as="offset" />
          </mxGeometry>
        </mxCell>
        <mxCell id="agEdRXNcoSYmF9dQdAtc-104" value="1" style="endArrow=open;html=1;endSize=12;startArrow=diamondThin;startSize=14;startFill=1;edgeStyle=orthogonalEdgeStyle;align=left;verticalAlign=bottom;rounded=0;jumpStyle=arc;jumpSize=12;" parent="WIyWlLk6GJQsqaUBKTNV-1" source="agEdRXNcoSYmF9dQdAtc-71" target="agEdRXNcoSYmF9dQdAtc-94" edge="1">
          <mxGeometry x="-0.9331" y="3" relative="1" as="geometry">
            <mxPoint x="-23" y="1880" as="sourcePoint" />
            <mxPoint x="137" y="1880" as="targetPoint" />
            <Array as="points">
              <mxPoint x="-253" y="1700" />
              <mxPoint x="297" y="1700" />
            </Array>
            <mxPoint as="offset" />
          </mxGeometry>
        </mxCell>
        <mxCell id="agEdRXNcoSYmF9dQdAtc-105" value="1" style="endArrow=open;html=1;endSize=12;startArrow=diamondThin;startSize=14;startFill=1;edgeStyle=orthogonalEdgeStyle;align=left;verticalAlign=bottom;rounded=0;jumpStyle=arc;jumpSize=12;" parent="WIyWlLk6GJQsqaUBKTNV-1" source="agEdRXNcoSYmF9dQdAtc-72" target="agEdRXNcoSYmF9dQdAtc-94" edge="1">
          <mxGeometry x="-0.8338" y="8" relative="1" as="geometry">
            <mxPoint x="-176" y="1619" as="sourcePoint" />
            <mxPoint x="307" y="1710" as="targetPoint" />
            <Array as="points">
              <mxPoint x="2" y="1700" />
              <mxPoint x="297" y="1700" />
            </Array>
            <mxPoint as="offset" />
          </mxGeometry>
        </mxCell>
        <mxCell id="agEdRXNcoSYmF9dQdAtc-106" value="1" style="endArrow=open;html=1;endSize=12;startArrow=diamondThin;startSize=14;startFill=1;edgeStyle=orthogonalEdgeStyle;align=left;verticalAlign=bottom;rounded=0;" parent="WIyWlLk6GJQsqaUBKTNV-1" source="agEdRXNcoSYmF9dQdAtc-82" target="agEdRXNcoSYmF9dQdAtc-94" edge="1">
          <mxGeometry x="-0.4615" y="13" relative="1" as="geometry">
            <mxPoint x="-166" y="1629" as="sourcePoint" />
            <mxPoint x="317" y="1720" as="targetPoint" />
            <mxPoint as="offset" />
          </mxGeometry>
        </mxCell>
        <mxCell id="7rd6Hwtv7v1fEGL6sJqx-0" value="UserController" style="swimlane;fontStyle=1;align=center;verticalAlign=top;childLayout=stackLayout;horizontal=1;startSize=26;horizontalStack=0;resizeParent=1;resizeParentMax=0;resizeLast=0;collapsible=1;marginBottom=0;whiteSpace=wrap;html=1;" parent="WIyWlLk6GJQsqaUBKTNV-1" vertex="1">
          <mxGeometry x="197" y="2030" width="200" height="112" as="geometry" />
        </mxCell>
        <mxCell id="7rd6Hwtv7v1fEGL6sJqx-1" value="- context: IDbDal&amp;lt;User&amp;gt;" style="text;strokeColor=none;fillColor=none;align=left;verticalAlign=top;spacingLeft=4;spacingRight=4;overflow=hidden;rotatable=0;points=[[0,0.5],[1,0.5]];portConstraint=eastwest;whiteSpace=wrap;html=1;" parent="7rd6Hwtv7v1fEGL6sJqx-0" vertex="1">
          <mxGeometry y="26" width="200" height="26" as="geometry" />
        </mxCell>
        <mxCell id="7rd6Hwtv7v1fEGL6sJqx-2" value="" style="line;strokeWidth=1;fillColor=none;align=left;verticalAlign=middle;spacingTop=-1;spacingLeft=3;spacingRight=3;rotatable=0;labelPosition=right;points=[];portConstraint=eastwest;strokeColor=inherit;" parent="7rd6Hwtv7v1fEGL6sJqx-0" vertex="1">
          <mxGeometry y="52" width="200" height="8" as="geometry" />
        </mxCell>
        <mxCell id="7rd6Hwtv7v1fEGL6sJqx-3" value="+ Login(User) : IActionResult" style="text;strokeColor=none;fillColor=none;align=left;verticalAlign=top;spacingLeft=4;spacingRight=4;overflow=hidden;rotatable=0;points=[[0,0.5],[1,0.5]];portConstraint=eastwest;whiteSpace=wrap;html=1;" parent="7rd6Hwtv7v1fEGL6sJqx-0" vertex="1">
          <mxGeometry y="60" width="200" height="26" as="geometry" />
        </mxCell>
        <mxCell id="7rd6Hwtv7v1fEGL6sJqx-5" value="+ AddUser(User) : IActionResult" style="text;strokeColor=none;fillColor=none;align=left;verticalAlign=top;spacingLeft=4;spacingRight=4;overflow=hidden;rotatable=0;points=[[0,0.5],[1,0.5]];portConstraint=eastwest;whiteSpace=wrap;html=1;" parent="7rd6Hwtv7v1fEGL6sJqx-0" vertex="1">
          <mxGeometry y="86" width="200" height="26" as="geometry" />
        </mxCell>
        <mxCell id="7rd6Hwtv7v1fEGL6sJqx-4" value="ControllerBase" style="html=1;whiteSpace=wrap;" parent="WIyWlLk6GJQsqaUBKTNV-1" vertex="1">
          <mxGeometry x="-33" y="2270" width="110" height="50" as="geometry" />
        </mxCell>
        <mxCell id="7rd6Hwtv7v1fEGL6sJqx-6" value="NotesController" style="swimlane;fontStyle=1;align=center;verticalAlign=top;childLayout=stackLayout;horizontal=1;startSize=26;horizontalStack=0;resizeParent=1;resizeParentMax=0;resizeLast=0;collapsible=1;marginBottom=0;whiteSpace=wrap;html=1;" parent="WIyWlLk6GJQsqaUBKTNV-1" vertex="1">
          <mxGeometry x="-93" y="2030" width="230" height="164" as="geometry" />
        </mxCell>
        <mxCell id="7rd6Hwtv7v1fEGL6sJqx-7" value="- context: IDbDal&amp;lt;Note&amp;gt;" style="text;strokeColor=none;fillColor=none;align=left;verticalAlign=top;spacingLeft=4;spacingRight=4;overflow=hidden;rotatable=0;points=[[0,0.5],[1,0.5]];portConstraint=eastwest;whiteSpace=wrap;html=1;" parent="7rd6Hwtv7v1fEGL6sJqx-6" vertex="1">
          <mxGeometry y="26" width="230" height="26" as="geometry" />
        </mxCell>
        <mxCell id="7rd6Hwtv7v1fEGL6sJqx-8" value="" style="line;strokeWidth=1;fillColor=none;align=left;verticalAlign=middle;spacingTop=-1;spacingLeft=3;spacingRight=3;rotatable=0;labelPosition=right;points=[];portConstraint=eastwest;strokeColor=inherit;" parent="7rd6Hwtv7v1fEGL6sJqx-6" vertex="1">
          <mxGeometry y="52" width="230" height="8" as="geometry" />
        </mxCell>
        <mxCell id="7rd6Hwtv7v1fEGL6sJqx-9" value="+ GetAll(int, string) : IActionResult" style="text;strokeColor=none;fillColor=none;align=left;verticalAlign=top;spacingLeft=4;spacingRight=4;overflow=hidden;rotatable=0;points=[[0,0.5],[1,0.5]];portConstraint=eastwest;whiteSpace=wrap;html=1;" parent="7rd6Hwtv7v1fEGL6sJqx-6" vertex="1">
          <mxGeometry y="60" width="230" height="26" as="geometry" />
        </mxCell>
        <mxCell id="7rd6Hwtv7v1fEGL6sJqx-11" value="+ Create(string, Note) : IActionResult" style="text;strokeColor=none;fillColor=none;align=left;verticalAlign=top;spacingLeft=4;spacingRight=4;overflow=hidden;rotatable=0;points=[[0,0.5],[1,0.5]];portConstraint=eastwest;whiteSpace=wrap;html=1;" parent="7rd6Hwtv7v1fEGL6sJqx-6" vertex="1">
          <mxGeometry y="86" width="230" height="26" as="geometry" />
        </mxCell>
        <mxCell id="7rd6Hwtv7v1fEGL6sJqx-12" value="+ Update(string, Note) : IActionResult" style="text;strokeColor=none;fillColor=none;align=left;verticalAlign=top;spacingLeft=4;spacingRight=4;overflow=hidden;rotatable=0;points=[[0,0.5],[1,0.5]];portConstraint=eastwest;whiteSpace=wrap;html=1;" parent="7rd6Hwtv7v1fEGL6sJqx-6" vertex="1">
          <mxGeometry y="112" width="230" height="26" as="geometry" />
        </mxCell>
        <mxCell id="7rd6Hwtv7v1fEGL6sJqx-13" value="+ Delete(int) : IActionResult" style="text;strokeColor=none;fillColor=none;align=left;verticalAlign=top;spacingLeft=4;spacingRight=4;overflow=hidden;rotatable=0;points=[[0,0.5],[1,0.5]];portConstraint=eastwest;whiteSpace=wrap;html=1;" parent="7rd6Hwtv7v1fEGL6sJqx-6" vertex="1">
          <mxGeometry y="138" width="230" height="26" as="geometry" />
        </mxCell>
        <mxCell id="7rd6Hwtv7v1fEGL6sJqx-14" value="SourceController" style="swimlane;fontStyle=1;align=center;verticalAlign=top;childLayout=stackLayout;horizontal=1;startSize=26;horizontalStack=0;resizeParent=1;resizeParentMax=0;resizeLast=0;collapsible=1;marginBottom=0;whiteSpace=wrap;html=1;" parent="WIyWlLk6GJQsqaUBKTNV-1" vertex="1">
          <mxGeometry x="-350" y="2030" width="230" height="190" as="geometry" />
        </mxCell>
        <mxCell id="7rd6Hwtv7v1fEGL6sJqx-15" value="- context: IDbDal&amp;lt;Source&amp;gt;" style="text;strokeColor=none;fillColor=none;align=left;verticalAlign=top;spacingLeft=4;spacingRight=4;overflow=hidden;rotatable=0;points=[[0,0.5],[1,0.5]];portConstraint=eastwest;whiteSpace=wrap;html=1;" parent="7rd6Hwtv7v1fEGL6sJqx-14" vertex="1">
          <mxGeometry y="26" width="230" height="26" as="geometry" />
        </mxCell>
        <mxCell id="7rd6Hwtv7v1fEGL6sJqx-16" value="" style="line;strokeWidth=1;fillColor=none;align=left;verticalAlign=middle;spacingTop=-1;spacingLeft=3;spacingRight=3;rotatable=0;labelPosition=right;points=[];portConstraint=eastwest;strokeColor=inherit;" parent="7rd6Hwtv7v1fEGL6sJqx-14" vertex="1">
          <mxGeometry y="52" width="230" height="8" as="geometry" />
        </mxCell>
        <mxCell id="7rd6Hwtv7v1fEGL6sJqx-17" value="+ GetAll(string) : IActionResult" style="text;strokeColor=none;fillColor=none;align=left;verticalAlign=top;spacingLeft=4;spacingRight=4;overflow=hidden;rotatable=0;points=[[0,0.5],[1,0.5]];portConstraint=eastwest;whiteSpace=wrap;html=1;" parent="7rd6Hwtv7v1fEGL6sJqx-14" vertex="1">
          <mxGeometry y="60" width="230" height="26" as="geometry" />
        </mxCell>
        <mxCell id="7rd6Hwtv7v1fEGL6sJqx-21" value="+ GetById(int, string) : IActionResult" style="text;strokeColor=none;fillColor=none;align=left;verticalAlign=top;spacingLeft=4;spacingRight=4;overflow=hidden;rotatable=0;points=[[0,0.5],[1,0.5]];portConstraint=eastwest;whiteSpace=wrap;html=1;" parent="7rd6Hwtv7v1fEGL6sJqx-14" vertex="1">
          <mxGeometry y="86" width="230" height="26" as="geometry" />
        </mxCell>
        <mxCell id="7rd6Hwtv7v1fEGL6sJqx-18" value="+ Create(string, Source) : IActionResult" style="text;strokeColor=none;fillColor=none;align=left;verticalAlign=top;spacingLeft=4;spacingRight=4;overflow=hidden;rotatable=0;points=[[0,0.5],[1,0.5]];portConstraint=eastwest;whiteSpace=wrap;html=1;" parent="7rd6Hwtv7v1fEGL6sJqx-14" vertex="1">
          <mxGeometry y="112" width="230" height="26" as="geometry" />
        </mxCell>
        <mxCell id="7rd6Hwtv7v1fEGL6sJqx-19" value="+ Update(string, Source) : IActionResult" style="text;strokeColor=none;fillColor=none;align=left;verticalAlign=top;spacingLeft=4;spacingRight=4;overflow=hidden;rotatable=0;points=[[0,0.5],[1,0.5]];portConstraint=eastwest;whiteSpace=wrap;html=1;" parent="7rd6Hwtv7v1fEGL6sJqx-14" vertex="1">
          <mxGeometry y="138" width="230" height="26" as="geometry" />
        </mxCell>
        <mxCell id="7rd6Hwtv7v1fEGL6sJqx-20" value="+ Delete(int) : IActionResult" style="text;strokeColor=none;fillColor=none;align=left;verticalAlign=top;spacingLeft=4;spacingRight=4;overflow=hidden;rotatable=0;points=[[0,0.5],[1,0.5]];portConstraint=eastwest;whiteSpace=wrap;html=1;" parent="7rd6Hwtv7v1fEGL6sJqx-14" vertex="1">
          <mxGeometry y="164" width="230" height="26" as="geometry" />
        </mxCell>
        <mxCell id="7rd6Hwtv7v1fEGL6sJqx-22" value="Extends" style="endArrow=block;endSize=16;endFill=0;html=1;rounded=0;edgeStyle=orthogonalEdgeStyle;" parent="WIyWlLk6GJQsqaUBKTNV-1" source="7rd6Hwtv7v1fEGL6sJqx-0" target="7rd6Hwtv7v1fEGL6sJqx-4" edge="1">
          <mxGeometry x="-0.4255" y="-3" width="160" relative="1" as="geometry">
            <mxPoint x="-353" y="2240" as="sourcePoint" />
            <mxPoint x="-193" y="2240" as="targetPoint" />
            <Array as="points">
              <mxPoint x="300" y="2295" />
            </Array>
            <mxPoint as="offset" />
          </mxGeometry>
        </mxCell>
        <mxCell id="7rd6Hwtv7v1fEGL6sJqx-23" value="Extends" style="endArrow=block;endSize=16;endFill=0;html=1;rounded=0;edgeStyle=orthogonalEdgeStyle;entryX=0.5;entryY=0;entryDx=0;entryDy=0;" parent="WIyWlLk6GJQsqaUBKTNV-1" source="7rd6Hwtv7v1fEGL6sJqx-6" target="7rd6Hwtv7v1fEGL6sJqx-4" edge="1">
          <mxGeometry x="0.1837" width="160" relative="1" as="geometry">
            <mxPoint x="-233" y="2152" as="sourcePoint" />
            <mxPoint x="-43" y="2305" as="targetPoint" />
            <Array as="points">
              <mxPoint x="22" y="2230" />
              <mxPoint x="22" y="2230" />
            </Array>
            <mxPoint as="offset" />
          </mxGeometry>
        </mxCell>
        <mxCell id="7rd6Hwtv7v1fEGL6sJqx-24" value="Extends" style="endArrow=block;endSize=16;endFill=0;html=1;rounded=0;edgeStyle=orthogonalEdgeStyle;" parent="WIyWlLk6GJQsqaUBKTNV-1" source="7rd6Hwtv7v1fEGL6sJqx-14" target="7rd6Hwtv7v1fEGL6sJqx-4" edge="1">
          <mxGeometry x="0.1837" width="160" relative="1" as="geometry">
            <mxPoint x="12" y="2204" as="sourcePoint" />
            <mxPoint x="12" y="2280" as="targetPoint" />
            <Array as="points">
              <mxPoint x="-240" y="2295" />
            </Array>
            <mxPoint as="offset" />
          </mxGeometry>
        </mxCell>
        <mxCell id="7rd6Hwtv7v1fEGL6sJqx-25" value="1" style="endArrow=open;html=1;endSize=12;startArrow=diamondThin;startSize=14;startFill=1;edgeStyle=orthogonalEdgeStyle;align=left;verticalAlign=bottom;rounded=0;" parent="WIyWlLk6GJQsqaUBKTNV-1" source="7rd6Hwtv7v1fEGL6sJqx-0" target="agEdRXNcoSYmF9dQdAtc-52" edge="1">
          <mxGeometry x="-0.963" relative="1" as="geometry">
            <mxPoint x="-193" y="2000" as="sourcePoint" />
            <mxPoint x="-493" y="2110" as="targetPoint" />
            <Array as="points">
              <mxPoint x="300" y="1940" />
              <mxPoint x="-286" y="1940" />
            </Array>
            <mxPoint as="offset" />
          </mxGeometry>
        </mxCell>
        <mxCell id="7rd6Hwtv7v1fEGL6sJqx-26" value="1" style="endArrow=open;html=1;endSize=12;startArrow=diamondThin;startSize=14;startFill=1;edgeStyle=orthogonalEdgeStyle;align=left;verticalAlign=bottom;rounded=0;" parent="WIyWlLk6GJQsqaUBKTNV-1" source="7rd6Hwtv7v1fEGL6sJqx-6" target="agEdRXNcoSYmF9dQdAtc-52" edge="1">
          <mxGeometry x="-0.9163" relative="1" as="geometry">
            <mxPoint x="-233" y="2040" as="sourcePoint" />
            <mxPoint x="-276" y="1870" as="targetPoint" />
            <Array as="points">
              <mxPoint x="22" y="1940" />
              <mxPoint x="-286" y="1940" />
            </Array>
            <mxPoint as="offset" />
          </mxGeometry>
        </mxCell>
        <mxCell id="7rd6Hwtv7v1fEGL6sJqx-27" value="1" style="endArrow=open;html=1;endSize=12;startArrow=diamondThin;startSize=14;startFill=1;edgeStyle=orthogonalEdgeStyle;align=left;verticalAlign=bottom;rounded=0;" parent="WIyWlLk6GJQsqaUBKTNV-1" source="7rd6Hwtv7v1fEGL6sJqx-14" target="agEdRXNcoSYmF9dQdAtc-52" edge="1">
          <mxGeometry x="-0.7778" relative="1" as="geometry">
            <mxPoint x="32" y="2040" as="sourcePoint" />
            <mxPoint x="-276" y="1870" as="targetPoint" />
            <Array as="points">
              <mxPoint x="-240" y="1940" />
              <mxPoint x="-286" y="1940" />
            </Array>
            <mxPoint as="offset" />
          </mxGeometry>
        </mxCell>
        <mxCell id="7rd6Hwtv7v1fEGL6sJqx-29" value="Use" style="endArrow=open;endSize=12;dashed=1;html=1;rounded=0;edgeStyle=orthogonalEdgeStyle;" parent="WIyWlLk6GJQsqaUBKTNV-1" source="agEdRXNcoSYmF9dQdAtc-61" target="agEdRXNcoSYmF9dQdAtc-5" edge="1">
          <mxGeometry x="-0.3186" width="160" relative="1" as="geometry">
            <mxPoint x="-420" y="1216" as="sourcePoint" />
            <mxPoint x="-390" y="976" as="targetPoint" />
            <Array as="points">
              <mxPoint x="-420" y="1596" />
              <mxPoint x="-420" y="1804" />
            </Array>
            <mxPoint as="offset" />
          </mxGeometry>
        </mxCell>
        <mxCell id="7rd6Hwtv7v1fEGL6sJqx-30" value="Use" style="endArrow=open;endSize=12;dashed=1;html=1;rounded=0;edgeStyle=orthogonalEdgeStyle;" parent="WIyWlLk6GJQsqaUBKTNV-1" source="agEdRXNcoSYmF9dQdAtc-72" target="agEdRXNcoSYmF9dQdAtc-1" edge="1">
          <mxGeometry x="-0.1395" width="160" relative="1" as="geometry">
            <mxPoint x="-305" y="1294" as="sourcePoint" />
            <mxPoint x="-270" y="1130" as="targetPoint" />
            <Array as="points">
              <mxPoint x="30" y="1310" />
            </Array>
            <mxPoint as="offset" />
          </mxGeometry>
        </mxCell>
        <mxCell id="7rd6Hwtv7v1fEGL6sJqx-31" value="Use" style="endArrow=open;endSize=12;dashed=1;html=1;rounded=0;edgeStyle=orthogonalEdgeStyle;" parent="WIyWlLk6GJQsqaUBKTNV-1" source="agEdRXNcoSYmF9dQdAtc-82" target="agEdRXNcoSYmF9dQdAtc-9" edge="1">
          <mxGeometry width="160" relative="1" as="geometry">
            <mxPoint x="-118" y="1390" as="sourcePoint" />
            <mxPoint x="-240" y="1236" as="targetPoint" />
            <Array as="points">
              <mxPoint x="350" y="1360" />
              <mxPoint x="350" y="1360" />
            </Array>
          </mxGeometry>
        </mxCell>
        <mxCell id="7rd6Hwtv7v1fEGL6sJqx-32" value="Use" style="endArrow=open;endSize=12;dashed=1;html=1;rounded=0;edgeStyle=orthogonalEdgeStyle;" parent="WIyWlLk6GJQsqaUBKTNV-1" source="7rd6Hwtv7v1fEGL6sJqx-14" target="agEdRXNcoSYmF9dQdAtc-5" edge="1">
          <mxGeometry width="160" relative="1" as="geometry">
            <mxPoint x="-400" y="2026" as="sourcePoint" />
            <mxPoint x="-490" y="1246" as="targetPoint" />
            <Array as="points">
              <mxPoint x="-420" y="2125" />
              <mxPoint x="-420" y="1804" />
            </Array>
          </mxGeometry>
        </mxCell>
        <mxCell id="7rd6Hwtv7v1fEGL6sJqx-34" value="Use" style="endArrow=open;endSize=12;dashed=1;html=1;rounded=0;edgeStyle=orthogonalEdgeStyle;jumpStyle=arc;jumpSize=12;" parent="WIyWlLk6GJQsqaUBKTNV-1" source="7rd6Hwtv7v1fEGL6sJqx-0" target="agEdRXNcoSYmF9dQdAtc-9" edge="1">
          <mxGeometry x="-0.1253" width="160" relative="1" as="geometry">
            <mxPoint x="-340" y="2135" as="sourcePoint" />
            <mxPoint x="-292" y="954" as="targetPoint" />
            <Array as="points">
              <mxPoint x="360" y="1970" />
              <mxPoint x="450" y="1970" />
              <mxPoint x="450" y="1370" />
              <mxPoint x="380" y="1370" />
            </Array>
            <mxPoint as="offset" />
          </mxGeometry>
        </mxCell>
        <mxCell id="7rd6Hwtv7v1fEGL6sJqx-35" value="Use" style="endArrow=open;endSize=12;dashed=1;html=1;rounded=0;edgeStyle=elbowEdgeStyle;jumpStyle=arc;jumpSize=12;" parent="WIyWlLk6GJQsqaUBKTNV-1" source="7rd6Hwtv7v1fEGL6sJqx-6" target="agEdRXNcoSYmF9dQdAtc-1" edge="1">
          <mxGeometry x="-0.1589" width="160" relative="1" as="geometry">
            <mxPoint x="140" y="1440" as="sourcePoint" />
            <mxPoint x="300" y="1440" as="targetPoint" />
            <mxPoint as="offset" />
            <Array as="points">
              <mxPoint x="120" y="1720" />
            </Array>
          </mxGeometry>
        </mxCell>
        <mxCell id="hKhoxYEIqixDO7NpXUTN-0" value="TagDal" style="swimlane;fontStyle=1;align=center;verticalAlign=top;childLayout=stackLayout;horizontal=1;startSize=26;horizontalStack=0;resizeParent=1;resizeParentMax=0;resizeLast=0;collapsible=1;marginBottom=0;whiteSpace=wrap;html=1;" vertex="1" parent="WIyWlLk6GJQsqaUBKTNV-1">
          <mxGeometry x="510" y="1417" width="200" height="242" as="geometry" />
        </mxCell>
        <mxCell id="hKhoxYEIqixDO7NpXUTN-1" value="- context:&amp;nbsp;DocunotesDbContext" style="text;strokeColor=none;fillColor=none;align=left;verticalAlign=top;spacingLeft=4;spacingRight=4;overflow=hidden;rotatable=0;points=[[0,0.5],[1,0.5]];portConstraint=eastwest;whiteSpace=wrap;html=1;" vertex="1" parent="hKhoxYEIqixDO7NpXUTN-0">
          <mxGeometry y="26" width="200" height="26" as="geometry" />
        </mxCell>
        <mxCell id="hKhoxYEIqixDO7NpXUTN-2" value="" style="line;strokeWidth=1;fillColor=none;align=left;verticalAlign=middle;spacingTop=-1;spacingLeft=3;spacingRight=3;rotatable=0;labelPosition=right;points=[];portConstraint=eastwest;strokeColor=inherit;" vertex="1" parent="hKhoxYEIqixDO7NpXUTN-0">
          <mxGeometry y="52" width="200" height="8" as="geometry" />
        </mxCell>
        <mxCell id="hKhoxYEIqixDO7NpXUTN-3" value="&lt;p style=&quot;border-color: var(--border-color); margin: 0px 0px 0px 4px;&quot;&gt;&lt;span style=&quot;background-color: initial;&quot;&gt;+ Get(object?[]?) : Tag&lt;/span&gt;&lt;br&gt;&lt;/p&gt;" style="text;strokeColor=none;fillColor=none;align=left;verticalAlign=top;spacingLeft=4;spacingRight=4;overflow=hidden;rotatable=0;points=[[0,0.5],[1,0.5]];portConstraint=eastwest;whiteSpace=wrap;html=1;" vertex="1" parent="hKhoxYEIqixDO7NpXUTN-0">
          <mxGeometry y="60" width="200" height="26" as="geometry" />
        </mxCell>
        <mxCell id="hKhoxYEIqixDO7NpXUTN-4" value="&lt;p style=&quot;border-color: var(--border-color); margin: 0px 0px 0px 4px;&quot;&gt;+ GetAll() :&amp;nbsp;IEnumerable&amp;lt;Tag&amp;gt;&lt;/p&gt;" style="text;strokeColor=none;fillColor=none;align=left;verticalAlign=top;spacingLeft=4;spacingRight=4;overflow=hidden;rotatable=0;points=[[0,0.5],[1,0.5]];portConstraint=eastwest;whiteSpace=wrap;html=1;" vertex="1" parent="hKhoxYEIqixDO7NpXUTN-0">
          <mxGeometry y="86" width="200" height="26" as="geometry" />
        </mxCell>
        <mxCell id="hKhoxYEIqixDO7NpXUTN-5" value="&lt;p style=&quot;border-color: var(--border-color); margin: 0px 0px 0px 4px;&quot;&gt;+ Add(Tag) : bool&lt;/p&gt;" style="text;strokeColor=none;fillColor=none;align=left;verticalAlign=top;spacingLeft=4;spacingRight=4;overflow=hidden;rotatable=0;points=[[0,0.5],[1,0.5]];portConstraint=eastwest;whiteSpace=wrap;html=1;" vertex="1" parent="hKhoxYEIqixDO7NpXUTN-0">
          <mxGeometry y="112" width="200" height="26" as="geometry" />
        </mxCell>
        <mxCell id="hKhoxYEIqixDO7NpXUTN-6" value="&lt;p style=&quot;border-color: var(--border-color); margin: 0px 0px 0px 4px;&quot;&gt;+ Update(Tag) : bool&lt;/p&gt;" style="text;strokeColor=none;fillColor=none;align=left;verticalAlign=top;spacingLeft=4;spacingRight=4;overflow=hidden;rotatable=0;points=[[0,0.5],[1,0.5]];portConstraint=eastwest;whiteSpace=wrap;html=1;" vertex="1" parent="hKhoxYEIqixDO7NpXUTN-0">
          <mxGeometry y="138" width="200" height="26" as="geometry" />
        </mxCell>
        <mxCell id="hKhoxYEIqixDO7NpXUTN-7" value="&lt;p style=&quot;border-color: var(--border-color); margin: 0px 0px 0px 4px;&quot;&gt;+ Delete(Tag) : bool&lt;/p&gt;" style="text;strokeColor=none;fillColor=none;align=left;verticalAlign=top;spacingLeft=4;spacingRight=4;overflow=hidden;rotatable=0;points=[[0,0.5],[1,0.5]];portConstraint=eastwest;whiteSpace=wrap;html=1;" vertex="1" parent="hKhoxYEIqixDO7NpXUTN-0">
          <mxGeometry y="164" width="200" height="26" as="geometry" />
        </mxCell>
        <mxCell id="hKhoxYEIqixDO7NpXUTN-8" value="&lt;p style=&quot;border-color: var(--border-color); margin: 0px 0px 0px 4px;&quot;&gt;+ SetUser(string) : void&lt;/p&gt;" style="text;strokeColor=none;fillColor=none;align=left;verticalAlign=top;spacingLeft=4;spacingRight=4;overflow=hidden;rotatable=0;points=[[0,0.5],[1,0.5]];portConstraint=eastwest;whiteSpace=wrap;html=1;" vertex="1" parent="hKhoxYEIqixDO7NpXUTN-0">
          <mxGeometry y="190" width="200" height="26" as="geometry" />
        </mxCell>
        <mxCell id="hKhoxYEIqixDO7NpXUTN-9" value="+ SetSourceId(int) : void" style="text;strokeColor=none;fillColor=none;align=left;verticalAlign=top;spacingLeft=4;spacingRight=4;overflow=hidden;rotatable=0;points=[[0,0.5],[1,0.5]];portConstraint=eastwest;whiteSpace=wrap;html=1;" vertex="1" parent="hKhoxYEIqixDO7NpXUTN-0">
          <mxGeometry y="216" width="200" height="26" as="geometry" />
        </mxCell>
        <mxCell id="hKhoxYEIqixDO7NpXUTN-10" value="Tag" style="swimlane;fontStyle=0;childLayout=stackLayout;horizontal=1;startSize=26;fillColor=none;horizontalStack=0;resizeParent=1;resizeParentMax=0;resizeLast=0;collapsible=1;marginBottom=0;whiteSpace=wrap;html=1;" vertex="1" parent="WIyWlLk6GJQsqaUBKTNV-1">
          <mxGeometry x="810" y="1550" width="140" height="78" as="geometry" />
        </mxCell>
        <mxCell id="JN1e4Yn2zOlTDyAOawD0-0" value="+ TagId: int" style="text;strokeColor=none;fillColor=none;align=left;verticalAlign=top;spacingLeft=4;spacingRight=4;overflow=hidden;rotatable=0;points=[[0,0.5],[1,0.5]];portConstraint=eastwest;whiteSpace=wrap;html=1;" vertex="1" parent="hKhoxYEIqixDO7NpXUTN-10">
          <mxGeometry y="26" width="140" height="26" as="geometry" />
        </mxCell>
        <mxCell id="JN1e4Yn2zOlTDyAOawD0-1" value="+ TagName: string" style="text;strokeColor=none;fillColor=none;align=left;verticalAlign=top;spacingLeft=4;spacingRight=4;overflow=hidden;rotatable=0;points=[[0,0.5],[1,0.5]];portConstraint=eastwest;whiteSpace=wrap;html=1;" vertex="1" parent="hKhoxYEIqixDO7NpXUTN-10">
          <mxGeometry y="52" width="140" height="26" as="geometry" />
        </mxCell>
        <mxCell id="hKhoxYEIqixDO7NpXUTN-14" value="TagConfiguration" style="swimlane;fontStyle=1;align=center;verticalAlign=top;childLayout=stackLayout;horizontal=1;startSize=26;horizontalStack=0;resizeParent=1;resizeParentMax=0;resizeLast=0;collapsible=1;marginBottom=0;whiteSpace=wrap;html=1;" vertex="1" parent="WIyWlLk6GJQsqaUBKTNV-1">
          <mxGeometry x="750" y="1430" width="260" height="60" as="geometry" />
        </mxCell>
        <mxCell id="hKhoxYEIqixDO7NpXUTN-15" value="" style="line;strokeWidth=1;fillColor=none;align=left;verticalAlign=middle;spacingTop=-1;spacingLeft=3;spacingRight=3;rotatable=0;labelPosition=right;points=[];portConstraint=eastwest;strokeColor=inherit;" vertex="1" parent="hKhoxYEIqixDO7NpXUTN-14">
          <mxGeometry y="26" width="260" height="8" as="geometry" />
        </mxCell>
        <mxCell id="hKhoxYEIqixDO7NpXUTN-16" value="+ configure(EntityTypeBuilder&amp;lt;Tag&amp;gt;): void" style="text;strokeColor=none;fillColor=none;align=left;verticalAlign=top;spacingLeft=4;spacingRight=4;overflow=hidden;rotatable=0;points=[[0,0.5],[1,0.5]];portConstraint=eastwest;whiteSpace=wrap;html=1;" vertex="1" parent="hKhoxYEIqixDO7NpXUTN-14">
          <mxGeometry y="34" width="260" height="26" as="geometry" />
        </mxCell>
        <mxCell id="hKhoxYEIqixDO7NpXUTN-17" value="Use" style="endArrow=open;endSize=12;dashed=1;html=1;rounded=0;" edge="1" parent="WIyWlLk6GJQsqaUBKTNV-1" source="hKhoxYEIqixDO7NpXUTN-14" target="hKhoxYEIqixDO7NpXUTN-10">
          <mxGeometry width="160" relative="1" as="geometry">
            <mxPoint x="690" y="1796" as="sourcePoint" />
            <mxPoint x="690" y="1856" as="targetPoint" />
          </mxGeometry>
        </mxCell>
        <mxCell id="JN1e4Yn2zOlTDyAOawD0-2" value="Use" style="endArrow=open;endSize=12;dashed=1;html=1;rounded=0;edgeStyle=orthogonalEdgeStyle;" edge="1" parent="WIyWlLk6GJQsqaUBKTNV-1" source="hKhoxYEIqixDO7NpXUTN-0" target="hKhoxYEIqixDO7NpXUTN-10">
          <mxGeometry width="160" relative="1" as="geometry">
            <mxPoint x="847" y="1750" as="sourcePoint" />
            <mxPoint x="1030" y="1898" as="targetPoint" />
            <Array as="points">
              <mxPoint x="760" y="1590" />
              <mxPoint x="760" y="1590" />
            </Array>
          </mxGeometry>
        </mxCell>
        <mxCell id="JN1e4Yn2zOlTDyAOawD0-3" value="1" style="endArrow=open;html=1;endSize=12;startArrow=diamondThin;startSize=14;startFill=1;edgeStyle=orthogonalEdgeStyle;align=left;verticalAlign=bottom;rounded=0;jumpStyle=arc;jumpSize=12;" edge="1" parent="WIyWlLk6GJQsqaUBKTNV-1" source="hKhoxYEIqixDO7NpXUTN-0" target="agEdRXNcoSYmF9dQdAtc-94">
          <mxGeometry x="-0.8182" y="-10" relative="1" as="geometry">
            <mxPoint x="12" y="1669" as="sourcePoint" />
            <mxPoint x="307" y="1747" as="targetPoint" />
            <Array as="points">
              <mxPoint x="560" y="1700" />
              <mxPoint x="297" y="1700" />
            </Array>
            <mxPoint as="offset" />
          </mxGeometry>
        </mxCell>
        <mxCell id="JN1e4Yn2zOlTDyAOawD0-9" value="TagController" style="swimlane;fontStyle=1;align=center;verticalAlign=top;childLayout=stackLayout;horizontal=1;startSize=26;horizontalStack=0;resizeParent=1;resizeParentMax=0;resizeLast=0;collapsible=1;marginBottom=0;whiteSpace=wrap;html=1;" vertex="1" parent="WIyWlLk6GJQsqaUBKTNV-1">
          <mxGeometry x="450" y="2030" width="230" height="190" as="geometry" />
        </mxCell>
        <mxCell id="JN1e4Yn2zOlTDyAOawD0-10" value="- context: IDbDal&amp;lt;Tag&amp;gt;" style="text;strokeColor=none;fillColor=none;align=left;verticalAlign=top;spacingLeft=4;spacingRight=4;overflow=hidden;rotatable=0;points=[[0,0.5],[1,0.5]];portConstraint=eastwest;whiteSpace=wrap;html=1;" vertex="1" parent="JN1e4Yn2zOlTDyAOawD0-9">
          <mxGeometry y="26" width="230" height="26" as="geometry" />
        </mxCell>
        <mxCell id="JN1e4Yn2zOlTDyAOawD0-11" value="" style="line;strokeWidth=1;fillColor=none;align=left;verticalAlign=middle;spacingTop=-1;spacingLeft=3;spacingRight=3;rotatable=0;labelPosition=right;points=[];portConstraint=eastwest;strokeColor=inherit;" vertex="1" parent="JN1e4Yn2zOlTDyAOawD0-9">
          <mxGeometry y="52" width="230" height="8" as="geometry" />
        </mxCell>
        <mxCell id="JN1e4Yn2zOlTDyAOawD0-12" value="+ GetAll(string) : IActionResult" style="text;strokeColor=none;fillColor=none;align=left;verticalAlign=top;spacingLeft=4;spacingRight=4;overflow=hidden;rotatable=0;points=[[0,0.5],[1,0.5]];portConstraint=eastwest;whiteSpace=wrap;html=1;" vertex="1" parent="JN1e4Yn2zOlTDyAOawD0-9">
          <mxGeometry y="60" width="230" height="26" as="geometry" />
        </mxCell>
        <mxCell id="JN1e4Yn2zOlTDyAOawD0-13" value="+ GetById(int, string) : IActionResult" style="text;strokeColor=none;fillColor=none;align=left;verticalAlign=top;spacingLeft=4;spacingRight=4;overflow=hidden;rotatable=0;points=[[0,0.5],[1,0.5]];portConstraint=eastwest;whiteSpace=wrap;html=1;" vertex="1" parent="JN1e4Yn2zOlTDyAOawD0-9">
          <mxGeometry y="86" width="230" height="26" as="geometry" />
        </mxCell>
        <mxCell id="JN1e4Yn2zOlTDyAOawD0-14" value="+ Create(string, Tag) : IActionResult" style="text;strokeColor=none;fillColor=none;align=left;verticalAlign=top;spacingLeft=4;spacingRight=4;overflow=hidden;rotatable=0;points=[[0,0.5],[1,0.5]];portConstraint=eastwest;whiteSpace=wrap;html=1;" vertex="1" parent="JN1e4Yn2zOlTDyAOawD0-9">
          <mxGeometry y="112" width="230" height="26" as="geometry" />
        </mxCell>
        <mxCell id="JN1e4Yn2zOlTDyAOawD0-15" value="+ Update(string, Tag) : IActionResult" style="text;strokeColor=none;fillColor=none;align=left;verticalAlign=top;spacingLeft=4;spacingRight=4;overflow=hidden;rotatable=0;points=[[0,0.5],[1,0.5]];portConstraint=eastwest;whiteSpace=wrap;html=1;" vertex="1" parent="JN1e4Yn2zOlTDyAOawD0-9">
          <mxGeometry y="138" width="230" height="26" as="geometry" />
        </mxCell>
        <mxCell id="JN1e4Yn2zOlTDyAOawD0-16" value="+ Delete(int) : IActionResult" style="text;strokeColor=none;fillColor=none;align=left;verticalAlign=top;spacingLeft=4;spacingRight=4;overflow=hidden;rotatable=0;points=[[0,0.5],[1,0.5]];portConstraint=eastwest;whiteSpace=wrap;html=1;" vertex="1" parent="JN1e4Yn2zOlTDyAOawD0-9">
          <mxGeometry y="164" width="230" height="26" as="geometry" />
        </mxCell>
        <mxCell id="JN1e4Yn2zOlTDyAOawD0-17" value="1" style="endArrow=open;html=1;endSize=12;startArrow=diamondThin;startSize=14;startFill=1;edgeStyle=orthogonalEdgeStyle;align=left;verticalAlign=bottom;rounded=0;jumpStyle=none;jumpSize=12;" edge="1" parent="WIyWlLk6GJQsqaUBKTNV-1" source="JN1e4Yn2zOlTDyAOawD0-9" target="agEdRXNcoSYmF9dQdAtc-52">
          <mxGeometry x="-0.963" relative="1" as="geometry">
            <mxPoint x="310" y="2040" as="sourcePoint" />
            <mxPoint x="-276" y="1907" as="targetPoint" />
            <Array as="points">
              <mxPoint x="560" y="1940" />
              <mxPoint x="-286" y="1940" />
            </Array>
            <mxPoint as="offset" />
          </mxGeometry>
        </mxCell>
        <mxCell id="JN1e4Yn2zOlTDyAOawD0-18" value="Extends" style="endArrow=block;endSize=16;endFill=0;html=1;rounded=0;edgeStyle=orthogonalEdgeStyle;" edge="1" parent="WIyWlLk6GJQsqaUBKTNV-1" source="JN1e4Yn2zOlTDyAOawD0-9" target="7rd6Hwtv7v1fEGL6sJqx-4">
          <mxGeometry x="-0.1828" width="160" relative="1" as="geometry">
            <mxPoint x="310" y="2152" as="sourcePoint" />
            <mxPoint x="87" y="2305" as="targetPoint" />
            <Array as="points">
              <mxPoint x="565" y="2295" />
            </Array>
            <mxPoint x="1" as="offset" />
          </mxGeometry>
        </mxCell>
        <mxCell id="JN1e4Yn2zOlTDyAOawD0-20" value="Use" style="endArrow=open;endSize=12;dashed=1;html=1;rounded=0;edgeStyle=orthogonalEdgeStyle;jumpStyle=arc;jumpSize=12;" edge="1" parent="WIyWlLk6GJQsqaUBKTNV-1" source="JN1e4Yn2zOlTDyAOawD0-9" target="hKhoxYEIqixDO7NpXUTN-10">
          <mxGeometry x="-0.1589" width="160" relative="1" as="geometry">
            <mxPoint x="879.6" y="2270" as="sourcePoint" />
            <mxPoint x="879.6" y="1628" as="targetPoint" />
            <mxPoint as="offset" />
            <Array as="points">
              <mxPoint x="750" y="2125" />
              <mxPoint x="750" y="1680" />
              <mxPoint x="880" y="1680" />
            </Array>
          </mxGeometry>
        </mxCell>
      </root>
    </mxGraphModel>
  </diagram>
  <diagram id="ElD3_05dNXb1eUGQ2Ww_" name="Desktop">
    <mxGraphModel dx="2359" dy="-220" grid="1" gridSize="10" guides="1" tooltips="1" connect="1" arrows="1" fold="1" page="1" pageScale="1" pageWidth="850" pageHeight="1100" math="0" shadow="0">
      <root>
        <mxCell id="0" />
        <mxCell id="1" parent="0" />
        <mxCell id="syg9Fnx4agqtEhosEdGa-1" value="DataManager" style="swimlane;fontStyle=0;childLayout=stackLayout;horizontal=1;startSize=26;fillColor=none;horizontalStack=0;resizeParent=1;resizeParentMax=0;resizeLast=0;collapsible=1;marginBottom=0;whiteSpace=wrap;html=1;" parent="1" vertex="1">
          <mxGeometry x="570" y="1300" width="260" height="104" as="geometry" />
        </mxCell>
        <mxCell id="syg9Fnx4agqtEhosEdGa-3" value="+&amp;nbsp;SaveVarBinaryAsPdf(byte[], string) : void" style="text;strokeColor=none;fillColor=none;align=left;verticalAlign=top;spacingLeft=4;spacingRight=4;overflow=hidden;rotatable=0;points=[[0,0.5],[1,0.5]];portConstraint=eastwest;whiteSpace=wrap;html=1;fontStyle=4" parent="syg9Fnx4agqtEhosEdGa-1" vertex="1">
          <mxGeometry y="26" width="260" height="26" as="geometry" />
        </mxCell>
        <mxCell id="wqsPX1KWYFx36kA7TJIM-5" value="+&amp;nbsp;SaveVarBinaryAsVideo(byte[], string) : void" style="text;strokeColor=none;fillColor=none;align=left;verticalAlign=top;spacingLeft=4;spacingRight=4;overflow=hidden;rotatable=0;points=[[0,0.5],[1,0.5]];portConstraint=eastwest;whiteSpace=wrap;html=1;fontStyle=4" parent="syg9Fnx4agqtEhosEdGa-1" vertex="1">
          <mxGeometry y="52" width="260" height="26" as="geometry" />
        </mxCell>
        <mxCell id="syg9Fnx4agqtEhosEdGa-4" value="+&amp;nbsp;FileToBinary(StorageFile) :&amp;nbsp;Task&amp;lt;byte[]&amp;gt;" style="text;strokeColor=none;fillColor=none;align=left;verticalAlign=top;spacingLeft=4;spacingRight=4;overflow=hidden;rotatable=0;points=[[0,0.5],[1,0.5]];portConstraint=eastwest;whiteSpace=wrap;html=1;fontStyle=4" parent="syg9Fnx4agqtEhosEdGa-1" vertex="1">
          <mxGeometry y="78" width="260" height="26" as="geometry" />
        </mxCell>
        <mxCell id="syg9Fnx4agqtEhosEdGa-5" value="SourceViewModel" style="swimlane;fontStyle=1;align=center;verticalAlign=top;childLayout=stackLayout;horizontal=1;startSize=26;horizontalStack=0;resizeParent=1;resizeParentMax=0;resizeLast=0;collapsible=1;marginBottom=0;whiteSpace=wrap;html=1;" parent="1" vertex="1">
          <mxGeometry x="-190" y="1372" width="330" height="190" as="geometry" />
        </mxCell>
        <mxCell id="syg9Fnx4agqtEhosEdGa-6" value="-&amp;nbsp;_applicationStorageHelper:&amp;nbsp;ApplicationDataStorageHelper" style="text;strokeColor=none;fillColor=none;align=left;verticalAlign=top;spacingLeft=4;spacingRight=4;overflow=hidden;rotatable=0;points=[[0,0.5],[1,0.5]];portConstraint=eastwest;whiteSpace=wrap;html=1;" parent="syg9Fnx4agqtEhosEdGa-5" vertex="1">
          <mxGeometry y="26" width="330" height="26" as="geometry" />
        </mxCell>
        <mxCell id="syg9Fnx4agqtEhosEdGa-9" value="- _sourceDal: SourceDal" style="text;strokeColor=none;fillColor=none;align=left;verticalAlign=top;spacingLeft=4;spacingRight=4;overflow=hidden;rotatable=0;points=[[0,0.5],[1,0.5]];portConstraint=eastwest;whiteSpace=wrap;html=1;" parent="syg9Fnx4agqtEhosEdGa-5" vertex="1">
          <mxGeometry y="52" width="330" height="26" as="geometry" />
        </mxCell>
        <mxCell id="syg9Fnx4agqtEhosEdGa-10" value="+ sources: List&amp;lt;Source&amp;gt;" style="text;strokeColor=none;fillColor=none;align=left;verticalAlign=top;spacingLeft=4;spacingRight=4;overflow=hidden;rotatable=0;points=[[0,0.5],[1,0.5]];portConstraint=eastwest;whiteSpace=wrap;html=1;" parent="syg9Fnx4agqtEhosEdGa-5" vertex="1">
          <mxGeometry y="78" width="330" height="26" as="geometry" />
        </mxCell>
        <mxCell id="syg9Fnx4agqtEhosEdGa-11" value="+ currentSource: Source" style="text;strokeColor=none;fillColor=none;align=left;verticalAlign=top;spacingLeft=4;spacingRight=4;overflow=hidden;rotatable=0;points=[[0,0.5],[1,0.5]];portConstraint=eastwest;whiteSpace=wrap;html=1;" parent="syg9Fnx4agqtEhosEdGa-5" vertex="1">
          <mxGeometry y="104" width="330" height="26" as="geometry" />
        </mxCell>
        <mxCell id="syg9Fnx4agqtEhosEdGa-7" value="" style="line;strokeWidth=1;fillColor=none;align=left;verticalAlign=middle;spacingTop=-1;spacingLeft=3;spacingRight=3;rotatable=0;labelPosition=right;points=[];portConstraint=eastwest;strokeColor=inherit;" parent="syg9Fnx4agqtEhosEdGa-5" vertex="1">
          <mxGeometry y="130" width="330" height="8" as="geometry" />
        </mxCell>
        <mxCell id="syg9Fnx4agqtEhosEdGa-8" value="+&amp;nbsp;GetSources() :&amp;nbsp;Task&amp;lt;IEnumerable&amp;lt;Source&amp;gt;&amp;gt;" style="text;strokeColor=none;fillColor=none;align=left;verticalAlign=top;spacingLeft=4;spacingRight=4;overflow=hidden;rotatable=0;points=[[0,0.5],[1,0.5]];portConstraint=eastwest;whiteSpace=wrap;html=1;" parent="syg9Fnx4agqtEhosEdGa-5" vertex="1">
          <mxGeometry y="138" width="330" height="26" as="geometry" />
        </mxCell>
        <mxCell id="syg9Fnx4agqtEhosEdGa-12" value="+ AddNewSource(Source) :&amp;nbsp;Task&amp;lt;bool?&amp;gt;" style="text;strokeColor=none;fillColor=none;align=left;verticalAlign=top;spacingLeft=4;spacingRight=4;overflow=hidden;rotatable=0;points=[[0,0.5],[1,0.5]];portConstraint=eastwest;whiteSpace=wrap;html=1;" parent="syg9Fnx4agqtEhosEdGa-5" vertex="1">
          <mxGeometry y="164" width="330" height="26" as="geometry" />
        </mxCell>
        <mxCell id="syg9Fnx4agqtEhosEdGa-13" value="UserViewModel" style="swimlane;fontStyle=1;align=center;verticalAlign=top;childLayout=stackLayout;horizontal=1;startSize=26;horizontalStack=0;resizeParent=1;resizeParentMax=0;resizeLast=0;collapsible=1;marginBottom=0;whiteSpace=wrap;html=1;" parent="1" vertex="1">
          <mxGeometry x="-600" y="1364" width="330" height="216" as="geometry" />
        </mxCell>
        <mxCell id="syg9Fnx4agqtEhosEdGa-14" value="-&amp;nbsp;_applicationStorageHelper:&amp;nbsp;ApplicationDataStorageHelper" style="text;strokeColor=none;fillColor=none;align=left;verticalAlign=top;spacingLeft=4;spacingRight=4;overflow=hidden;rotatable=0;points=[[0,0.5],[1,0.5]];portConstraint=eastwest;whiteSpace=wrap;html=1;" parent="syg9Fnx4agqtEhosEdGa-13" vertex="1">
          <mxGeometry y="26" width="330" height="26" as="geometry" />
        </mxCell>
        <mxCell id="syg9Fnx4agqtEhosEdGa-15" value="- _userDal: UserDal" style="text;strokeColor=none;fillColor=none;align=left;verticalAlign=top;spacingLeft=4;spacingRight=4;overflow=hidden;rotatable=0;points=[[0,0.5],[1,0.5]];portConstraint=eastwest;whiteSpace=wrap;html=1;" parent="syg9Fnx4agqtEhosEdGa-13" vertex="1">
          <mxGeometry y="52" width="330" height="26" as="geometry" />
        </mxCell>
        <mxCell id="syg9Fnx4agqtEhosEdGa-18" value="" style="line;strokeWidth=1;fillColor=none;align=left;verticalAlign=middle;spacingTop=-1;spacingLeft=3;spacingRight=3;rotatable=0;labelPosition=right;points=[];portConstraint=eastwest;strokeColor=inherit;" parent="syg9Fnx4agqtEhosEdGa-13" vertex="1">
          <mxGeometry y="78" width="330" height="8" as="geometry" />
        </mxCell>
        <mxCell id="wqsPX1KWYFx36kA7TJIM-10" value="+ Login(string, string) :&amp;nbsp;Task&amp;lt;User&amp;gt;" style="text;strokeColor=none;fillColor=none;align=left;verticalAlign=top;spacingLeft=4;spacingRight=4;overflow=hidden;rotatable=0;points=[[0,0.5],[1,0.5]];portConstraint=eastwest;whiteSpace=wrap;html=1;" parent="syg9Fnx4agqtEhosEdGa-13" vertex="1">
          <mxGeometry y="86" width="330" height="26" as="geometry" />
        </mxCell>
        <mxCell id="syg9Fnx4agqtEhosEdGa-19" value="+ CreateAccount(User) : Task&amp;lt;User&amp;gt;" style="text;strokeColor=none;fillColor=none;align=left;verticalAlign=top;spacingLeft=4;spacingRight=4;overflow=hidden;rotatable=0;points=[[0,0.5],[1,0.5]];portConstraint=eastwest;whiteSpace=wrap;html=1;" parent="syg9Fnx4agqtEhosEdGa-13" vertex="1">
          <mxGeometry y="112" width="330" height="26" as="geometry" />
        </mxCell>
        <mxCell id="syg9Fnx4agqtEhosEdGa-20" value="+ getSavedUser() : User" style="text;strokeColor=none;fillColor=none;align=left;verticalAlign=top;spacingLeft=4;spacingRight=4;overflow=hidden;rotatable=0;points=[[0,0.5],[1,0.5]];portConstraint=eastwest;whiteSpace=wrap;html=1;" parent="syg9Fnx4agqtEhosEdGa-13" vertex="1">
          <mxGeometry y="138" width="330" height="26" as="geometry" />
        </mxCell>
        <mxCell id="syg9Fnx4agqtEhosEdGa-21" value="+&amp;nbsp;ValidateAuthorization() : bool" style="text;strokeColor=none;fillColor=none;align=left;verticalAlign=top;spacingLeft=4;spacingRight=4;overflow=hidden;rotatable=0;points=[[0,0.5],[1,0.5]];portConstraint=eastwest;whiteSpace=wrap;html=1;" parent="syg9Fnx4agqtEhosEdGa-13" vertex="1">
          <mxGeometry y="164" width="330" height="26" as="geometry" />
        </mxCell>
        <mxCell id="syg9Fnx4agqtEhosEdGa-22" value="-&amp;nbsp;hashPassword(string) : string" style="text;strokeColor=none;fillColor=none;align=left;verticalAlign=top;spacingLeft=4;spacingRight=4;overflow=hidden;rotatable=0;points=[[0,0.5],[1,0.5]];portConstraint=eastwest;whiteSpace=wrap;html=1;fontStyle=4" parent="syg9Fnx4agqtEhosEdGa-13" vertex="1">
          <mxGeometry y="190" width="330" height="26" as="geometry" />
        </mxCell>
        <mxCell id="syg9Fnx4agqtEhosEdGa-23" value="NoteViewModel" style="swimlane;fontStyle=1;align=center;verticalAlign=top;childLayout=stackLayout;horizontal=1;startSize=26;horizontalStack=0;resizeParent=1;resizeParentMax=0;resizeLast=0;collapsible=1;marginBottom=0;whiteSpace=wrap;html=1;" parent="1" vertex="1">
          <mxGeometry x="220" y="1372" width="330" height="190" as="geometry" />
        </mxCell>
        <mxCell id="syg9Fnx4agqtEhosEdGa-24" value="-&amp;nbsp;_applicationStorageHelper:&amp;nbsp;ApplicationDataStorageHelper" style="text;strokeColor=none;fillColor=none;align=left;verticalAlign=top;spacingLeft=4;spacingRight=4;overflow=hidden;rotatable=0;points=[[0,0.5],[1,0.5]];portConstraint=eastwest;whiteSpace=wrap;html=1;" parent="syg9Fnx4agqtEhosEdGa-23" vertex="1">
          <mxGeometry y="26" width="330" height="26" as="geometry" />
        </mxCell>
        <mxCell id="syg9Fnx4agqtEhosEdGa-25" value="- notesDal: NotesDal" style="text;strokeColor=none;fillColor=none;align=left;verticalAlign=top;spacingLeft=4;spacingRight=4;overflow=hidden;rotatable=0;points=[[0,0.5],[1,0.5]];portConstraint=eastwest;whiteSpace=wrap;html=1;" parent="syg9Fnx4agqtEhosEdGa-23" vertex="1">
          <mxGeometry y="52" width="330" height="26" as="geometry" />
        </mxCell>
        <mxCell id="syg9Fnx4agqtEhosEdGa-26" value="" style="line;strokeWidth=1;fillColor=none;align=left;verticalAlign=middle;spacingTop=-1;spacingLeft=3;spacingRight=3;rotatable=0;labelPosition=right;points=[];portConstraint=eastwest;strokeColor=inherit;" parent="syg9Fnx4agqtEhosEdGa-23" vertex="1">
          <mxGeometry y="78" width="330" height="8" as="geometry" />
        </mxCell>
        <mxCell id="syg9Fnx4agqtEhosEdGa-27" value="+&amp;nbsp;GetSourceNotes(Source) :&amp;nbsp;Task&amp;lt;IEnumerable&amp;lt;Note&amp;gt;&amp;gt;" style="text;strokeColor=none;fillColor=none;align=left;verticalAlign=top;spacingLeft=4;spacingRight=4;overflow=hidden;rotatable=0;points=[[0,0.5],[1,0.5]];portConstraint=eastwest;whiteSpace=wrap;html=1;" parent="syg9Fnx4agqtEhosEdGa-23" vertex="1">
          <mxGeometry y="86" width="330" height="26" as="geometry" />
        </mxCell>
        <mxCell id="syg9Fnx4agqtEhosEdGa-28" value="+&amp;nbsp;AddNewNote(Note) :&amp;nbsp;Task&amp;lt;bool?&amp;gt;" style="text;strokeColor=none;fillColor=none;align=left;verticalAlign=top;spacingLeft=4;spacingRight=4;overflow=hidden;rotatable=0;points=[[0,0.5],[1,0.5]];portConstraint=eastwest;whiteSpace=wrap;html=1;" parent="syg9Fnx4agqtEhosEdGa-23" vertex="1">
          <mxGeometry y="112" width="330" height="26" as="geometry" />
        </mxCell>
        <mxCell id="syg9Fnx4agqtEhosEdGa-29" value="+ UpdateNote(Note) :&amp;nbsp;Task&amp;lt;bool?&amp;gt;" style="text;strokeColor=none;fillColor=none;align=left;verticalAlign=top;spacingLeft=4;spacingRight=4;overflow=hidden;rotatable=0;points=[[0,0.5],[1,0.5]];portConstraint=eastwest;whiteSpace=wrap;html=1;" parent="syg9Fnx4agqtEhosEdGa-23" vertex="1">
          <mxGeometry y="138" width="330" height="26" as="geometry" />
        </mxCell>
        <mxCell id="syg9Fnx4agqtEhosEdGa-30" value="+&amp;nbsp;DeleteNote(Note) :&amp;nbsp;Task&amp;lt;bool&amp;gt;" style="text;strokeColor=none;fillColor=none;align=left;verticalAlign=top;spacingLeft=4;spacingRight=4;overflow=hidden;rotatable=0;points=[[0,0.5],[1,0.5]];portConstraint=eastwest;whiteSpace=wrap;html=1;fontStyle=0" parent="syg9Fnx4agqtEhosEdGa-23" vertex="1">
          <mxGeometry y="164" width="330" height="26" as="geometry" />
        </mxCell>
        <mxCell id="syg9Fnx4agqtEhosEdGa-43" value="Desktop.Library" style="shape=folder;fontStyle=1;spacingTop=0;tabWidth=147;tabHeight=22;tabPosition=left;html=1;whiteSpace=wrap;verticalAlign=top;align=left;spacing=0;spacingLeft=10;" parent="1" vertex="1">
          <mxGeometry x="-600" y="1130" width="1120" height="180" as="geometry" />
        </mxCell>
        <mxCell id="syg9Fnx4agqtEhosEdGa-44" value="SourceDal" style="html=1;whiteSpace=wrap;" parent="1" vertex="1">
          <mxGeometry x="-580" y="1180" width="110" height="50" as="geometry" />
        </mxCell>
        <mxCell id="syg9Fnx4agqtEhosEdGa-45" value="Source" style="html=1;whiteSpace=wrap;" parent="1" vertex="1">
          <mxGeometry x="-580" y="1240" width="110" height="50" as="geometry" />
        </mxCell>
        <mxCell id="syg9Fnx4agqtEhosEdGa-49" value="Use" style="endArrow=open;endSize=12;dashed=1;html=1;rounded=0;edgeStyle=orthogonalEdgeStyle;" parent="1" source="syg9Fnx4agqtEhosEdGa-13" target="syg9Fnx4agqtEhosEdGa-45" edge="1">
          <mxGeometry width="160" relative="1" as="geometry">
            <mxPoint x="-420" y="1330" as="sourcePoint" />
            <mxPoint x="-260" y="1330" as="targetPoint" />
            <Array as="points">
              <mxPoint x="-400" y="1265" />
            </Array>
          </mxGeometry>
        </mxCell>
        <mxCell id="syg9Fnx4agqtEhosEdGa-51" value="1" style="endArrow=open;html=1;endSize=12;startArrow=diamondThin;startSize=14;startFill=1;edgeStyle=orthogonalEdgeStyle;align=left;verticalAlign=bottom;rounded=0;" parent="1" source="syg9Fnx4agqtEhosEdGa-13" target="syg9Fnx4agqtEhosEdGa-44" edge="1">
          <mxGeometry x="-0.8769" y="10" relative="1" as="geometry">
            <mxPoint x="-370" y="1270" as="sourcePoint" />
            <mxPoint x="-210" y="1270" as="targetPoint" />
            <Array as="points">
              <mxPoint x="-330" y="1205" />
            </Array>
            <mxPoint as="offset" />
          </mxGeometry>
        </mxCell>
        <mxCell id="wqsPX1KWYFx36kA7TJIM-2" value="Use" style="endArrow=open;endSize=12;dashed=1;html=1;rounded=0;edgeStyle=orthogonalEdgeStyle;" parent="1" source="syg9Fnx4agqtEhosEdGa-13" target="syg9Fnx4agqtEhosEdGa-1" edge="1">
          <mxGeometry x="-0.9493" width="160" relative="1" as="geometry">
            <mxPoint x="-160" y="1767" as="sourcePoint" />
            <mxPoint y="1767" as="targetPoint" />
            <Array as="points">
              <mxPoint x="-220" y="1510" />
              <mxPoint x="-220" y="1600" />
              <mxPoint x="110" y="1600" />
              <mxPoint x="110" y="1590" />
              <mxPoint x="700" y="1590" />
            </Array>
            <mxPoint as="offset" />
          </mxGeometry>
        </mxCell>
        <mxCell id="wqsPX1KWYFx36kA7TJIM-3" value="Use" style="endArrow=open;endSize=12;dashed=1;html=1;rounded=0;edgeStyle=orthogonalEdgeStyle;" parent="1" source="syg9Fnx4agqtEhosEdGa-5" target="syg9Fnx4agqtEhosEdGa-1" edge="1">
          <mxGeometry x="-0.9552" width="160" relative="1" as="geometry">
            <mxPoint x="-260" y="1553" as="sourcePoint" />
            <mxPoint x="630" y="1660" as="targetPoint" />
            <Array as="points">
              <mxPoint x="110" y="1590" />
              <mxPoint x="700" y="1590" />
            </Array>
            <mxPoint as="offset" />
          </mxGeometry>
        </mxCell>
        <mxCell id="wqsPX1KWYFx36kA7TJIM-4" value="Use" style="endArrow=open;endSize=12;dashed=1;html=1;rounded=0;edgeStyle=orthogonalEdgeStyle;" parent="1" source="syg9Fnx4agqtEhosEdGa-23" target="syg9Fnx4agqtEhosEdGa-1" edge="1">
          <mxGeometry x="-0.7027" width="160" relative="1" as="geometry">
            <mxPoint x="-250" y="1563" as="sourcePoint" />
            <mxPoint x="640" y="1670" as="targetPoint" />
            <Array as="points">
              <mxPoint x="700" y="1500" />
            </Array>
            <mxPoint as="offset" />
          </mxGeometry>
        </mxCell>
        <mxCell id="syg9Fnx4agqtEhosEdGa-35" value="NotesDal" style="html=1;whiteSpace=wrap;" parent="1" vertex="1">
          <mxGeometry x="150" y="1180" width="110" height="50" as="geometry" />
        </mxCell>
        <mxCell id="syg9Fnx4agqtEhosEdGa-36" value="Note" style="html=1;whiteSpace=wrap;" parent="1" vertex="1">
          <mxGeometry x="150" y="1240" width="110" height="50" as="geometry" />
        </mxCell>
        <mxCell id="syg9Fnx4agqtEhosEdGa-47" value="UserDal" style="html=1;whiteSpace=wrap;" parent="1" vertex="1">
          <mxGeometry x="-170" y="1180" width="110" height="50" as="geometry" />
        </mxCell>
        <mxCell id="syg9Fnx4agqtEhosEdGa-48" value="User" style="html=1;whiteSpace=wrap;" parent="1" vertex="1">
          <mxGeometry x="-170" y="1240" width="110" height="50" as="geometry" />
        </mxCell>
        <mxCell id="syg9Fnx4agqtEhosEdGa-52" value="Use" style="endArrow=open;endSize=12;dashed=1;html=1;rounded=0;edgeStyle=orthogonalEdgeStyle;" parent="1" source="syg9Fnx4agqtEhosEdGa-5" target="syg9Fnx4agqtEhosEdGa-48" edge="1">
          <mxGeometry width="160" relative="1" as="geometry">
            <mxPoint x="50" y="1365" as="sourcePoint" />
            <mxPoint x="-20" y="1240" as="targetPoint" />
            <Array as="points">
              <mxPoint x="40" y="1260" />
            </Array>
          </mxGeometry>
        </mxCell>
        <mxCell id="syg9Fnx4agqtEhosEdGa-53" value="1" style="endArrow=open;html=1;endSize=12;startArrow=diamondThin;startSize=14;startFill=1;edgeStyle=orthogonalEdgeStyle;align=left;verticalAlign=bottom;rounded=0;" parent="1" source="syg9Fnx4agqtEhosEdGa-5" target="syg9Fnx4agqtEhosEdGa-47" edge="1">
          <mxGeometry x="-0.8769" y="10" relative="1" as="geometry">
            <mxPoint x="120" y="1365" as="sourcePoint" />
            <mxPoint x="-20" y="1180" as="targetPoint" />
            <Array as="points">
              <mxPoint x="100" y="1200" />
            </Array>
            <mxPoint as="offset" />
          </mxGeometry>
        </mxCell>
        <mxCell id="syg9Fnx4agqtEhosEdGa-54" value="Use" style="endArrow=open;endSize=12;dashed=1;html=1;rounded=0;edgeStyle=orthogonalEdgeStyle;" parent="1" source="syg9Fnx4agqtEhosEdGa-23" target="syg9Fnx4agqtEhosEdGa-36" edge="1">
          <mxGeometry x="0.3435" width="160" relative="1" as="geometry">
            <mxPoint x="460" y="1380" as="sourcePoint" />
            <mxPoint x="360" y="1250" as="targetPoint" />
            <Array as="points">
              <mxPoint x="290" y="1265" />
            </Array>
            <mxPoint as="offset" />
          </mxGeometry>
        </mxCell>
        <mxCell id="syg9Fnx4agqtEhosEdGa-55" value="1" style="endArrow=open;html=1;endSize=12;startArrow=diamondThin;startSize=14;startFill=1;edgeStyle=orthogonalEdgeStyle;align=left;verticalAlign=bottom;rounded=0;" parent="1" source="syg9Fnx4agqtEhosEdGa-23" target="syg9Fnx4agqtEhosEdGa-35" edge="1">
          <mxGeometry x="-0.8769" y="10" relative="1" as="geometry">
            <mxPoint x="520" y="1380" as="sourcePoint" />
            <mxPoint x="360" y="1190" as="targetPoint" />
            <Array as="points">
              <mxPoint x="320" y="1205" />
            </Array>
            <mxPoint as="offset" />
          </mxGeometry>
        </mxCell>
        <mxCell id="Po691sqLh6FFDHQEsvfW-5" value="AddSourceDialog" style="swimlane;fontStyle=1;align=center;verticalAlign=top;childLayout=stackLayout;horizontal=1;startSize=26;horizontalStack=0;resizeParent=1;resizeParentMax=0;resizeLast=0;collapsible=1;marginBottom=0;whiteSpace=wrap;html=1;" parent="1" vertex="1">
          <mxGeometry x="240" y="1817" width="310" height="350" as="geometry" />
        </mxCell>
        <mxCell id="Po691sqLh6FFDHQEsvfW-6" value="-&amp;nbsp;storageFile: StorageFile" style="text;strokeColor=none;fillColor=none;align=left;verticalAlign=top;spacingLeft=4;spacingRight=4;overflow=hidden;rotatable=0;points=[[0,0.5],[1,0.5]];portConstraint=eastwest;whiteSpace=wrap;html=1;" parent="Po691sqLh6FFDHQEsvfW-5" vertex="1">
          <mxGeometry y="26" width="310" height="26" as="geometry" />
        </mxCell>
        <mxCell id="9z7UOwSRRRG4p6ZKaWH4-54" value="+ NewSource: Source" style="text;strokeColor=none;fillColor=none;align=left;verticalAlign=top;spacingLeft=4;spacingRight=4;overflow=hidden;rotatable=0;points=[[0,0.5],[1,0.5]];portConstraint=eastwest;whiteSpace=wrap;html=1;" parent="Po691sqLh6FFDHQEsvfW-5" vertex="1">
          <mxGeometry y="52" width="310" height="26" as="geometry" />
        </mxCell>
        <mxCell id="Po691sqLh6FFDHQEsvfW-7" value="" style="line;strokeWidth=1;fillColor=none;align=left;verticalAlign=middle;spacingTop=-1;spacingLeft=3;spacingRight=3;rotatable=0;labelPosition=right;points=[];portConstraint=eastwest;strokeColor=inherit;" parent="Po691sqLh6FFDHQEsvfW-5" vertex="1">
          <mxGeometry y="78" width="310" height="8" as="geometry" />
        </mxCell>
        <mxCell id="Po691sqLh6FFDHQEsvfW-8" value="-&amp;nbsp;ContentDialog_PrimaryButtonClick(ContentDialog,&amp;nbsp;&lt;br&gt;&lt;span style=&quot;white-space: pre;&quot;&gt;&#x9;&lt;/span&gt;ContentDialogButtonClickEventArgs) : void" style="text;strokeColor=none;fillColor=none;align=left;verticalAlign=top;spacingLeft=4;spacingRight=4;overflow=hidden;rotatable=0;points=[[0,0.5],[1,0.5]];portConstraint=eastwest;whiteSpace=wrap;html=1;" parent="Po691sqLh6FFDHQEsvfW-5" vertex="1">
          <mxGeometry y="86" width="310" height="34" as="geometry" />
        </mxCell>
        <mxCell id="9z7UOwSRRRG4p6ZKaWH4-60" value="-&amp;nbsp;sourceIsLinkCheckBox_Unchecked(object, &lt;span style=&quot;white-space: pre;&quot;&gt;&#x9;&lt;/span&gt;RoutedEventArgs) : void" style="text;strokeColor=none;fillColor=none;align=left;verticalAlign=top;spacingLeft=4;spacingRight=4;overflow=hidden;rotatable=0;points=[[0,0.5],[1,0.5]];portConstraint=eastwest;whiteSpace=wrap;html=1;" parent="Po691sqLh6FFDHQEsvfW-5" vertex="1">
          <mxGeometry y="120" width="310" height="34" as="geometry" />
        </mxCell>
        <mxCell id="9z7UOwSRRRG4p6ZKaWH4-61" value="-&amp;nbsp;sourceIsLinkCheckBox_Checked(object,&lt;br&gt;&lt;span style=&quot;white-space: pre;&quot;&gt;&#x9;&lt;/span&gt;RoutedEventArgs) : void" style="text;strokeColor=none;fillColor=none;align=left;verticalAlign=top;spacingLeft=4;spacingRight=4;overflow=hidden;rotatable=0;points=[[0,0.5],[1,0.5]];portConstraint=eastwest;whiteSpace=wrap;html=1;" parent="Po691sqLh6FFDHQEsvfW-5" vertex="1">
          <mxGeometry y="154" width="310" height="34" as="geometry" />
        </mxCell>
        <mxCell id="9z7UOwSRRRG4p6ZKaWH4-62" value="-&amp;nbsp;sourceUploadButton_Click(object, &lt;span style=&quot;white-space: pre;&quot;&gt;&#x9;&lt;/span&gt;RoutedEventArgs) : void" style="text;strokeColor=none;fillColor=none;align=left;verticalAlign=top;spacingLeft=4;spacingRight=4;overflow=hidden;rotatable=0;points=[[0,0.5],[1,0.5]];portConstraint=eastwest;whiteSpace=wrap;html=1;" parent="Po691sqLh6FFDHQEsvfW-5" vertex="1">
          <mxGeometry y="188" width="310" height="34" as="geometry" />
        </mxCell>
        <mxCell id="9z7UOwSRRRG4p6ZKaWH4-63" value="-&amp;nbsp;AddAuthor_Click(object, RoutedEventArgs) : void" style="text;strokeColor=none;fillColor=none;align=left;verticalAlign=top;spacingLeft=4;spacingRight=4;overflow=hidden;rotatable=0;points=[[0,0.5],[1,0.5]];portConstraint=eastwest;whiteSpace=wrap;html=1;" parent="Po691sqLh6FFDHQEsvfW-5" vertex="1">
          <mxGeometry y="222" width="310" height="28" as="geometry" />
        </mxCell>
        <mxCell id="9z7UOwSRRRG4p6ZKaWH4-64" value="-&amp;nbsp;RemoveAuthor_Click(object, RoutedEventArgs) : void" style="text;strokeColor=none;fillColor=none;align=left;verticalAlign=top;spacingLeft=4;spacingRight=4;overflow=hidden;rotatable=0;points=[[0,0.5],[1,0.5]];portConstraint=eastwest;whiteSpace=wrap;html=1;" parent="Po691sqLh6FFDHQEsvfW-5" vertex="1">
          <mxGeometry y="250" width="310" height="28" as="geometry" />
        </mxCell>
        <mxCell id="9z7UOwSRRRG4p6ZKaWH4-65" value="-&amp;nbsp;sourceAuthorsListView_RightTapped(object, &lt;span style=&quot;white-space: pre;&quot;&gt;&#x9;&lt;/span&gt;RightTappedRoutedEventArgs) : void" style="text;strokeColor=none;fillColor=none;align=left;verticalAlign=top;spacingLeft=4;spacingRight=4;overflow=hidden;rotatable=0;points=[[0,0.5],[1,0.5]];portConstraint=eastwest;whiteSpace=wrap;html=1;" parent="Po691sqLh6FFDHQEsvfW-5" vertex="1">
          <mxGeometry y="278" width="310" height="34" as="geometry" />
        </mxCell>
        <mxCell id="9z7UOwSRRRG4p6ZKaWH4-66" value="-&amp;nbsp;TextBox_TextChanged(object,&lt;br&gt;&lt;span style=&quot;white-space: pre;&quot;&gt;&#x9;&lt;/span&gt;TextChangedEventArgs) : void" style="text;strokeColor=none;fillColor=none;align=left;verticalAlign=top;spacingLeft=4;spacingRight=4;overflow=hidden;rotatable=0;points=[[0,0.5],[1,0.5]];portConstraint=eastwest;whiteSpace=wrap;html=1;" parent="Po691sqLh6FFDHQEsvfW-5" vertex="1">
          <mxGeometry y="312" width="310" height="38" as="geometry" />
        </mxCell>
        <mxCell id="Po691sqLh6FFDHQEsvfW-9" value="App" style="swimlane;fontStyle=1;align=center;verticalAlign=top;childLayout=stackLayout;horizontal=1;startSize=26;horizontalStack=0;resizeParent=1;resizeParentMax=0;resizeLast=0;collapsible=1;marginBottom=0;whiteSpace=wrap;html=1;" parent="1" vertex="1">
          <mxGeometry x="-760" y="1994" width="350" height="104" as="geometry" />
        </mxCell>
        <mxCell id="9z7UOwSRRRG4p6ZKaWH4-4" value="# OnLaunched(LaunchActivatedEventArgs) : void" style="text;strokeColor=none;fillColor=none;align=left;verticalAlign=top;spacingLeft=4;spacingRight=4;overflow=hidden;rotatable=0;points=[[0,0.5],[1,0.5]];portConstraint=eastwest;whiteSpace=wrap;html=1;" parent="Po691sqLh6FFDHQEsvfW-9" vertex="1">
          <mxGeometry y="26" width="350" height="26" as="geometry" />
        </mxCell>
        <mxCell id="9z7UOwSRRRG4p6ZKaWH4-5" value="- OnNavigationFailed(object,&amp;nbsp;NavigationFailedEventArgs) : void" style="text;strokeColor=none;fillColor=none;align=left;verticalAlign=top;spacingLeft=4;spacingRight=4;overflow=hidden;rotatable=0;points=[[0,0.5],[1,0.5]];portConstraint=eastwest;whiteSpace=wrap;html=1;" parent="Po691sqLh6FFDHQEsvfW-9" vertex="1">
          <mxGeometry y="52" width="350" height="26" as="geometry" />
        </mxCell>
        <mxCell id="Po691sqLh6FFDHQEsvfW-12" value="- OnSuspending(object, SuspendingEventArgs) : void" style="text;strokeColor=none;fillColor=none;align=left;verticalAlign=top;spacingLeft=4;spacingRight=4;overflow=hidden;rotatable=0;points=[[0,0.5],[1,0.5]];portConstraint=eastwest;whiteSpace=wrap;html=1;" parent="Po691sqLh6FFDHQEsvfW-9" vertex="1">
          <mxGeometry y="78" width="350" height="26" as="geometry" />
        </mxCell>
        <mxCell id="Po691sqLh6FFDHQEsvfW-13" value="DashboardPage" style="swimlane;fontStyle=1;align=center;verticalAlign=top;childLayout=stackLayout;horizontal=1;startSize=26;horizontalStack=0;resizeParent=1;resizeParentMax=0;resizeLast=0;collapsible=1;marginBottom=0;whiteSpace=wrap;html=1;" parent="1" vertex="1">
          <mxGeometry x="120" y="1606" width="260" height="197" as="geometry" />
        </mxCell>
        <mxCell id="9z7UOwSRRRG4p6ZKaWH4-27" value="- sources: List&amp;lt;Source&amp;gt;" style="text;strokeColor=none;fillColor=none;align=left;verticalAlign=top;spacingLeft=4;spacingRight=4;overflow=hidden;rotatable=0;points=[[0,0.5],[1,0.5]];portConstraint=eastwest;whiteSpace=wrap;html=1;" parent="Po691sqLh6FFDHQEsvfW-13" vertex="1">
          <mxGeometry y="26" width="260" height="26" as="geometry" />
        </mxCell>
        <mxCell id="Po691sqLh6FFDHQEsvfW-14" value="- sourceViewModel: SourceViewModel" style="text;strokeColor=none;fillColor=none;align=left;verticalAlign=top;spacingLeft=4;spacingRight=4;overflow=hidden;rotatable=0;points=[[0,0.5],[1,0.5]];portConstraint=eastwest;whiteSpace=wrap;html=1;" parent="Po691sqLh6FFDHQEsvfW-13" vertex="1">
          <mxGeometry y="52" width="260" height="26" as="geometry" />
        </mxCell>
        <mxCell id="Po691sqLh6FFDHQEsvfW-15" value="" style="line;strokeWidth=1;fillColor=none;align=left;verticalAlign=middle;spacingTop=-1;spacingLeft=3;spacingRight=3;rotatable=0;labelPosition=right;points=[];portConstraint=eastwest;strokeColor=inherit;" parent="Po691sqLh6FFDHQEsvfW-13" vertex="1">
          <mxGeometry y="78" width="260" height="8" as="geometry" />
        </mxCell>
        <mxCell id="9z7UOwSRRRG4p6ZKaWH4-28" value="#&amp;nbsp;OnNavigatedTo(NavigationEventArgs) : void" style="text;strokeColor=none;fillColor=none;align=left;verticalAlign=top;spacingLeft=4;spacingRight=4;overflow=hidden;rotatable=0;points=[[0,0.5],[1,0.5]];portConstraint=eastwest;whiteSpace=wrap;html=1;" parent="Po691sqLh6FFDHQEsvfW-13" vertex="1">
          <mxGeometry y="86" width="260" height="26" as="geometry" />
        </mxCell>
        <mxCell id="Po691sqLh6FFDHQEsvfW-16" value="- loadSources() : Task" style="text;strokeColor=none;fillColor=none;align=left;verticalAlign=top;spacingLeft=4;spacingRight=4;overflow=hidden;rotatable=0;points=[[0,0.5],[1,0.5]];portConstraint=eastwest;whiteSpace=wrap;html=1;" parent="Po691sqLh6FFDHQEsvfW-13" vertex="1">
          <mxGeometry y="112" width="260" height="26" as="geometry" />
        </mxCell>
        <mxCell id="9z7UOwSRRRG4p6ZKaWH4-29" value="-&amp;nbsp;sharedSourcesListBox_SelectionChanged(object, &lt;br&gt;&lt;span style=&quot;white-space: pre;&quot;&gt;&#x9;&lt;/span&gt;SelectionChangedEventArgs) : void" style="text;strokeColor=none;fillColor=none;align=left;verticalAlign=top;spacingLeft=4;spacingRight=4;overflow=hidden;rotatable=0;points=[[0,0.5],[1,0.5]];portConstraint=eastwest;whiteSpace=wrap;html=1;" parent="Po691sqLh6FFDHQEsvfW-13" vertex="1">
          <mxGeometry y="138" width="260" height="33" as="geometry" />
        </mxCell>
        <mxCell id="9z7UOwSRRRG4p6ZKaWH4-30" value="- Button_Click(object, RoutedEventArgs) : void" style="text;strokeColor=none;fillColor=none;align=left;verticalAlign=top;spacingLeft=4;spacingRight=4;overflow=hidden;rotatable=0;points=[[0,0.5],[1,0.5]];portConstraint=eastwest;whiteSpace=wrap;html=1;" parent="Po691sqLh6FFDHQEsvfW-13" vertex="1">
          <mxGeometry y="171" width="260" height="26" as="geometry" />
        </mxCell>
        <mxCell id="Po691sqLh6FFDHQEsvfW-21" value="MainPage" style="swimlane;fontStyle=1;align=center;verticalAlign=top;childLayout=stackLayout;horizontal=1;startSize=26;horizontalStack=0;resizeParent=1;resizeParentMax=0;resizeLast=0;collapsible=1;marginBottom=0;whiteSpace=wrap;html=1;" parent="1" vertex="1">
          <mxGeometry x="-360" y="1880" width="350" height="85" as="geometry" />
        </mxCell>
        <mxCell id="Po691sqLh6FFDHQEsvfW-24" value="-&amp;nbsp;navigationView_SelectionChanged(NavigationView,&amp;nbsp;&lt;br&gt;&lt;span style=&quot;white-space: pre;&quot;&gt;&#x9;&lt;/span&gt;NavigationViewSelectionChangedEventArgs) : void" style="text;strokeColor=none;fillColor=none;align=left;verticalAlign=top;spacingLeft=4;spacingRight=4;overflow=hidden;rotatable=0;points=[[0,0.5],[1,0.5]];portConstraint=eastwest;whiteSpace=wrap;html=1;" parent="Po691sqLh6FFDHQEsvfW-21" vertex="1">
          <mxGeometry y="26" width="350" height="33" as="geometry" />
        </mxCell>
        <mxCell id="9z7UOwSRRRG4p6ZKaWH4-24" value="- contentFrame_Navigated(object, NavigationEventArgs) : void" style="text;strokeColor=none;fillColor=none;align=left;verticalAlign=top;spacingLeft=4;spacingRight=4;overflow=hidden;rotatable=0;points=[[0,0.5],[1,0.5]];portConstraint=eastwest;whiteSpace=wrap;html=1;" parent="Po691sqLh6FFDHQEsvfW-21" vertex="1">
          <mxGeometry y="59" width="350" height="26" as="geometry" />
        </mxCell>
        <mxCell id="Po691sqLh6FFDHQEsvfW-29" value="NotesPage" style="swimlane;fontStyle=1;align=center;verticalAlign=top;childLayout=stackLayout;horizontal=1;startSize=26;horizontalStack=0;resizeParent=1;resizeParentMax=0;resizeLast=0;collapsible=1;marginBottom=0;whiteSpace=wrap;html=1;" parent="1" vertex="1">
          <mxGeometry x="585" y="1610" width="230" height="576" as="geometry" />
        </mxCell>
        <mxCell id="Po691sqLh6FFDHQEsvfW-30" value="- PdfDocument: pdfDocument" style="text;strokeColor=none;fillColor=none;align=left;verticalAlign=top;spacingLeft=4;spacingRight=4;overflow=hidden;rotatable=0;points=[[0,0.5],[1,0.5]];portConstraint=eastwest;whiteSpace=wrap;html=1;" parent="Po691sqLh6FFDHQEsvfW-29" vertex="1">
          <mxGeometry y="26" width="230" height="26" as="geometry" />
        </mxCell>
        <mxCell id="9z7UOwSRRRG4p6ZKaWH4-68" value="- notesViewModel: NotesViewModel" style="text;strokeColor=none;fillColor=none;align=left;verticalAlign=top;spacingLeft=4;spacingRight=4;overflow=hidden;rotatable=0;points=[[0,0.5],[1,0.5]];portConstraint=eastwest;whiteSpace=wrap;html=1;" parent="Po691sqLh6FFDHQEsvfW-29" vertex="1">
          <mxGeometry y="52" width="230" height="26" as="geometry" />
        </mxCell>
        <mxCell id="9z7UOwSRRRG4p6ZKaWH4-69" value="- sourceViewModel: SourceViewModel" style="text;strokeColor=none;fillColor=none;align=left;verticalAlign=top;spacingLeft=4;spacingRight=4;overflow=hidden;rotatable=0;points=[[0,0.5],[1,0.5]];portConstraint=eastwest;whiteSpace=wrap;html=1;" parent="Po691sqLh6FFDHQEsvfW-29" vertex="1">
          <mxGeometry y="78" width="230" height="26" as="geometry" />
        </mxCell>
        <mxCell id="Po691sqLh6FFDHQEsvfW-31" value="" style="line;strokeWidth=1;fillColor=none;align=left;verticalAlign=middle;spacingTop=-1;spacingLeft=3;spacingRight=3;rotatable=0;labelPosition=right;points=[];portConstraint=eastwest;strokeColor=inherit;" parent="Po691sqLh6FFDHQEsvfW-29" vertex="1">
          <mxGeometry y="104" width="230" height="8" as="geometry" />
        </mxCell>
        <mxCell id="Po691sqLh6FFDHQEsvfW-32" value="# OnNavigatedTo(NavigationEventArgs)&lt;br&gt;&lt;span style=&quot;white-space: pre;&quot;&gt;&#x9;&lt;/span&gt;&amp;nbsp;: void" style="text;strokeColor=none;fillColor=none;align=left;verticalAlign=top;spacingLeft=4;spacingRight=4;overflow=hidden;rotatable=0;points=[[0,0.5],[1,0.5]];portConstraint=eastwest;whiteSpace=wrap;html=1;" parent="Po691sqLh6FFDHQEsvfW-29" vertex="1">
          <mxGeometry y="112" width="230" height="38" as="geometry" />
        </mxCell>
        <mxCell id="9z7UOwSRRRG4p6ZKaWH4-73" value="- setSource() : void" style="text;strokeColor=none;fillColor=none;align=left;verticalAlign=top;spacingLeft=4;spacingRight=4;overflow=hidden;rotatable=0;points=[[0,0.5],[1,0.5]];portConstraint=eastwest;whiteSpace=wrap;html=1;" parent="Po691sqLh6FFDHQEsvfW-29" vertex="1">
          <mxGeometry y="150" width="230" height="28" as="geometry" />
        </mxCell>
        <mxCell id="9z7UOwSRRRG4p6ZKaWH4-72" value="-&amp;nbsp;SetMediaSourceFromFile(StorageFile)&lt;br&gt;&lt;span style=&quot;white-space: pre;&quot;&gt;&#x9;&lt;/span&gt;: void" style="text;strokeColor=none;fillColor=none;align=left;verticalAlign=top;spacingLeft=4;spacingRight=4;overflow=hidden;rotatable=0;points=[[0,0.5],[1,0.5]];portConstraint=eastwest;whiteSpace=wrap;html=1;" parent="Po691sqLh6FFDHQEsvfW-29" vertex="1">
          <mxGeometry y="178" width="230" height="38" as="geometry" />
        </mxCell>
        <mxCell id="9z7UOwSRRRG4p6ZKaWH4-74" value="- LoadNotes() : void" style="text;strokeColor=none;fillColor=none;align=left;verticalAlign=top;spacingLeft=4;spacingRight=4;overflow=hidden;rotatable=0;points=[[0,0.5],[1,0.5]];portConstraint=eastwest;whiteSpace=wrap;html=1;" parent="Po691sqLh6FFDHQEsvfW-29" vertex="1">
          <mxGeometry y="216" width="230" height="28" as="geometry" />
        </mxCell>
        <mxCell id="9z7UOwSRRRG4p6ZKaWH4-77" value="-&amp;nbsp;GatherDocument(IStorageFile)&lt;br&gt;&lt;span style=&quot;white-space: pre;&quot;&gt;&#x9;&lt;/span&gt;: void" style="text;strokeColor=none;fillColor=none;align=left;verticalAlign=top;spacingLeft=4;spacingRight=4;overflow=hidden;rotatable=0;points=[[0,0.5],[1,0.5]];portConstraint=eastwest;whiteSpace=wrap;html=1;" parent="Po691sqLh6FFDHQEsvfW-29" vertex="1">
          <mxGeometry y="244" width="230" height="38" as="geometry" />
        </mxCell>
        <mxCell id="9z7UOwSRRRG4p6ZKaWH4-76" value="- UpdatePage() : void" style="text;strokeColor=none;fillColor=none;align=left;verticalAlign=top;spacingLeft=4;spacingRight=4;overflow=hidden;rotatable=0;points=[[0,0.5],[1,0.5]];portConstraint=eastwest;whiteSpace=wrap;html=1;" parent="Po691sqLh6FFDHQEsvfW-29" vertex="1">
          <mxGeometry y="282" width="230" height="28" as="geometry" />
        </mxCell>
        <mxCell id="9z7UOwSRRRG4p6ZKaWH4-79" value="-&amp;nbsp;PreviousPage_Click(object,&amp;nbsp; &lt;span style=&quot;white-space: pre;&quot;&gt;&#x9;&lt;/span&gt;RoutedEventArgs) : void" style="text;strokeColor=none;fillColor=none;align=left;verticalAlign=top;spacingLeft=4;spacingRight=4;overflow=hidden;rotatable=0;points=[[0,0.5],[1,0.5]];portConstraint=eastwest;whiteSpace=wrap;html=1;" parent="Po691sqLh6FFDHQEsvfW-29" vertex="1">
          <mxGeometry y="310" width="230" height="38" as="geometry" />
        </mxCell>
        <mxCell id="9z7UOwSRRRG4p6ZKaWH4-80" value="- NextPage_Click(object,&amp;nbsp;&amp;nbsp;&#x9;&lt;span style=&quot;white-space: pre;&quot;&gt;&#x9;&lt;/span&gt;RoutedEventArgs) : void" style="text;strokeColor=none;fillColor=none;align=left;verticalAlign=top;spacingLeft=4;spacingRight=4;overflow=hidden;rotatable=0;points=[[0,0.5],[1,0.5]];portConstraint=eastwest;whiteSpace=wrap;html=1;" parent="Po691sqLh6FFDHQEsvfW-29" vertex="1">
          <mxGeometry y="348" width="230" height="38" as="geometry" />
        </mxCell>
        <mxCell id="9z7UOwSRRRG4p6ZKaWH4-81" value="-&amp;nbsp;notesListBox_RightTapped(object,&amp;nbsp;&amp;nbsp;&#x9;&lt;span style=&quot;white-space: pre;&quot;&gt;&#x9;&lt;/span&gt;RoutedEventArgs) : void&lt;span style=&quot;white-space: pre;&quot;&gt;&#x9;&lt;/span&gt;" style="text;strokeColor=none;fillColor=none;align=left;verticalAlign=top;spacingLeft=4;spacingRight=4;overflow=hidden;rotatable=0;points=[[0,0.5],[1,0.5]];portConstraint=eastwest;whiteSpace=wrap;html=1;" parent="Po691sqLh6FFDHQEsvfW-29" vertex="1">
          <mxGeometry y="386" width="230" height="38" as="geometry" />
        </mxCell>
        <mxCell id="9z7UOwSRRRG4p6ZKaWH4-82" value="&#x9;-&amp;nbsp;AddNoteItem_Click(object,&amp;nbsp; &lt;span style=&quot;white-space: pre;&quot;&gt;&#x9;&lt;/span&gt;RoutedEventArgs) : void" style="text;strokeColor=none;fillColor=none;align=left;verticalAlign=top;spacingLeft=4;spacingRight=4;overflow=hidden;rotatable=0;points=[[0,0.5],[1,0.5]];portConstraint=eastwest;whiteSpace=wrap;html=1;" parent="Po691sqLh6FFDHQEsvfW-29" vertex="1">
          <mxGeometry y="424" width="230" height="38" as="geometry" />
        </mxCell>
        <mxCell id="9z7UOwSRRRG4p6ZKaWH4-78" value="-&amp;nbsp;RemoveNoteItem_Click(object,&amp;nbsp; &lt;span style=&quot;white-space: pre;&quot;&gt;&#x9;&lt;/span&gt;RoutedEventArgs) : void" style="text;strokeColor=none;fillColor=none;align=left;verticalAlign=top;spacingLeft=4;spacingRight=4;overflow=hidden;rotatable=0;points=[[0,0.5],[1,0.5]];portConstraint=eastwest;whiteSpace=wrap;html=1;" parent="Po691sqLh6FFDHQEsvfW-29" vertex="1">
          <mxGeometry y="462" width="230" height="38" as="geometry" />
        </mxCell>
        <mxCell id="9z7UOwSRRRG4p6ZKaWH4-84" value="-&amp;nbsp;TextBox_LostFocus(object,&amp;nbsp; &lt;span style=&quot;white-space: pre;&quot;&gt;&#x9;&lt;/span&gt;RoutedEventArgs) : void" style="text;strokeColor=none;fillColor=none;align=left;verticalAlign=top;spacingLeft=4;spacingRight=4;overflow=hidden;rotatable=0;points=[[0,0.5],[1,0.5]];portConstraint=eastwest;whiteSpace=wrap;html=1;" parent="Po691sqLh6FFDHQEsvfW-29" vertex="1">
          <mxGeometry y="500" width="230" height="38" as="geometry" />
        </mxCell>
        <mxCell id="9z7UOwSRRRG4p6ZKaWH4-85" value="-&amp;nbsp;TextBox_GotFocus(object,&amp;nbsp;&amp;nbsp;&lt;br&gt;&lt;span style=&quot;white-space: pre;&quot;&gt;&#x9;&lt;/span&gt;RoutedEventArgs) : void" style="text;strokeColor=none;fillColor=none;align=left;verticalAlign=top;spacingLeft=4;spacingRight=4;overflow=hidden;rotatable=0;points=[[0,0.5],[1,0.5]];portConstraint=eastwest;whiteSpace=wrap;html=1;" parent="Po691sqLh6FFDHQEsvfW-29" vertex="1">
          <mxGeometry y="538" width="230" height="38" as="geometry" />
        </mxCell>
        <mxCell id="Po691sqLh6FFDHQEsvfW-33" value="SettingsPage" style="swimlane;fontStyle=1;align=center;verticalAlign=top;childLayout=stackLayout;horizontal=1;startSize=26;horizontalStack=0;resizeParent=1;resizeParentMax=0;resizeLast=0;collapsible=1;marginBottom=0;whiteSpace=wrap;html=1;" parent="1" vertex="1">
          <mxGeometry x="-140" y="1674" width="180" height="52" as="geometry" />
        </mxCell>
        <mxCell id="Po691sqLh6FFDHQEsvfW-34" value="- viewModel:&amp;nbsp;UserViewModel" style="text;strokeColor=none;fillColor=none;align=left;verticalAlign=top;spacingLeft=4;spacingRight=4;overflow=hidden;rotatable=0;points=[[0,0.5],[1,0.5]];portConstraint=eastwest;whiteSpace=wrap;html=1;" parent="Po691sqLh6FFDHQEsvfW-33" vertex="1">
          <mxGeometry y="26" width="180" height="26" as="geometry" />
        </mxCell>
        <mxCell id="Po691sqLh6FFDHQEsvfW-41" value="SignUpPage" style="swimlane;fontStyle=1;align=center;verticalAlign=top;childLayout=stackLayout;horizontal=1;startSize=26;horizontalStack=0;resizeParent=1;resizeParentMax=0;resizeLast=0;collapsible=1;marginBottom=0;whiteSpace=wrap;html=1;" parent="1" vertex="1">
          <mxGeometry x="-831" y="1681" width="300" height="242" as="geometry" />
        </mxCell>
        <mxCell id="9z7UOwSRRRG4p6ZKaWH4-6" value="- viewModel:&amp;nbsp;UserViewModel" style="text;strokeColor=none;fillColor=none;align=left;verticalAlign=top;spacingLeft=4;spacingRight=4;overflow=hidden;rotatable=0;points=[[0,0.5],[1,0.5]];portConstraint=eastwest;whiteSpace=wrap;html=1;" parent="Po691sqLh6FFDHQEsvfW-41" vertex="1">
          <mxGeometry y="26" width="300" height="26" as="geometry" />
        </mxCell>
        <mxCell id="9z7UOwSRRRG4p6ZKaWH4-7" value="+ Username: string" style="text;strokeColor=none;fillColor=none;align=left;verticalAlign=top;spacingLeft=4;spacingRight=4;overflow=hidden;rotatable=0;points=[[0,0.5],[1,0.5]];portConstraint=eastwest;whiteSpace=wrap;html=1;" parent="Po691sqLh6FFDHQEsvfW-41" vertex="1">
          <mxGeometry y="52" width="300" height="26" as="geometry" />
        </mxCell>
        <mxCell id="9z7UOwSRRRG4p6ZKaWH4-8" value="+ Password: string" style="text;strokeColor=none;fillColor=none;align=left;verticalAlign=top;spacingLeft=4;spacingRight=4;overflow=hidden;rotatable=0;points=[[0,0.5],[1,0.5]];portConstraint=eastwest;whiteSpace=wrap;html=1;" parent="Po691sqLh6FFDHQEsvfW-41" vertex="1">
          <mxGeometry y="78" width="300" height="26" as="geometry" />
        </mxCell>
        <mxCell id="Po691sqLh6FFDHQEsvfW-42" value="+ ConfirmPassword: string" style="text;strokeColor=none;fillColor=none;align=left;verticalAlign=top;spacingLeft=4;spacingRight=4;overflow=hidden;rotatable=0;points=[[0,0.5],[1,0.5]];portConstraint=eastwest;whiteSpace=wrap;html=1;" parent="Po691sqLh6FFDHQEsvfW-41" vertex="1">
          <mxGeometry y="104" width="300" height="26" as="geometry" />
        </mxCell>
        <mxCell id="Po691sqLh6FFDHQEsvfW-43" value="" style="line;strokeWidth=1;fillColor=none;align=left;verticalAlign=middle;spacingTop=-1;spacingLeft=3;spacingRight=3;rotatable=0;labelPosition=right;points=[];portConstraint=eastwest;strokeColor=inherit;" parent="Po691sqLh6FFDHQEsvfW-41" vertex="1">
          <mxGeometry y="130" width="300" height="8" as="geometry" />
        </mxCell>
        <mxCell id="9z7UOwSRRRG4p6ZKaWH4-21" value="-&amp;nbsp;signUpButton_Click(object, RoutedEventArgs) : void" style="text;strokeColor=none;fillColor=none;align=left;verticalAlign=top;spacingLeft=4;spacingRight=4;overflow=hidden;rotatable=0;points=[[0,0.5],[1,0.5]];portConstraint=eastwest;whiteSpace=wrap;html=1;" parent="Po691sqLh6FFDHQEsvfW-41" vertex="1">
          <mxGeometry y="138" width="300" height="26" as="geometry" />
        </mxCell>
        <mxCell id="9z7UOwSRRRG4p6ZKaWH4-9" value="-&amp;nbsp;CheckConfirmationPassword() : bool" style="text;strokeColor=none;fillColor=none;align=left;verticalAlign=top;spacingLeft=4;spacingRight=4;overflow=hidden;rotatable=0;points=[[0,0.5],[1,0.5]];portConstraint=eastwest;whiteSpace=wrap;html=1;" parent="Po691sqLh6FFDHQEsvfW-41" vertex="1">
          <mxGeometry y="164" width="300" height="26" as="geometry" />
        </mxCell>
        <mxCell id="9z7UOwSRRRG4p6ZKaWH4-10" value="- blankCheck() : bool" style="text;strokeColor=none;fillColor=none;align=left;verticalAlign=top;spacingLeft=4;spacingRight=4;overflow=hidden;rotatable=0;points=[[0,0.5],[1,0.5]];portConstraint=eastwest;whiteSpace=wrap;html=1;" parent="Po691sqLh6FFDHQEsvfW-41" vertex="1">
          <mxGeometry y="190" width="300" height="26" as="geometry" />
        </mxCell>
        <mxCell id="Po691sqLh6FFDHQEsvfW-44" value="- loginButton_Click(object, RoutedEventArgs) : void" style="text;strokeColor=none;fillColor=none;align=left;verticalAlign=top;spacingLeft=4;spacingRight=4;overflow=hidden;rotatable=0;points=[[0,0.5],[1,0.5]];portConstraint=eastwest;whiteSpace=wrap;html=1;" parent="Po691sqLh6FFDHQEsvfW-41" vertex="1">
          <mxGeometry y="216" width="300" height="26" as="geometry" />
        </mxCell>
        <mxCell id="Po691sqLh6FFDHQEsvfW-46" value="" style="endArrow=open;endFill=1;endSize=12;html=1;rounded=0;edgeStyle=orthogonalEdgeStyle;" parent="1" source="Po691sqLh6FFDHQEsvfW-9" target="9z7UOwSRRRG4p6ZKaWH4-11" edge="1">
          <mxGeometry width="160" relative="1" as="geometry">
            <mxPoint x="-461" y="2101" as="sourcePoint" />
            <mxPoint x="-311" y="1806.9999999999998" as="targetPoint" />
            <Array as="points">
              <mxPoint x="-480" y="1929" />
              <mxPoint x="-430" y="1929" />
            </Array>
          </mxGeometry>
        </mxCell>
        <mxCell id="Po691sqLh6FFDHQEsvfW-47" value="" style="endArrow=open;endFill=1;endSize=12;html=1;rounded=0;edgeStyle=orthogonalEdgeStyle;" parent="1" source="9z7UOwSRRRG4p6ZKaWH4-11" target="Po691sqLh6FFDHQEsvfW-41" edge="1">
          <mxGeometry width="160" relative="1" as="geometry">
            <mxPoint x="-391" y="1764" as="sourcePoint" />
            <mxPoint x="-381" y="1991" as="targetPoint" />
          </mxGeometry>
        </mxCell>
        <mxCell id="8cHoMGr0drlkwmMssbQZ-4" value="" style="endArrow=diamondThin;endFill=1;endSize=24;html=1;rounded=0;startArrow=open;startFill=0;startSize=12;edgeStyle=orthogonalEdgeStyle;" parent="1" source="syg9Fnx4agqtEhosEdGa-13" target="9z7UOwSRRRG4p6ZKaWH4-11" edge="1">
          <mxGeometry width="160" relative="1" as="geometry">
            <mxPoint x="14" y="1628" as="sourcePoint" />
            <mxPoint x="-380" y="1747" as="targetPoint" />
          </mxGeometry>
        </mxCell>
        <mxCell id="9z7UOwSRRRG4p6ZKaWH4-50" value="1" style="edgeLabel;html=1;align=center;verticalAlign=middle;resizable=0;points=[];" parent="8cHoMGr0drlkwmMssbQZ-4" vertex="1" connectable="0">
          <mxGeometry x="0.7166" y="-1" relative="1" as="geometry">
            <mxPoint x="12" as="offset" />
          </mxGeometry>
        </mxCell>
        <mxCell id="9z7UOwSRRRG4p6ZKaWH4-1" value="" style="endArrow=diamondThin;endFill=1;endSize=24;html=1;rounded=0;startArrow=open;startFill=0;startSize=12;edgeStyle=orthogonalEdgeStyle;" parent="1" source="syg9Fnx4agqtEhosEdGa-13" target="Po691sqLh6FFDHQEsvfW-41" edge="1">
          <mxGeometry width="160" relative="1" as="geometry">
            <mxPoint x="-383" y="1628" as="sourcePoint" />
            <mxPoint x="-317" y="1797" as="targetPoint" />
            <Array as="points">
              <mxPoint x="-435" y="1627" />
              <mxPoint x="-681" y="1627" />
            </Array>
          </mxGeometry>
        </mxCell>
        <mxCell id="9z7UOwSRRRG4p6ZKaWH4-51" value="1" style="edgeLabel;html=1;align=center;verticalAlign=middle;resizable=0;points=[];" parent="9z7UOwSRRRG4p6ZKaWH4-1" vertex="1" connectable="0">
          <mxGeometry x="0.8398" y="1" relative="1" as="geometry">
            <mxPoint x="10" as="offset" />
          </mxGeometry>
        </mxCell>
        <mxCell id="9z7UOwSRRRG4p6ZKaWH4-11" value="LoginPage" style="swimlane;fontStyle=1;align=center;verticalAlign=top;childLayout=stackLayout;horizontal=1;startSize=26;horizontalStack=0;resizeParent=1;resizeParentMax=0;resizeLast=0;collapsible=1;marginBottom=0;whiteSpace=wrap;html=1;" parent="1" vertex="1">
          <mxGeometry x="-461" y="1674" width="300" height="190" as="geometry" />
        </mxCell>
        <mxCell id="9z7UOwSRRRG4p6ZKaWH4-12" value="- viewModel:&amp;nbsp;UserViewModel" style="text;strokeColor=none;fillColor=none;align=left;verticalAlign=top;spacingLeft=4;spacingRight=4;overflow=hidden;rotatable=0;points=[[0,0.5],[1,0.5]];portConstraint=eastwest;whiteSpace=wrap;html=1;" parent="9z7UOwSRRRG4p6ZKaWH4-11" vertex="1">
          <mxGeometry y="26" width="300" height="26" as="geometry" />
        </mxCell>
        <mxCell id="9z7UOwSRRRG4p6ZKaWH4-13" value="+ Username: string" style="text;strokeColor=none;fillColor=none;align=left;verticalAlign=top;spacingLeft=4;spacingRight=4;overflow=hidden;rotatable=0;points=[[0,0.5],[1,0.5]];portConstraint=eastwest;whiteSpace=wrap;html=1;" parent="9z7UOwSRRRG4p6ZKaWH4-11" vertex="1">
          <mxGeometry y="52" width="300" height="26" as="geometry" />
        </mxCell>
        <mxCell id="9z7UOwSRRRG4p6ZKaWH4-14" value="+ Password: string" style="text;strokeColor=none;fillColor=none;align=left;verticalAlign=top;spacingLeft=4;spacingRight=4;overflow=hidden;rotatable=0;points=[[0,0.5],[1,0.5]];portConstraint=eastwest;whiteSpace=wrap;html=1;" parent="9z7UOwSRRRG4p6ZKaWH4-11" vertex="1">
          <mxGeometry y="78" width="300" height="26" as="geometry" />
        </mxCell>
        <mxCell id="9z7UOwSRRRG4p6ZKaWH4-16" value="" style="line;strokeWidth=1;fillColor=none;align=left;verticalAlign=middle;spacingTop=-1;spacingLeft=3;spacingRight=3;rotatable=0;labelPosition=right;points=[];portConstraint=eastwest;strokeColor=inherit;" parent="9z7UOwSRRRG4p6ZKaWH4-11" vertex="1">
          <mxGeometry y="104" width="300" height="8" as="geometry" />
        </mxCell>
        <mxCell id="9z7UOwSRRRG4p6ZKaWH4-17" value="-&amp;nbsp;LoginButton_Click(object, RoutedEventArgs) : void" style="text;strokeColor=none;fillColor=none;align=left;verticalAlign=top;spacingLeft=4;spacingRight=4;overflow=hidden;rotatable=0;points=[[0,0.5],[1,0.5]];portConstraint=eastwest;whiteSpace=wrap;html=1;" parent="9z7UOwSRRRG4p6ZKaWH4-11" vertex="1">
          <mxGeometry y="112" width="300" height="26" as="geometry" />
        </mxCell>
        <mxCell id="9z7UOwSRRRG4p6ZKaWH4-18" value="- blankCheck : bool" style="text;strokeColor=none;fillColor=none;align=left;verticalAlign=top;spacingLeft=4;spacingRight=4;overflow=hidden;rotatable=0;points=[[0,0.5],[1,0.5]];portConstraint=eastwest;whiteSpace=wrap;html=1;" parent="9z7UOwSRRRG4p6ZKaWH4-11" vertex="1">
          <mxGeometry y="138" width="300" height="26" as="geometry" />
        </mxCell>
        <mxCell id="9z7UOwSRRRG4p6ZKaWH4-19" value="- createButton_Click(object, RoutedEventArgs) : void" style="text;strokeColor=none;fillColor=none;align=left;verticalAlign=top;spacingLeft=4;spacingRight=4;overflow=hidden;rotatable=0;points=[[0,0.5],[1,0.5]];portConstraint=eastwest;whiteSpace=wrap;html=1;" parent="9z7UOwSRRRG4p6ZKaWH4-11" vertex="1">
          <mxGeometry y="164" width="300" height="26" as="geometry" />
        </mxCell>
        <mxCell id="9z7UOwSRRRG4p6ZKaWH4-22" value="" style="endArrow=diamondThin;endFill=1;endSize=24;html=1;rounded=0;startArrow=open;startFill=0;startSize=12;edgeStyle=orthogonalEdgeStyle;" parent="1" source="syg9Fnx4agqtEhosEdGa-13" target="Po691sqLh6FFDHQEsvfW-33" edge="1">
          <mxGeometry width="160" relative="1" as="geometry">
            <mxPoint x="-425" y="1628" as="sourcePoint" />
            <mxPoint x="-390" y="1717" as="targetPoint" />
            <Array as="points">
              <mxPoint x="-435" y="1626" />
              <mxPoint x="-110" y="1626" />
            </Array>
          </mxGeometry>
        </mxCell>
        <mxCell id="9z7UOwSRRRG4p6ZKaWH4-49" value="1" style="edgeLabel;html=1;align=center;verticalAlign=middle;resizable=0;points=[];" parent="9z7UOwSRRRG4p6ZKaWH4-22" vertex="1" connectable="0">
          <mxGeometry x="0.8598" relative="1" as="geometry">
            <mxPoint x="10" y="9" as="offset" />
          </mxGeometry>
        </mxCell>
        <mxCell id="9z7UOwSRRRG4p6ZKaWH4-25" value="SharedPage" style="swimlane;fontStyle=1;align=center;verticalAlign=top;childLayout=stackLayout;horizontal=1;startSize=26;horizontalStack=0;resizeParent=1;resizeParentMax=0;resizeLast=0;collapsible=1;marginBottom=0;whiteSpace=wrap;html=1;" parent="1" vertex="1">
          <mxGeometry x="-360" y="2020" width="180" height="52" as="geometry" />
        </mxCell>
        <mxCell id="9z7UOwSRRRG4p6ZKaWH4-31" value="MySourcesPage" style="swimlane;fontStyle=1;align=center;verticalAlign=top;childLayout=stackLayout;horizontal=1;startSize=26;horizontalStack=0;resizeParent=1;resizeParentMax=0;resizeLast=0;collapsible=1;marginBottom=0;whiteSpace=wrap;html=1;" parent="1" vertex="1">
          <mxGeometry x="-60" y="1990" width="260" height="197" as="geometry" />
        </mxCell>
        <mxCell id="9z7UOwSRRRG4p6ZKaWH4-32" value="- sources: List&amp;lt;Source&amp;gt;" style="text;strokeColor=none;fillColor=none;align=left;verticalAlign=top;spacingLeft=4;spacingRight=4;overflow=hidden;rotatable=0;points=[[0,0.5],[1,0.5]];portConstraint=eastwest;whiteSpace=wrap;html=1;" parent="9z7UOwSRRRG4p6ZKaWH4-31" vertex="1">
          <mxGeometry y="26" width="260" height="26" as="geometry" />
        </mxCell>
        <mxCell id="9z7UOwSRRRG4p6ZKaWH4-33" value="- sourceViewModel: SourceViewModel" style="text;strokeColor=none;fillColor=none;align=left;verticalAlign=top;spacingLeft=4;spacingRight=4;overflow=hidden;rotatable=0;points=[[0,0.5],[1,0.5]];portConstraint=eastwest;whiteSpace=wrap;html=1;" parent="9z7UOwSRRRG4p6ZKaWH4-31" vertex="1">
          <mxGeometry y="52" width="260" height="26" as="geometry" />
        </mxCell>
        <mxCell id="9z7UOwSRRRG4p6ZKaWH4-34" value="" style="line;strokeWidth=1;fillColor=none;align=left;verticalAlign=middle;spacingTop=-1;spacingLeft=3;spacingRight=3;rotatable=0;labelPosition=right;points=[];portConstraint=eastwest;strokeColor=inherit;" parent="9z7UOwSRRRG4p6ZKaWH4-31" vertex="1">
          <mxGeometry y="78" width="260" height="8" as="geometry" />
        </mxCell>
        <mxCell id="9z7UOwSRRRG4p6ZKaWH4-35" value="#&amp;nbsp;OnNavigatedTo(NavigationEventArgs) : void" style="text;strokeColor=none;fillColor=none;align=left;verticalAlign=top;spacingLeft=4;spacingRight=4;overflow=hidden;rotatable=0;points=[[0,0.5],[1,0.5]];portConstraint=eastwest;whiteSpace=wrap;html=1;" parent="9z7UOwSRRRG4p6ZKaWH4-31" vertex="1">
          <mxGeometry y="86" width="260" height="26" as="geometry" />
        </mxCell>
        <mxCell id="9z7UOwSRRRG4p6ZKaWH4-36" value="- loadSources() : Task" style="text;strokeColor=none;fillColor=none;align=left;verticalAlign=top;spacingLeft=4;spacingRight=4;overflow=hidden;rotatable=0;points=[[0,0.5],[1,0.5]];portConstraint=eastwest;whiteSpace=wrap;html=1;" parent="9z7UOwSRRRG4p6ZKaWH4-31" vertex="1">
          <mxGeometry y="112" width="260" height="26" as="geometry" />
        </mxCell>
        <mxCell id="9z7UOwSRRRG4p6ZKaWH4-37" value="-&amp;nbsp;sharedSourcesListBox_SelectionChanged(object, &lt;br&gt;&lt;span style=&quot;white-space: pre;&quot;&gt;&#x9;&lt;/span&gt;SelectionChangedEventArgs) : void" style="text;strokeColor=none;fillColor=none;align=left;verticalAlign=top;spacingLeft=4;spacingRight=4;overflow=hidden;rotatable=0;points=[[0,0.5],[1,0.5]];portConstraint=eastwest;whiteSpace=wrap;html=1;" parent="9z7UOwSRRRG4p6ZKaWH4-31" vertex="1">
          <mxGeometry y="138" width="260" height="33" as="geometry" />
        </mxCell>
        <mxCell id="9z7UOwSRRRG4p6ZKaWH4-38" value="- Button_Click(object, RoutedEventArgs) : void" style="text;strokeColor=none;fillColor=none;align=left;verticalAlign=top;spacingLeft=4;spacingRight=4;overflow=hidden;rotatable=0;points=[[0,0.5],[1,0.5]];portConstraint=eastwest;whiteSpace=wrap;html=1;" parent="9z7UOwSRRRG4p6ZKaWH4-31" vertex="1">
          <mxGeometry y="171" width="260" height="26" as="geometry" />
        </mxCell>
        <mxCell id="9z7UOwSRRRG4p6ZKaWH4-41" value="" style="endArrow=open;endFill=1;endSize=12;html=1;rounded=0;edgeStyle=orthogonalEdgeStyle;jumpStyle=arc;jumpSize=20;" parent="1" source="Po691sqLh6FFDHQEsvfW-41" target="Po691sqLh6FFDHQEsvfW-21" edge="1">
          <mxGeometry width="160" relative="1" as="geometry">
            <mxPoint x="-270" y="1954" as="sourcePoint" />
            <mxPoint x="-110" y="1954" as="targetPoint" />
            <Array as="points">
              <mxPoint x="-390" y="1909" />
              <mxPoint x="-390" y="1947" />
            </Array>
          </mxGeometry>
        </mxCell>
        <mxCell id="9z7UOwSRRRG4p6ZKaWH4-42" value="" style="endArrow=open;endFill=1;endSize=12;html=1;rounded=0;edgeStyle=orthogonalEdgeStyle;" parent="1" source="9z7UOwSRRRG4p6ZKaWH4-11" target="Po691sqLh6FFDHQEsvfW-21" edge="1">
          <mxGeometry width="160" relative="1" as="geometry">
            <mxPoint x="-521" y="1812" as="sourcePoint" />
            <mxPoint x="-170" y="1957" as="targetPoint" />
            <Array as="points">
              <mxPoint x="-390" y="1947" />
            </Array>
          </mxGeometry>
        </mxCell>
        <mxCell id="9z7UOwSRRRG4p6ZKaWH4-43" value="" style="endArrow=open;endFill=1;endSize=12;html=1;rounded=0;edgeStyle=orthogonalEdgeStyle;" parent="1" source="Po691sqLh6FFDHQEsvfW-21" target="Po691sqLh6FFDHQEsvfW-33" edge="1">
          <mxGeometry width="160" relative="1" as="geometry">
            <mxPoint x="-511" y="1822" as="sourcePoint" />
            <mxPoint x="70" y="1874" as="targetPoint" />
            <Array as="points">
              <mxPoint x="-135" y="1842" />
              <mxPoint x="-80" y="1842" />
            </Array>
          </mxGeometry>
        </mxCell>
        <mxCell id="9z7UOwSRRRG4p6ZKaWH4-44" value="" style="endArrow=open;endFill=1;endSize=12;html=1;rounded=0;edgeStyle=orthogonalEdgeStyle;" parent="1" source="Po691sqLh6FFDHQEsvfW-21" target="9z7UOwSRRRG4p6ZKaWH4-25" edge="1">
          <mxGeometry width="160" relative="1" as="geometry">
            <mxPoint x="-501" y="1832" as="sourcePoint" />
            <mxPoint x="-150" y="1977" as="targetPoint" />
            <Array as="points">
              <mxPoint x="-280" y="1990" />
              <mxPoint x="-280" y="1990" />
            </Array>
          </mxGeometry>
        </mxCell>
        <mxCell id="9z7UOwSRRRG4p6ZKaWH4-45" value="" style="endArrow=open;endFill=1;endSize=12;html=1;rounded=0;edgeStyle=orthogonalEdgeStyle;" parent="1" source="Po691sqLh6FFDHQEsvfW-21" target="Po691sqLh6FFDHQEsvfW-13" edge="1">
          <mxGeometry width="160" relative="1" as="geometry">
            <mxPoint x="-491" y="1868" as="sourcePoint" />
            <mxPoint x="-140" y="2013" as="targetPoint" />
            <Array as="points">
              <mxPoint x="-30" y="1770" />
            </Array>
          </mxGeometry>
        </mxCell>
        <mxCell id="9z7UOwSRRRG4p6ZKaWH4-46" value="" style="endArrow=open;endFill=1;endSize=12;html=1;rounded=0;edgeStyle=orthogonalEdgeStyle;" parent="1" source="Po691sqLh6FFDHQEsvfW-21" target="9z7UOwSRRRG4p6ZKaWH4-31" edge="1">
          <mxGeometry width="160" relative="1" as="geometry">
            <mxPoint x="-481" y="1878" as="sourcePoint" />
            <mxPoint x="-130" y="2023" as="targetPoint" />
            <Array as="points">
              <mxPoint x="-110" y="2059" />
            </Array>
          </mxGeometry>
        </mxCell>
        <mxCell id="9z7UOwSRRRG4p6ZKaWH4-52" value="1" style="endArrow=open;html=1;endSize=12;startArrow=diamondThin;startSize=14;startFill=1;edgeStyle=orthogonalEdgeStyle;align=left;verticalAlign=bottom;rounded=0;jumpStyle=arc;jumpSize=20;" parent="1" source="Po691sqLh6FFDHQEsvfW-13" target="syg9Fnx4agqtEhosEdGa-5" edge="1">
          <mxGeometry x="-0.7872" relative="1" as="geometry">
            <mxPoint x="70" y="1730" as="sourcePoint" />
            <mxPoint x="230" y="1730" as="targetPoint" />
            <Array as="points">
              <mxPoint x="60" y="1680" />
            </Array>
            <mxPoint as="offset" />
          </mxGeometry>
        </mxCell>
        <mxCell id="9z7UOwSRRRG4p6ZKaWH4-53" value="1" style="endArrow=open;html=1;endSize=12;startArrow=diamondThin;startSize=14;startFill=1;edgeStyle=orthogonalEdgeStyle;align=left;verticalAlign=bottom;rounded=0;jumpStyle=arc;jumpSize=20;" parent="1" source="9z7UOwSRRRG4p6ZKaWH4-31" target="syg9Fnx4agqtEhosEdGa-5" edge="1">
          <mxGeometry x="-0.959" y="-5" relative="1" as="geometry">
            <mxPoint x="230" y="1750" as="sourcePoint" />
            <mxPoint x="70" y="1628" as="targetPoint" />
            <Array as="points">
              <mxPoint x="30" y="1920" />
              <mxPoint x="60" y="1920" />
            </Array>
            <mxPoint as="offset" />
          </mxGeometry>
        </mxCell>
        <mxCell id="9z7UOwSRRRG4p6ZKaWH4-86" value="" style="endArrow=open;endFill=1;endSize=12;html=1;rounded=0;edgeStyle=orthogonalEdgeStyle;" parent="1" source="9z7UOwSRRRG4p6ZKaWH4-31" target="Po691sqLh6FFDHQEsvfW-29" edge="1">
          <mxGeometry width="160" relative="1" as="geometry">
            <mxPoint x="-100" y="1975" as="sourcePoint" />
            <mxPoint x="-50" y="2069" as="targetPoint" />
            <Array as="points">
              <mxPoint x="290" y="2180" />
              <mxPoint x="290" y="2180" />
            </Array>
          </mxGeometry>
        </mxCell>
        <mxCell id="9z7UOwSRRRG4p6ZKaWH4-87" value="" style="endArrow=open;endFill=1;endSize=12;html=1;rounded=0;edgeStyle=orthogonalEdgeStyle;" parent="1" source="9z7UOwSRRRG4p6ZKaWH4-31" target="Po691sqLh6FFDHQEsvfW-5" edge="1">
          <mxGeometry width="160" relative="1" as="geometry">
            <mxPoint x="130" y="1910" as="sourcePoint" />
            <mxPoint x="290" y="1910" as="targetPoint" />
          </mxGeometry>
        </mxCell>
        <mxCell id="9z7UOwSRRRG4p6ZKaWH4-88" value="" style="endArrow=open;endFill=1;endSize=12;html=1;rounded=0;edgeStyle=orthogonalEdgeStyle;" parent="1" source="Po691sqLh6FFDHQEsvfW-13" target="Po691sqLh6FFDHQEsvfW-29" edge="1">
          <mxGeometry width="160" relative="1" as="geometry">
            <mxPoint x="425" y="1802.52" as="sourcePoint" />
            <mxPoint x="465" y="1708.52" as="targetPoint" />
            <Array as="points">
              <mxPoint x="530" y="1705" />
              <mxPoint x="530" y="1705" />
            </Array>
          </mxGeometry>
        </mxCell>
        <mxCell id="9z7UOwSRRRG4p6ZKaWH4-89" value="Use" style="endArrow=open;endSize=12;dashed=1;html=1;rounded=0;edgeStyle=orthogonalEdgeStyle;jumpStyle=arc;jumpSize=20;" parent="1" source="Po691sqLh6FFDHQEsvfW-5" target="syg9Fnx4agqtEhosEdGa-1" edge="1">
          <mxGeometry x="-0.8254" width="160" relative="1" as="geometry">
            <mxPoint x="390" y="1740" as="sourcePoint" />
            <mxPoint x="550" y="1740" as="targetPoint" />
            <Array as="points">
              <mxPoint x="450" y="1590" />
              <mxPoint x="700" y="1590" />
            </Array>
            <mxPoint as="offset" />
          </mxGeometry>
        </mxCell>
        <mxCell id="9z7UOwSRRRG4p6ZKaWH4-90" value="Use" style="endArrow=open;endSize=12;dashed=1;html=1;rounded=0;" parent="1" source="Po691sqLh6FFDHQEsvfW-29" target="syg9Fnx4agqtEhosEdGa-1" edge="1">
          <mxGeometry x="-0.9029" y="-10" width="160" relative="1" as="geometry">
            <mxPoint x="488" y="1827" as="sourcePoint" />
            <mxPoint x="685" y="1414" as="targetPoint" />
            <mxPoint as="offset" />
          </mxGeometry>
        </mxCell>
        <mxCell id="1abTrAAebJknkW1yemTp-1" value="TagDal" style="html=1;whiteSpace=wrap;" vertex="1" parent="1">
          <mxGeometry x="380" y="1180" width="110" height="50" as="geometry" />
        </mxCell>
        <mxCell id="1abTrAAebJknkW1yemTp-2" value="Tag" style="html=1;whiteSpace=wrap;" vertex="1" parent="1">
          <mxGeometry x="380" y="1240" width="110" height="50" as="geometry" />
        </mxCell>
        <mxCell id="1abTrAAebJknkW1yemTp-3" value="1" style="endArrow=open;html=1;endSize=12;startArrow=diamondThin;startSize=14;startFill=1;edgeStyle=orthogonalEdgeStyle;align=left;verticalAlign=bottom;rounded=0;" edge="1" parent="1" source="syg9Fnx4agqtEhosEdGa-23" target="1abTrAAebJknkW1yemTp-1">
          <mxGeometry x="-0.8769" y="10" relative="1" as="geometry">
            <mxPoint x="340" y="1382" as="sourcePoint" />
            <mxPoint x="270" y="1215" as="targetPoint" />
            <Array as="points">
              <mxPoint x="320" y="1205" />
            </Array>
            <mxPoint as="offset" />
          </mxGeometry>
        </mxCell>
        <mxCell id="1abTrAAebJknkW1yemTp-4" value="Use" style="endArrow=open;endSize=12;dashed=1;html=1;rounded=0;edgeStyle=orthogonalEdgeStyle;" edge="1" parent="1" source="syg9Fnx4agqtEhosEdGa-23" target="1abTrAAebJknkW1yemTp-2">
          <mxGeometry x="0.3426" width="160" relative="1" as="geometry">
            <mxPoint x="300" y="1382" as="sourcePoint" />
            <mxPoint x="270" y="1275" as="targetPoint" />
            <Array as="points">
              <mxPoint x="350" y="1265" />
            </Array>
            <mxPoint as="offset" />
          </mxGeometry>
        </mxCell>
      </root>
    </mxGraphModel>
  </diagram>
  <diagram id="yihIib4diKqy0Phxteau" name="Desktop.Library">
    <mxGraphModel dx="3493" dy="-55" grid="1" gridSize="10" guides="1" tooltips="1" connect="1" arrows="1" fold="1" page="1" pageScale="1" pageWidth="850" pageHeight="1100" math="0" shadow="0">
      <root>
        <mxCell id="0" />
        <mxCell id="1" parent="0" />
        <mxCell id="wvOx1rGEkxLdLzv3WGEp-1" value="Note" style="swimlane;fontStyle=0;childLayout=stackLayout;horizontal=1;startSize=26;fillColor=none;horizontalStack=0;resizeParent=1;resizeParentMax=0;resizeLast=0;collapsible=1;marginBottom=0;whiteSpace=wrap;html=1;" parent="1" vertex="1">
          <mxGeometry x="-870" y="1284" width="140" height="208" as="geometry" />
        </mxCell>
        <mxCell id="wvOx1rGEkxLdLzv3WGEp-2" value="+ NoteId: int" style="text;strokeColor=none;fillColor=none;align=left;verticalAlign=top;spacingLeft=4;spacingRight=4;overflow=hidden;rotatable=0;points=[[0,0.5],[1,0.5]];portConstraint=eastwest;whiteSpace=wrap;html=1;" parent="wvOx1rGEkxLdLzv3WGEp-1" vertex="1">
          <mxGeometry y="26" width="140" height="26" as="geometry" />
        </mxCell>
        <mxCell id="wvOx1rGEkxLdLzv3WGEp-3" value="+ SourceId: int" style="text;strokeColor=none;fillColor=none;align=left;verticalAlign=top;spacingLeft=4;spacingRight=4;overflow=hidden;rotatable=0;points=[[0,0.5],[1,0.5]];portConstraint=eastwest;whiteSpace=wrap;html=1;" parent="wvOx1rGEkxLdLzv3WGEp-1" vertex="1">
          <mxGeometry y="52" width="140" height="26" as="geometry" />
        </mxCell>
        <mxCell id="wvOx1rGEkxLdLzv3WGEp-4" value="+ Username: string" style="text;strokeColor=none;fillColor=none;align=left;verticalAlign=top;spacingLeft=4;spacingRight=4;overflow=hidden;rotatable=0;points=[[0,0.5],[1,0.5]];portConstraint=eastwest;whiteSpace=wrap;html=1;" parent="wvOx1rGEkxLdLzv3WGEp-1" vertex="1">
          <mxGeometry y="78" width="140" height="26" as="geometry" />
        </mxCell>
        <mxCell id="wvOx1rGEkxLdLzv3WGEp-5" value="+ NoteText: string" style="text;strokeColor=none;fillColor=none;align=left;verticalAlign=top;spacingLeft=4;spacingRight=4;overflow=hidden;rotatable=0;points=[[0,0.5],[1,0.5]];portConstraint=eastwest;whiteSpace=wrap;html=1;" parent="wvOx1rGEkxLdLzv3WGEp-1" vertex="1">
          <mxGeometry y="104" width="140" height="26" as="geometry" />
        </mxCell>
        <mxCell id="wvOx1rGEkxLdLzv3WGEp-6" value="+ TagsString: string" style="text;strokeColor=none;fillColor=none;align=left;verticalAlign=top;spacingLeft=4;spacingRight=4;overflow=hidden;rotatable=0;points=[[0,0.5],[1,0.5]];portConstraint=eastwest;whiteSpace=wrap;html=1;" parent="wvOx1rGEkxLdLzv3WGEp-1" vertex="1">
          <mxGeometry y="130" width="140" height="26" as="geometry" />
        </mxCell>
        <mxCell id="wvOx1rGEkxLdLzv3WGEp-7" value="+ Tags: List&amp;lt;string&amp;gt;" style="text;strokeColor=none;fillColor=none;align=left;verticalAlign=top;spacingLeft=4;spacingRight=4;overflow=hidden;rotatable=0;points=[[0,0.5],[1,0.5]];portConstraint=eastwest;whiteSpace=wrap;html=1;" parent="wvOx1rGEkxLdLzv3WGEp-1" vertex="1">
          <mxGeometry y="156" width="140" height="26" as="geometry" />
        </mxCell>
        <mxCell id="wvOx1rGEkxLdLzv3WGEp-8" value="+ NoteDate: DateTime" style="text;strokeColor=none;fillColor=none;align=left;verticalAlign=top;spacingLeft=4;spacingRight=4;overflow=hidden;rotatable=0;points=[[0,0.5],[1,0.5]];portConstraint=eastwest;whiteSpace=wrap;html=1;" parent="wvOx1rGEkxLdLzv3WGEp-1" vertex="1">
          <mxGeometry y="182" width="140" height="26" as="geometry" />
        </mxCell>
        <mxCell id="wvOx1rGEkxLdLzv3WGEp-9" value="Source" style="swimlane;fontStyle=0;childLayout=stackLayout;horizontal=1;startSize=26;fillColor=none;horizontalStack=0;resizeParent=1;resizeParentMax=0;resizeLast=0;collapsible=1;marginBottom=0;whiteSpace=wrap;html=1;" parent="1" vertex="1">
          <mxGeometry x="-1355" y="1141" width="170" height="416" as="geometry" />
        </mxCell>
        <mxCell id="wvOx1rGEkxLdLzv3WGEp-10" value="+ SourceId: int" style="text;strokeColor=none;fillColor=none;align=left;verticalAlign=top;spacingLeft=4;spacingRight=4;overflow=hidden;rotatable=0;points=[[0,0.5],[1,0.5]];portConstraint=eastwest;whiteSpace=wrap;html=1;" parent="wvOx1rGEkxLdLzv3WGEp-9" vertex="1">
          <mxGeometry y="26" width="170" height="26" as="geometry" />
        </mxCell>
        <mxCell id="wvOx1rGEkxLdLzv3WGEp-11" value="+ Username: string" style="text;strokeColor=none;fillColor=none;align=left;verticalAlign=top;spacingLeft=4;spacingRight=4;overflow=hidden;rotatable=0;points=[[0,0.5],[1,0.5]];portConstraint=eastwest;whiteSpace=wrap;html=1;" parent="wvOx1rGEkxLdLzv3WGEp-9" vertex="1">
          <mxGeometry y="52" width="170" height="26" as="geometry" />
        </mxCell>
        <mxCell id="wvOx1rGEkxLdLzv3WGEp-12" value="+ Type: string" style="text;strokeColor=none;fillColor=none;align=left;verticalAlign=top;spacingLeft=4;spacingRight=4;overflow=hidden;rotatable=0;points=[[0,0.5],[1,0.5]];portConstraint=eastwest;whiteSpace=wrap;html=1;" parent="wvOx1rGEkxLdLzv3WGEp-9" vertex="1">
          <mxGeometry y="78" width="170" height="26" as="geometry" />
        </mxCell>
        <mxCell id="wvOx1rGEkxLdLzv3WGEp-13" value="+ NoteType: SourceType" style="text;strokeColor=none;fillColor=none;align=left;verticalAlign=top;spacingLeft=4;spacingRight=4;overflow=hidden;rotatable=0;points=[[0,0.5],[1,0.5]];portConstraint=eastwest;whiteSpace=wrap;html=1;" parent="wvOx1rGEkxLdLzv3WGEp-9" vertex="1">
          <mxGeometry y="104" width="170" height="26" as="geometry" />
        </mxCell>
        <mxCell id="wvOx1rGEkxLdLzv3WGEp-14" value="+ Name: string" style="text;strokeColor=none;fillColor=none;align=left;verticalAlign=top;spacingLeft=4;spacingRight=4;overflow=hidden;rotatable=0;points=[[0,0.5],[1,0.5]];portConstraint=eastwest;whiteSpace=wrap;html=1;" parent="wvOx1rGEkxLdLzv3WGEp-9" vertex="1">
          <mxGeometry y="130" width="170" height="26" as="geometry" />
        </mxCell>
        <mxCell id="wvOx1rGEkxLdLzv3WGEp-15" value="+ Description: string" style="text;strokeColor=none;fillColor=none;align=left;verticalAlign=top;spacingLeft=4;spacingRight=4;overflow=hidden;rotatable=0;points=[[0,0.5],[1,0.5]];portConstraint=eastwest;whiteSpace=wrap;html=1;" parent="wvOx1rGEkxLdLzv3WGEp-9" vertex="1">
          <mxGeometry y="156" width="170" height="26" as="geometry" />
        </mxCell>
        <mxCell id="wvOx1rGEkxLdLzv3WGEp-16" value="+ IsLink: bool" style="text;strokeColor=none;fillColor=none;align=left;verticalAlign=top;spacingLeft=4;spacingRight=4;overflow=hidden;rotatable=0;points=[[0,0.5],[1,0.5]];portConstraint=eastwest;whiteSpace=wrap;html=1;" parent="wvOx1rGEkxLdLzv3WGEp-9" vertex="1">
          <mxGeometry y="182" width="170" height="26" as="geometry" />
        </mxCell>
        <mxCell id="wvOx1rGEkxLdLzv3WGEp-17" value="+ Link: string?" style="text;strokeColor=none;fillColor=none;align=left;verticalAlign=top;spacingLeft=4;spacingRight=4;overflow=hidden;rotatable=0;points=[[0,0.5],[1,0.5]];portConstraint=eastwest;whiteSpace=wrap;html=1;" parent="wvOx1rGEkxLdLzv3WGEp-9" vertex="1">
          <mxGeometry y="208" width="170" height="26" as="geometry" />
        </mxCell>
        <mxCell id="wvOx1rGEkxLdLzv3WGEp-18" value="+ Content: byte[]?" style="text;strokeColor=none;fillColor=none;align=left;verticalAlign=top;spacingLeft=4;spacingRight=4;overflow=hidden;rotatable=0;points=[[0,0.5],[1,0.5]];portConstraint=eastwest;whiteSpace=wrap;html=1;" parent="wvOx1rGEkxLdLzv3WGEp-9" vertex="1">
          <mxGeometry y="234" width="170" height="26" as="geometry" />
        </mxCell>
        <mxCell id="wvOx1rGEkxLdLzv3WGEp-19" value="+ CreatedAt: DateTime" style="text;strokeColor=none;fillColor=none;align=left;verticalAlign=top;spacingLeft=4;spacingRight=4;overflow=hidden;rotatable=0;points=[[0,0.5],[1,0.5]];portConstraint=eastwest;whiteSpace=wrap;html=1;" parent="wvOx1rGEkxLdLzv3WGEp-9" vertex="1">
          <mxGeometry y="260" width="170" height="26" as="geometry" />
        </mxCell>
        <mxCell id="wvOx1rGEkxLdLzv3WGEp-20" value="+ UpdatedAt: DateTime?" style="text;strokeColor=none;fillColor=none;align=left;verticalAlign=top;spacingLeft=4;spacingRight=4;overflow=hidden;rotatable=0;points=[[0,0.5],[1,0.5]];portConstraint=eastwest;whiteSpace=wrap;html=1;" parent="wvOx1rGEkxLdLzv3WGEp-9" vertex="1">
          <mxGeometry y="286" width="170" height="26" as="geometry" />
        </mxCell>
        <mxCell id="wvOx1rGEkxLdLzv3WGEp-21" value="+ AuthorsString: string?" style="text;strokeColor=none;fillColor=none;align=left;verticalAlign=top;spacingLeft=4;spacingRight=4;overflow=hidden;rotatable=0;points=[[0,0.5],[1,0.5]];portConstraint=eastwest;whiteSpace=wrap;html=1;" parent="wvOx1rGEkxLdLzv3WGEp-9" vertex="1">
          <mxGeometry y="312" width="170" height="26" as="geometry" />
        </mxCell>
        <mxCell id="wvOx1rGEkxLdLzv3WGEp-22" value="+ Authors: List&amp;lt;string&amp;gt;?" style="text;strokeColor=none;fillColor=none;align=left;verticalAlign=top;spacingLeft=4;spacingRight=4;overflow=hidden;rotatable=0;points=[[0,0.5],[1,0.5]];portConstraint=eastwest;whiteSpace=wrap;html=1;" parent="wvOx1rGEkxLdLzv3WGEp-9" vertex="1">
          <mxGeometry y="338" width="170" height="26" as="geometry" />
        </mxCell>
        <mxCell id="wvOx1rGEkxLdLzv3WGEp-23" value="+ Publisher: string?" style="text;strokeColor=none;fillColor=none;align=left;verticalAlign=top;spacingLeft=4;spacingRight=4;overflow=hidden;rotatable=0;points=[[0,0.5],[1,0.5]];portConstraint=eastwest;whiteSpace=wrap;html=1;" parent="wvOx1rGEkxLdLzv3WGEp-9" vertex="1">
          <mxGeometry y="364" width="170" height="26" as="geometry" />
        </mxCell>
        <mxCell id="wvOx1rGEkxLdLzv3WGEp-24" value="+ AccessedAt: DateTime?" style="text;strokeColor=none;fillColor=none;align=left;verticalAlign=top;spacingLeft=4;spacingRight=4;overflow=hidden;rotatable=0;points=[[0,0.5],[1,0.5]];portConstraint=eastwest;whiteSpace=wrap;html=1;" parent="wvOx1rGEkxLdLzv3WGEp-9" vertex="1">
          <mxGeometry y="390" width="170" height="26" as="geometry" />
        </mxCell>
        <mxCell id="wvOx1rGEkxLdLzv3WGEp-25" value="User" style="swimlane;fontStyle=0;childLayout=stackLayout;horizontal=1;startSize=26;fillColor=none;horizontalStack=0;resizeParent=1;resizeParentMax=0;resizeLast=0;collapsible=1;marginBottom=0;whiteSpace=wrap;html=1;" parent="1" vertex="1">
          <mxGeometry x="-515" y="1462" width="140" height="104" as="geometry" />
        </mxCell>
        <mxCell id="wvOx1rGEkxLdLzv3WGEp-26" value="+ Username: string" style="text;strokeColor=none;fillColor=none;align=left;verticalAlign=top;spacingLeft=4;spacingRight=4;overflow=hidden;rotatable=0;points=[[0,0.5],[1,0.5]];portConstraint=eastwest;whiteSpace=wrap;html=1;" parent="wvOx1rGEkxLdLzv3WGEp-25" vertex="1">
          <mxGeometry y="26" width="140" height="26" as="geometry" />
        </mxCell>
        <mxCell id="wvOx1rGEkxLdLzv3WGEp-27" value="+ Password: string?" style="text;strokeColor=none;fillColor=none;align=left;verticalAlign=top;spacingLeft=4;spacingRight=4;overflow=hidden;rotatable=0;points=[[0,0.5],[1,0.5]];portConstraint=eastwest;whiteSpace=wrap;html=1;" parent="wvOx1rGEkxLdLzv3WGEp-25" vertex="1">
          <mxGeometry y="52" width="140" height="26" as="geometry" />
        </mxCell>
        <mxCell id="wvOx1rGEkxLdLzv3WGEp-28" value="+ Token: string?" style="text;strokeColor=none;fillColor=none;align=left;verticalAlign=top;spacingLeft=4;spacingRight=4;overflow=hidden;rotatable=0;points=[[0,0.5],[1,0.5]];portConstraint=eastwest;whiteSpace=wrap;html=1;" parent="wvOx1rGEkxLdLzv3WGEp-25" vertex="1">
          <mxGeometry y="78" width="140" height="26" as="geometry" />
        </mxCell>
        <mxCell id="wvOx1rGEkxLdLzv3WGEp-29" value="&lt;p style=&quot;margin:0px;margin-top:4px;text-align:center;text-decoration:underline;&quot;&gt;&lt;b&gt;SourceType&lt;/b&gt;&lt;/p&gt;&lt;hr&gt;&lt;p style=&quot;margin:0px;margin-left:8px;&quot;&gt;Pdf = 1&lt;/p&gt;&lt;p style=&quot;margin:0px;margin-left:8px;&quot;&gt;Vid = 2&lt;/p&gt;" style="verticalAlign=top;align=left;overflow=fill;fontSize=12;fontFamily=Helvetica;html=1;whiteSpace=wrap;" parent="1" vertex="1">
          <mxGeometry x="-1510" y="1227" width="80" height="61" as="geometry" />
        </mxCell>
        <mxCell id="HZG-tqMba3dsaM3DfF3n-1" value="1" style="endArrow=open;html=1;endSize=12;startArrow=diamondThin;startSize=14;startFill=1;edgeStyle=orthogonalEdgeStyle;align=left;verticalAlign=bottom;rounded=0;" parent="1" source="wvOx1rGEkxLdLzv3WGEp-9" target="wvOx1rGEkxLdLzv3WGEp-29" edge="1">
          <mxGeometry x="-0.6997" relative="1" as="geometry">
            <mxPoint x="-1355" y="1258" as="sourcePoint" />
            <mxPoint x="-1430" y="1258" as="targetPoint" />
            <mxPoint as="offset" />
          </mxGeometry>
        </mxCell>
        <mxCell id="Ub_nf6X3wVd0ZuMcXLiy-1" value="NotesDal" style="swimlane;fontStyle=1;align=center;verticalAlign=top;childLayout=stackLayout;horizontal=1;startSize=26;horizontalStack=0;resizeParent=1;resizeParentMax=0;resizeLast=0;collapsible=1;marginBottom=0;whiteSpace=wrap;html=1;" parent="1" vertex="1">
          <mxGeometry x="-1020" y="1582" width="380" height="190" as="geometry" />
        </mxCell>
        <mxCell id="Ub_nf6X3wVd0ZuMcXLiy-2" value="&lt;u&gt;-&amp;nbsp;BaseUrl: string&lt;/u&gt;" style="text;strokeColor=none;fillColor=none;align=left;verticalAlign=top;spacingLeft=4;spacingRight=4;overflow=hidden;rotatable=0;points=[[0,0.5],[1,0.5]];portConstraint=eastwest;whiteSpace=wrap;html=1;" parent="Ub_nf6X3wVd0ZuMcXLiy-1" vertex="1">
          <mxGeometry y="26" width="380" height="26" as="geometry" />
        </mxCell>
        <mxCell id="Ub_nf6X3wVd0ZuMcXLiy-6" value="- client:&amp;nbsp;IHttpClientWrapper" style="text;strokeColor=none;fillColor=none;align=left;verticalAlign=top;spacingLeft=4;spacingRight=4;overflow=hidden;rotatable=0;points=[[0,0.5],[1,0.5]];portConstraint=eastwest;whiteSpace=wrap;html=1;" parent="Ub_nf6X3wVd0ZuMcXLiy-1" vertex="1">
          <mxGeometry y="52" width="380" height="26" as="geometry" />
        </mxCell>
        <mxCell id="Ub_nf6X3wVd0ZuMcXLiy-3" value="" style="line;strokeWidth=1;fillColor=none;align=left;verticalAlign=middle;spacingTop=-1;spacingLeft=3;spacingRight=3;rotatable=0;labelPosition=right;points=[];portConstraint=eastwest;strokeColor=inherit;" parent="Ub_nf6X3wVd0ZuMcXLiy-1" vertex="1">
          <mxGeometry y="78" width="380" height="8" as="geometry" />
        </mxCell>
        <mxCell id="Ub_nf6X3wVd0ZuMcXLiy-4" value="+ GetUserSourceNotes(User, Source) :&amp;nbsp;&amp;nbsp;Task&amp;lt;IEnumerable&amp;lt;Note&amp;gt;&amp;gt;" style="text;strokeColor=none;fillColor=none;align=left;verticalAlign=top;spacingLeft=4;spacingRight=4;overflow=hidden;rotatable=0;points=[[0,0.5],[1,0.5]];portConstraint=eastwest;whiteSpace=wrap;html=1;" parent="Ub_nf6X3wVd0ZuMcXLiy-1" vertex="1">
          <mxGeometry y="86" width="380" height="26" as="geometry" />
        </mxCell>
        <mxCell id="Ub_nf6X3wVd0ZuMcXLiy-7" value="+ CreateNewNote(User, Note) :&amp;nbsp;&amp;nbsp;Task&amp;lt;bool&amp;gt;" style="text;strokeColor=none;fillColor=none;align=left;verticalAlign=top;spacingLeft=4;spacingRight=4;overflow=hidden;rotatable=0;points=[[0,0.5],[1,0.5]];portConstraint=eastwest;whiteSpace=wrap;html=1;" parent="Ub_nf6X3wVd0ZuMcXLiy-1" vertex="1">
          <mxGeometry y="112" width="380" height="26" as="geometry" />
        </mxCell>
        <mxCell id="Ub_nf6X3wVd0ZuMcXLiy-8" value="+ UpdateNote(User, Note) :&amp;nbsp;&amp;nbsp;Task&amp;lt;bool&amp;gt;" style="text;strokeColor=none;fillColor=none;align=left;verticalAlign=top;spacingLeft=4;spacingRight=4;overflow=hidden;rotatable=0;points=[[0,0.5],[1,0.5]];portConstraint=eastwest;whiteSpace=wrap;html=1;" parent="Ub_nf6X3wVd0ZuMcXLiy-1" vertex="1">
          <mxGeometry y="138" width="380" height="26" as="geometry" />
        </mxCell>
        <mxCell id="Ub_nf6X3wVd0ZuMcXLiy-9" value="+ DeleteNote(Note) :&amp;nbsp;&amp;nbsp;Task&amp;lt;bool&amp;gt;" style="text;strokeColor=none;fillColor=none;align=left;verticalAlign=top;spacingLeft=4;spacingRight=4;overflow=hidden;rotatable=0;points=[[0,0.5],[1,0.5]];portConstraint=eastwest;whiteSpace=wrap;html=1;" parent="Ub_nf6X3wVd0ZuMcXLiy-1" vertex="1">
          <mxGeometry y="164" width="380" height="26" as="geometry" />
        </mxCell>
        <mxCell id="Ub_nf6X3wVd0ZuMcXLiy-10" value="SourceDal" style="swimlane;fontStyle=1;align=center;verticalAlign=top;childLayout=stackLayout;horizontal=1;startSize=26;horizontalStack=0;resizeParent=1;resizeParentMax=0;resizeLast=0;collapsible=1;marginBottom=0;whiteSpace=wrap;html=1;" parent="1" vertex="1">
          <mxGeometry x="-1490" y="1632" width="340" height="138" as="geometry" />
        </mxCell>
        <mxCell id="Ub_nf6X3wVd0ZuMcXLiy-11" value="&lt;u&gt;-&amp;nbsp;BaseUrl: string&lt;/u&gt;" style="text;strokeColor=none;fillColor=none;align=left;verticalAlign=top;spacingLeft=4;spacingRight=4;overflow=hidden;rotatable=0;points=[[0,0.5],[1,0.5]];portConstraint=eastwest;whiteSpace=wrap;html=1;" parent="Ub_nf6X3wVd0ZuMcXLiy-10" vertex="1">
          <mxGeometry y="26" width="340" height="26" as="geometry" />
        </mxCell>
        <mxCell id="Ub_nf6X3wVd0ZuMcXLiy-12" value="- client:&amp;nbsp;IHttpClientWrapper" style="text;strokeColor=none;fillColor=none;align=left;verticalAlign=top;spacingLeft=4;spacingRight=4;overflow=hidden;rotatable=0;points=[[0,0.5],[1,0.5]];portConstraint=eastwest;whiteSpace=wrap;html=1;" parent="Ub_nf6X3wVd0ZuMcXLiy-10" vertex="1">
          <mxGeometry y="52" width="340" height="26" as="geometry" />
        </mxCell>
        <mxCell id="Ub_nf6X3wVd0ZuMcXLiy-13" value="" style="line;strokeWidth=1;fillColor=none;align=left;verticalAlign=middle;spacingTop=-1;spacingLeft=3;spacingRight=3;rotatable=0;labelPosition=right;points=[];portConstraint=eastwest;strokeColor=inherit;" parent="Ub_nf6X3wVd0ZuMcXLiy-10" vertex="1">
          <mxGeometry y="78" width="340" height="8" as="geometry" />
        </mxCell>
        <mxCell id="Ub_nf6X3wVd0ZuMcXLiy-14" value="+ GetSourcesForUser(User) :&amp;nbsp;&amp;nbsp;Task&amp;lt;IEnumerable&amp;lt;Source&amp;gt;&amp;gt;" style="text;strokeColor=none;fillColor=none;align=left;verticalAlign=top;spacingLeft=4;spacingRight=4;overflow=hidden;rotatable=0;points=[[0,0.5],[1,0.5]];portConstraint=eastwest;whiteSpace=wrap;html=1;" parent="Ub_nf6X3wVd0ZuMcXLiy-10" vertex="1">
          <mxGeometry y="86" width="340" height="26" as="geometry" />
        </mxCell>
        <mxCell id="Ub_nf6X3wVd0ZuMcXLiy-15" value="+ AddSourceForUser(User, Source) :&amp;nbsp;&amp;nbsp;Task&amp;lt;bool&amp;gt;" style="text;strokeColor=none;fillColor=none;align=left;verticalAlign=top;spacingLeft=4;spacingRight=4;overflow=hidden;rotatable=0;points=[[0,0.5],[1,0.5]];portConstraint=eastwest;whiteSpace=wrap;html=1;" parent="Ub_nf6X3wVd0ZuMcXLiy-10" vertex="1">
          <mxGeometry y="112" width="340" height="26" as="geometry" />
        </mxCell>
        <mxCell id="Ub_nf6X3wVd0ZuMcXLiy-18" value="UserDal" style="swimlane;fontStyle=1;align=center;verticalAlign=top;childLayout=stackLayout;horizontal=1;startSize=26;horizontalStack=0;resizeParent=1;resizeParentMax=0;resizeLast=0;collapsible=1;marginBottom=0;whiteSpace=wrap;html=1;" parent="1" vertex="1">
          <mxGeometry x="-555" y="1650" width="220" height="138" as="geometry" />
        </mxCell>
        <mxCell id="Ub_nf6X3wVd0ZuMcXLiy-19" value="&lt;u&gt;-&amp;nbsp;BaseUrl: string&lt;/u&gt;" style="text;strokeColor=none;fillColor=none;align=left;verticalAlign=top;spacingLeft=4;spacingRight=4;overflow=hidden;rotatable=0;points=[[0,0.5],[1,0.5]];portConstraint=eastwest;whiteSpace=wrap;html=1;" parent="Ub_nf6X3wVd0ZuMcXLiy-18" vertex="1">
          <mxGeometry y="26" width="220" height="26" as="geometry" />
        </mxCell>
        <mxCell id="Ub_nf6X3wVd0ZuMcXLiy-20" value="- client:&amp;nbsp;IHttpClientWrapper" style="text;strokeColor=none;fillColor=none;align=left;verticalAlign=top;spacingLeft=4;spacingRight=4;overflow=hidden;rotatable=0;points=[[0,0.5],[1,0.5]];portConstraint=eastwest;whiteSpace=wrap;html=1;" parent="Ub_nf6X3wVd0ZuMcXLiy-18" vertex="1">
          <mxGeometry y="52" width="220" height="26" as="geometry" />
        </mxCell>
        <mxCell id="Ub_nf6X3wVd0ZuMcXLiy-21" value="" style="line;strokeWidth=1;fillColor=none;align=left;verticalAlign=middle;spacingTop=-1;spacingLeft=3;spacingRight=3;rotatable=0;labelPosition=right;points=[];portConstraint=eastwest;strokeColor=inherit;" parent="Ub_nf6X3wVd0ZuMcXLiy-18" vertex="1">
          <mxGeometry y="78" width="220" height="8" as="geometry" />
        </mxCell>
        <mxCell id="Ub_nf6X3wVd0ZuMcXLiy-22" value="+&amp;nbsp;Login(User) :&amp;nbsp;Task&amp;lt;User&amp;gt;" style="text;strokeColor=none;fillColor=none;align=left;verticalAlign=top;spacingLeft=4;spacingRight=4;overflow=hidden;rotatable=0;points=[[0,0.5],[1,0.5]];portConstraint=eastwest;whiteSpace=wrap;html=1;" parent="Ub_nf6X3wVd0ZuMcXLiy-18" vertex="1">
          <mxGeometry y="86" width="220" height="26" as="geometry" />
        </mxCell>
        <mxCell id="1Os67pQLIgbm_kGXKayd-1" value="+ CreateAccount(User) : Task&amp;lt;User&amp;gt;" style="text;strokeColor=none;fillColor=none;align=left;verticalAlign=top;spacingLeft=4;spacingRight=4;overflow=hidden;rotatable=0;points=[[0,0.5],[1,0.5]];portConstraint=eastwest;whiteSpace=wrap;html=1;" parent="Ub_nf6X3wVd0ZuMcXLiy-18" vertex="1">
          <mxGeometry y="112" width="220" height="26" as="geometry" />
        </mxCell>
        <mxCell id="Ub_nf6X3wVd0ZuMcXLiy-24" value="Use" style="endArrow=open;endSize=12;dashed=1;html=1;rounded=0;edgeStyle=orthogonalEdgeStyle;" parent="1" source="Ub_nf6X3wVd0ZuMcXLiy-10" target="wvOx1rGEkxLdLzv3WGEp-9" edge="1">
          <mxGeometry width="160" relative="1" as="geometry">
            <mxPoint x="-1140" y="1592" as="sourcePoint" />
            <mxPoint x="-980" y="1592" as="targetPoint" />
          </mxGeometry>
        </mxCell>
        <mxCell id="Ub_nf6X3wVd0ZuMcXLiy-25" value="Use" style="endArrow=open;endSize=12;dashed=1;html=1;rounded=0;edgeStyle=orthogonalEdgeStyle;" parent="1" source="Ub_nf6X3wVd0ZuMcXLiy-1" target="wvOx1rGEkxLdLzv3WGEp-1" edge="1">
          <mxGeometry width="160" relative="1" as="geometry">
            <mxPoint x="-1390" y="1644" as="sourcePoint" />
            <mxPoint x="-1310" y="1569" as="targetPoint" />
            <Array as="points">
              <mxPoint x="-840" y="1537" />
              <mxPoint x="-800" y="1537" />
            </Array>
          </mxGeometry>
        </mxCell>
        <mxCell id="Ub_nf6X3wVd0ZuMcXLiy-26" value="Use" style="endArrow=open;endSize=12;dashed=1;html=1;rounded=0;edgeStyle=orthogonalEdgeStyle;" parent="1" source="Ub_nf6X3wVd0ZuMcXLiy-18" target="wvOx1rGEkxLdLzv3WGEp-25" edge="1">
          <mxGeometry width="160" relative="1" as="geometry">
            <mxPoint x="-955" y="1590" as="sourcePoint" />
            <mxPoint x="-935" y="1528" as="targetPoint" />
            <Array as="points">
              <mxPoint x="-505" y="1613" />
              <mxPoint x="-445" y="1613" />
            </Array>
          </mxGeometry>
        </mxCell>
        <mxCell id="LbigwzT_EH-9wJgHHa1v-1" value="&lt;i style=&quot;border-color: var(--border-color); font-weight: 400;&quot;&gt;&amp;lt;&amp;lt;Interface&amp;gt;&amp;gt;&lt;/i&gt;&lt;br&gt;IHttpClientWrapper" style="swimlane;fontStyle=1;align=center;verticalAlign=top;childLayout=stackLayout;horizontal=1;startSize=40;horizontalStack=0;resizeParent=1;resizeParentMax=0;resizeLast=0;collapsible=1;marginBottom=0;whiteSpace=wrap;html=1;" parent="1" vertex="1">
          <mxGeometry x="-1550" y="1896" width="400" height="230" as="geometry" />
        </mxCell>
        <mxCell id="LbigwzT_EH-9wJgHHa1v-2" value="+&amp;nbsp;BaseAddress: Uri" style="text;strokeColor=none;fillColor=none;align=left;verticalAlign=top;spacingLeft=4;spacingRight=4;overflow=hidden;rotatable=0;points=[[0,0.5],[1,0.5]];portConstraint=eastwest;whiteSpace=wrap;html=1;" parent="LbigwzT_EH-9wJgHHa1v-1" vertex="1">
          <mxGeometry y="40" width="400" height="26" as="geometry" />
        </mxCell>
        <mxCell id="LbigwzT_EH-9wJgHHa1v-9" value="+&amp;nbsp;DefaultRequestHeaders:&amp;nbsp;HttpRequestHeaders" style="text;strokeColor=none;fillColor=none;align=left;verticalAlign=top;spacingLeft=4;spacingRight=4;overflow=hidden;rotatable=0;points=[[0,0.5],[1,0.5]];portConstraint=eastwest;whiteSpace=wrap;html=1;" parent="LbigwzT_EH-9wJgHHa1v-1" vertex="1">
          <mxGeometry y="66" width="400" height="26" as="geometry" />
        </mxCell>
        <mxCell id="LbigwzT_EH-9wJgHHa1v-3" value="" style="line;strokeWidth=1;fillColor=none;align=left;verticalAlign=middle;spacingTop=-1;spacingLeft=3;spacingRight=3;rotatable=0;labelPosition=right;points=[];portConstraint=eastwest;strokeColor=inherit;" parent="LbigwzT_EH-9wJgHHa1v-1" vertex="1">
          <mxGeometry y="92" width="400" height="8" as="geometry" />
        </mxCell>
        <mxCell id="LbigwzT_EH-9wJgHHa1v-4" value="+ GetAsync(string)&amp;nbsp;:&amp;nbsp;Task&amp;lt;HttpResponseMessage&amp;gt;" style="text;strokeColor=none;fillColor=none;align=left;verticalAlign=top;spacingLeft=4;spacingRight=4;overflow=hidden;rotatable=0;points=[[0,0.5],[1,0.5]];portConstraint=eastwest;whiteSpace=wrap;html=1;" parent="LbigwzT_EH-9wJgHHa1v-1" vertex="1">
          <mxGeometry y="100" width="400" height="26" as="geometry" />
        </mxCell>
        <mxCell id="LbigwzT_EH-9wJgHHa1v-5" value="+ PostAsync(string,&amp;nbsp;HttpContent)&amp;nbsp;:&amp;nbsp;Task&amp;lt;HttpResponseMessage&amp;gt;" style="text;strokeColor=none;fillColor=none;align=left;verticalAlign=top;spacingLeft=4;spacingRight=4;overflow=hidden;rotatable=0;points=[[0,0.5],[1,0.5]];portConstraint=eastwest;whiteSpace=wrap;html=1;" parent="LbigwzT_EH-9wJgHHa1v-1" vertex="1">
          <mxGeometry y="126" width="400" height="26" as="geometry" />
        </mxCell>
        <mxCell id="LbigwzT_EH-9wJgHHa1v-6" value="+ PutAsync(string,&amp;nbsp;HttpContent)&amp;nbsp;:&amp;nbsp;Task&amp;lt;HttpResponseMessage&amp;gt;" style="text;strokeColor=none;fillColor=none;align=left;verticalAlign=top;spacingLeft=4;spacingRight=4;overflow=hidden;rotatable=0;points=[[0,0.5],[1,0.5]];portConstraint=eastwest;whiteSpace=wrap;html=1;" parent="LbigwzT_EH-9wJgHHa1v-1" vertex="1">
          <mxGeometry y="152" width="400" height="26" as="geometry" />
        </mxCell>
        <mxCell id="LbigwzT_EH-9wJgHHa1v-7" value="+ DeleteAsync(string)&amp;nbsp;:&amp;nbsp;Task&amp;lt;HttpResponseMessage&amp;gt;" style="text;strokeColor=none;fillColor=none;align=left;verticalAlign=top;spacingLeft=4;spacingRight=4;overflow=hidden;rotatable=0;points=[[0,0.5],[1,0.5]];portConstraint=eastwest;whiteSpace=wrap;html=1;" parent="LbigwzT_EH-9wJgHHa1v-1" vertex="1">
          <mxGeometry y="178" width="400" height="26" as="geometry" />
        </mxCell>
        <mxCell id="LbigwzT_EH-9wJgHHa1v-8" value="+ PostAsJsonAsync(string, User) :&amp;nbsp;Task&amp;lt;HttpResponseMessage&amp;gt;" style="text;strokeColor=none;fillColor=none;align=left;verticalAlign=top;spacingLeft=4;spacingRight=4;overflow=hidden;rotatable=0;points=[[0,0.5],[1,0.5]];portConstraint=eastwest;whiteSpace=wrap;html=1;" parent="LbigwzT_EH-9wJgHHa1v-1" vertex="1">
          <mxGeometry y="204" width="400" height="26" as="geometry" />
        </mxCell>
        <mxCell id="5Rs4qzMZhEwvGbmSwczM-1" value="1" style="endArrow=open;html=1;endSize=12;startArrow=diamondThin;startSize=14;startFill=1;edgeStyle=orthogonalEdgeStyle;align=left;verticalAlign=bottom;rounded=0;" parent="1" source="Ub_nf6X3wVd0ZuMcXLiy-10" target="LbigwzT_EH-9wJgHHa1v-1" edge="1">
          <mxGeometry x="-0.4286" relative="1" as="geometry">
            <mxPoint x="-1420" y="1886" as="sourcePoint" />
            <mxPoint x="-690" y="1926" as="targetPoint" />
            <Array as="points">
              <mxPoint x="-1350" y="1866" />
              <mxPoint x="-1350" y="1866" />
            </Array>
            <mxPoint as="offset" />
          </mxGeometry>
        </mxCell>
        <mxCell id="5Rs4qzMZhEwvGbmSwczM-2" value="1" style="endArrow=open;html=1;endSize=12;startArrow=diamondThin;startSize=14;startFill=1;edgeStyle=orthogonalEdgeStyle;align=left;verticalAlign=bottom;rounded=0;" parent="1" source="Ub_nf6X3wVd0ZuMcXLiy-1" target="LbigwzT_EH-9wJgHHa1v-1" edge="1">
          <mxGeometry x="-0.896" relative="1" as="geometry">
            <mxPoint x="-1140" y="1711" as="sourcePoint" />
            <mxPoint x="-810" y="1916" as="targetPoint" />
            <Array as="points">
              <mxPoint x="-820" y="1846" />
              <mxPoint x="-1350" y="1846" />
            </Array>
            <mxPoint as="offset" />
          </mxGeometry>
        </mxCell>
        <mxCell id="5Rs4qzMZhEwvGbmSwczM-4" value="1" style="endArrow=open;html=1;endSize=12;startArrow=diamondThin;startSize=14;startFill=1;edgeStyle=orthogonalEdgeStyle;align=left;verticalAlign=bottom;rounded=0;" parent="1" source="Ub_nf6X3wVd0ZuMcXLiy-18" target="LbigwzT_EH-9wJgHHa1v-1" edge="1">
          <mxGeometry x="-0.9421" relative="1" as="geometry">
            <mxPoint x="-1130" y="1721" as="sourcePoint" />
            <mxPoint x="-800" y="1926" as="targetPoint" />
            <Array as="points">
              <mxPoint x="-450" y="1846" />
              <mxPoint x="-1350" y="1846" />
            </Array>
            <mxPoint as="offset" />
          </mxGeometry>
        </mxCell>
        <mxCell id="5Rs4qzMZhEwvGbmSwczM-5" value="&lt;i&gt;HttpClientWrapper&lt;/i&gt;" style="swimlane;fontStyle=1;align=center;verticalAlign=top;childLayout=stackLayout;horizontal=1;startSize=30;horizontalStack=0;resizeParent=1;resizeParentMax=0;resizeLast=0;collapsible=1;marginBottom=0;whiteSpace=wrap;html=1;" parent="1" vertex="1">
          <mxGeometry x="-1020" y="1886" width="400" height="272" as="geometry" />
        </mxCell>
        <mxCell id="5Rs4qzMZhEwvGbmSwczM-6" value="+&amp;nbsp;BaseAddress: Uri" style="text;strokeColor=none;fillColor=none;align=left;verticalAlign=top;spacingLeft=4;spacingRight=4;overflow=hidden;rotatable=0;points=[[0,0.5],[1,0.5]];portConstraint=eastwest;whiteSpace=wrap;html=1;" parent="5Rs4qzMZhEwvGbmSwczM-5" vertex="1">
          <mxGeometry y="30" width="400" height="26" as="geometry" />
        </mxCell>
        <mxCell id="5Rs4qzMZhEwvGbmSwczM-7" value="+&amp;nbsp;DefaultRequestHeaders:&amp;nbsp;HttpRequestHeaders" style="text;strokeColor=none;fillColor=none;align=left;verticalAlign=top;spacingLeft=4;spacingRight=4;overflow=hidden;rotatable=0;points=[[0,0.5],[1,0.5]];portConstraint=eastwest;whiteSpace=wrap;html=1;" parent="5Rs4qzMZhEwvGbmSwczM-5" vertex="1">
          <mxGeometry y="56" width="400" height="26" as="geometry" />
        </mxCell>
        <mxCell id="5Rs4qzMZhEwvGbmSwczM-14" value="+&amp;nbsp;_httpClient:&amp;nbsp;HttpClient" style="text;strokeColor=none;fillColor=none;align=left;verticalAlign=top;spacingLeft=4;spacingRight=4;overflow=hidden;rotatable=0;points=[[0,0.5],[1,0.5]];portConstraint=eastwest;whiteSpace=wrap;html=1;" parent="5Rs4qzMZhEwvGbmSwczM-5" vertex="1">
          <mxGeometry y="82" width="400" height="26" as="geometry" />
        </mxCell>
        <mxCell id="5Rs4qzMZhEwvGbmSwczM-8" value="" style="line;strokeWidth=1;fillColor=none;align=left;verticalAlign=middle;spacingTop=-1;spacingLeft=3;spacingRight=3;rotatable=0;labelPosition=right;points=[];portConstraint=eastwest;strokeColor=inherit;" parent="5Rs4qzMZhEwvGbmSwczM-5" vertex="1">
          <mxGeometry y="108" width="400" height="8" as="geometry" />
        </mxCell>
        <mxCell id="5Rs4qzMZhEwvGbmSwczM-9" value="+ GetAsync(string)&amp;nbsp;:&amp;nbsp;Task&amp;lt;HttpResponseMessage&amp;gt;" style="text;strokeColor=none;fillColor=none;align=left;verticalAlign=top;spacingLeft=4;spacingRight=4;overflow=hidden;rotatable=0;points=[[0,0.5],[1,0.5]];portConstraint=eastwest;whiteSpace=wrap;html=1;" parent="5Rs4qzMZhEwvGbmSwczM-5" vertex="1">
          <mxGeometry y="116" width="400" height="26" as="geometry" />
        </mxCell>
        <mxCell id="5Rs4qzMZhEwvGbmSwczM-10" value="+ PostAsync(string,&amp;nbsp;HttpContent)&amp;nbsp;:&amp;nbsp;Task&amp;lt;HttpResponseMessage&amp;gt;" style="text;strokeColor=none;fillColor=none;align=left;verticalAlign=top;spacingLeft=4;spacingRight=4;overflow=hidden;rotatable=0;points=[[0,0.5],[1,0.5]];portConstraint=eastwest;whiteSpace=wrap;html=1;" parent="5Rs4qzMZhEwvGbmSwczM-5" vertex="1">
          <mxGeometry y="142" width="400" height="26" as="geometry" />
        </mxCell>
        <mxCell id="5Rs4qzMZhEwvGbmSwczM-11" value="+ PutAsync(string,&amp;nbsp;HttpContent)&amp;nbsp;:&amp;nbsp;Task&amp;lt;HttpResponseMessage&amp;gt;" style="text;strokeColor=none;fillColor=none;align=left;verticalAlign=top;spacingLeft=4;spacingRight=4;overflow=hidden;rotatable=0;points=[[0,0.5],[1,0.5]];portConstraint=eastwest;whiteSpace=wrap;html=1;" parent="5Rs4qzMZhEwvGbmSwczM-5" vertex="1">
          <mxGeometry y="168" width="400" height="26" as="geometry" />
        </mxCell>
        <mxCell id="5Rs4qzMZhEwvGbmSwczM-12" value="+ DeleteAsync(string)&amp;nbsp;:&amp;nbsp;Task&amp;lt;HttpResponseMessage&amp;gt;" style="text;strokeColor=none;fillColor=none;align=left;verticalAlign=top;spacingLeft=4;spacingRight=4;overflow=hidden;rotatable=0;points=[[0,0.5],[1,0.5]];portConstraint=eastwest;whiteSpace=wrap;html=1;" parent="5Rs4qzMZhEwvGbmSwczM-5" vertex="1">
          <mxGeometry y="194" width="400" height="26" as="geometry" />
        </mxCell>
        <mxCell id="5Rs4qzMZhEwvGbmSwczM-13" value="+ PostAsJsonAsync(string, User) :&amp;nbsp;Task&amp;lt;HttpResponseMessage&amp;gt;" style="text;strokeColor=none;fillColor=none;align=left;verticalAlign=top;spacingLeft=4;spacingRight=4;overflow=hidden;rotatable=0;points=[[0,0.5],[1,0.5]];portConstraint=eastwest;whiteSpace=wrap;html=1;" parent="5Rs4qzMZhEwvGbmSwczM-5" vertex="1">
          <mxGeometry y="220" width="400" height="26" as="geometry" />
        </mxCell>
        <mxCell id="5Rs4qzMZhEwvGbmSwczM-15" value="+&amp;nbsp;Dispose() : void" style="text;strokeColor=none;fillColor=none;align=left;verticalAlign=top;spacingLeft=4;spacingRight=4;overflow=hidden;rotatable=0;points=[[0,0.5],[1,0.5]];portConstraint=eastwest;whiteSpace=wrap;html=1;" parent="5Rs4qzMZhEwvGbmSwczM-5" vertex="1">
          <mxGeometry y="246" width="400" height="26" as="geometry" />
        </mxCell>
        <mxCell id="5Rs4qzMZhEwvGbmSwczM-16" value="IDisposable" style="html=1;whiteSpace=wrap;" parent="1" vertex="1">
          <mxGeometry x="-500" y="1979" width="110" height="50" as="geometry" />
        </mxCell>
        <mxCell id="5Rs4qzMZhEwvGbmSwczM-17" value="" style="endArrow=block;dashed=1;endFill=0;endSize=12;html=1;rounded=0;edgeStyle=orthogonalEdgeStyle;" parent="1" source="LbigwzT_EH-9wJgHHa1v-1" target="5Rs4qzMZhEwvGbmSwczM-5" edge="1">
          <mxGeometry width="160" relative="1" as="geometry">
            <mxPoint x="-1160" y="2176" as="sourcePoint" />
            <mxPoint x="-1000" y="2176" as="targetPoint" />
          </mxGeometry>
        </mxCell>
        <mxCell id="5Rs4qzMZhEwvGbmSwczM-19" value="" style="endArrow=block;dashed=1;endFill=0;endSize=12;html=1;rounded=0;edgeStyle=orthogonalEdgeStyle;" parent="1" source="5Rs4qzMZhEwvGbmSwczM-16" target="5Rs4qzMZhEwvGbmSwczM-5" edge="1">
          <mxGeometry width="160" relative="1" as="geometry">
            <mxPoint x="-1140" y="2021" as="sourcePoint" />
            <mxPoint x="-1010" y="2032" as="targetPoint" />
          </mxGeometry>
        </mxCell>
        <mxCell id="5zc3gmbqnZPUFJOMN-mt-1" value="Tag" style="swimlane;fontStyle=0;childLayout=stackLayout;horizontal=1;startSize=26;fillColor=none;horizontalStack=0;resizeParent=1;resizeParentMax=0;resizeLast=0;collapsible=1;marginBottom=0;whiteSpace=wrap;html=1;" vertex="1" parent="1">
          <mxGeometry x="-240" y="1462" width="140" height="78" as="geometry" />
        </mxCell>
        <mxCell id="5zc3gmbqnZPUFJOMN-mt-2" value="+ TagId: int" style="text;strokeColor=none;fillColor=none;align=left;verticalAlign=top;spacingLeft=4;spacingRight=4;overflow=hidden;rotatable=0;points=[[0,0.5],[1,0.5]];portConstraint=eastwest;whiteSpace=wrap;html=1;" vertex="1" parent="5zc3gmbqnZPUFJOMN-mt-1">
          <mxGeometry y="26" width="140" height="26" as="geometry" />
        </mxCell>
        <mxCell id="5zc3gmbqnZPUFJOMN-mt-3" value="+ TagName: string" style="text;strokeColor=none;fillColor=none;align=left;verticalAlign=top;spacingLeft=4;spacingRight=4;overflow=hidden;rotatable=0;points=[[0,0.5],[1,0.5]];portConstraint=eastwest;whiteSpace=wrap;html=1;" vertex="1" parent="5zc3gmbqnZPUFJOMN-mt-1">
          <mxGeometry y="52" width="140" height="26" as="geometry" />
        </mxCell>
        <mxCell id="5zc3gmbqnZPUFJOMN-mt-5" value="TagDal" style="swimlane;fontStyle=1;align=center;verticalAlign=top;childLayout=stackLayout;horizontal=1;startSize=26;horizontalStack=0;resizeParent=1;resizeParentMax=0;resizeLast=0;collapsible=1;marginBottom=0;whiteSpace=wrap;html=1;" vertex="1" parent="1">
          <mxGeometry x="-280" y="1609" width="260" height="190" as="geometry" />
        </mxCell>
        <mxCell id="5zc3gmbqnZPUFJOMN-mt-6" value="&lt;u&gt;-&amp;nbsp;BaseUrl: string&lt;/u&gt;" style="text;strokeColor=none;fillColor=none;align=left;verticalAlign=top;spacingLeft=4;spacingRight=4;overflow=hidden;rotatable=0;points=[[0,0.5],[1,0.5]];portConstraint=eastwest;whiteSpace=wrap;html=1;" vertex="1" parent="5zc3gmbqnZPUFJOMN-mt-5">
          <mxGeometry y="26" width="260" height="26" as="geometry" />
        </mxCell>
        <mxCell id="5zc3gmbqnZPUFJOMN-mt-7" value="- client:&amp;nbsp;IHttpClientWrapper" style="text;strokeColor=none;fillColor=none;align=left;verticalAlign=top;spacingLeft=4;spacingRight=4;overflow=hidden;rotatable=0;points=[[0,0.5],[1,0.5]];portConstraint=eastwest;whiteSpace=wrap;html=1;" vertex="1" parent="5zc3gmbqnZPUFJOMN-mt-5">
          <mxGeometry y="52" width="260" height="26" as="geometry" />
        </mxCell>
        <mxCell id="5zc3gmbqnZPUFJOMN-mt-8" value="" style="line;strokeWidth=1;fillColor=none;align=left;verticalAlign=middle;spacingTop=-1;spacingLeft=3;spacingRight=3;rotatable=0;labelPosition=right;points=[];portConstraint=eastwest;strokeColor=inherit;" vertex="1" parent="5zc3gmbqnZPUFJOMN-mt-5">
          <mxGeometry y="78" width="260" height="8" as="geometry" />
        </mxCell>
        <mxCell id="5zc3gmbqnZPUFJOMN-mt-9" value="+ GetTags(User):&amp;nbsp;Task&amp;lt;IEnumerable&amp;lt;Tag&amp;gt;&amp;gt;" style="text;strokeColor=none;fillColor=none;align=left;verticalAlign=top;spacingLeft=4;spacingRight=4;overflow=hidden;rotatable=0;points=[[0,0.5],[1,0.5]];portConstraint=eastwest;whiteSpace=wrap;html=1;" vertex="1" parent="5zc3gmbqnZPUFJOMN-mt-5">
          <mxGeometry y="86" width="260" height="26" as="geometry" />
        </mxCell>
        <mxCell id="5zc3gmbqnZPUFJOMN-mt-10" value="+ CreateNewNote(User, Tag):&amp;nbsp;Task&amp;lt;bool&amp;gt;" style="text;strokeColor=none;fillColor=none;align=left;verticalAlign=top;spacingLeft=4;spacingRight=4;overflow=hidden;rotatable=0;points=[[0,0.5],[1,0.5]];portConstraint=eastwest;whiteSpace=wrap;html=1;" vertex="1" parent="5zc3gmbqnZPUFJOMN-mt-5">
          <mxGeometry y="112" width="260" height="26" as="geometry" />
        </mxCell>
        <mxCell id="5zc3gmbqnZPUFJOMN-mt-11" value="+ UpdateTag(User, Tag):&amp;nbsp;Task&amp;lt;bool&amp;gt;" style="text;strokeColor=none;fillColor=none;align=left;verticalAlign=top;spacingLeft=4;spacingRight=4;overflow=hidden;rotatable=0;points=[[0,0.5],[1,0.5]];portConstraint=eastwest;whiteSpace=wrap;html=1;" vertex="1" parent="5zc3gmbqnZPUFJOMN-mt-5">
          <mxGeometry y="138" width="260" height="26" as="geometry" />
        </mxCell>
        <mxCell id="5zc3gmbqnZPUFJOMN-mt-12" value="+ DeleteTag(Tag):&amp;nbsp;Task&amp;lt;bool&amp;gt;" style="text;strokeColor=none;fillColor=none;align=left;verticalAlign=top;spacingLeft=4;spacingRight=4;overflow=hidden;rotatable=0;points=[[0,0.5],[1,0.5]];portConstraint=eastwest;whiteSpace=wrap;html=1;" vertex="1" parent="5zc3gmbqnZPUFJOMN-mt-5">
          <mxGeometry y="164" width="260" height="26" as="geometry" />
        </mxCell>
        <mxCell id="5zc3gmbqnZPUFJOMN-mt-13" value="Use" style="endArrow=open;endSize=12;dashed=1;html=1;rounded=0;edgeStyle=orthogonalEdgeStyle;" edge="1" parent="1" source="5zc3gmbqnZPUFJOMN-mt-5" target="5zc3gmbqnZPUFJOMN-mt-1">
          <mxGeometry width="160" relative="1" as="geometry">
            <mxPoint x="-495" y="1660" as="sourcePoint" />
            <mxPoint x="-435" y="1576" as="targetPoint" />
            <Array as="points">
              <mxPoint x="-180" y="1580" />
              <mxPoint x="-180" y="1580" />
            </Array>
          </mxGeometry>
        </mxCell>
        <mxCell id="5zc3gmbqnZPUFJOMN-mt-14" value="1" style="endArrow=open;html=1;endSize=12;startArrow=diamondThin;startSize=14;startFill=1;edgeStyle=orthogonalEdgeStyle;align=left;verticalAlign=bottom;rounded=0;" edge="1" parent="1" source="5zc3gmbqnZPUFJOMN-mt-5" target="LbigwzT_EH-9wJgHHa1v-1">
          <mxGeometry x="-0.9421" relative="1" as="geometry">
            <mxPoint x="-440" y="1798" as="sourcePoint" />
            <mxPoint x="-1340" y="1906" as="targetPoint" />
            <Array as="points">
              <mxPoint x="-160" y="1846" />
              <mxPoint x="-1350" y="1846" />
            </Array>
            <mxPoint as="offset" />
          </mxGeometry>
        </mxCell>
      </root>
    </mxGraphModel>
  </diagram>
</mxfile>
